<svg xmlns="http://www.w3.org/2000/svg" xmlns:xlink="http://www.w3.org/1999/xlink" width="177" zoomAndPan="magnify" viewBox="0 0 132.75 30.750001" height="41" preserveAspectRatio="xMidYMid meet" version="1.0"><defs><g/><clipPath id="bfcf092b0a"><path d="M 39 1 L 116 1 L 116 30.503906 L 39 30.503906 Z M 39 1 " clip-rule="nonzero"/></clipPath><clipPath id="7ec88ed6ec"><path d="M 29 0.667969 L 45 0.667969 L 45 29 L 29 29 Z M 29 0.667969 " clip-rule="nonzero"/></clipPath><clipPath id="85508f9b29"><path d="M 60 0.667969 L 76 0.667969 L 76 29 L 60 29 Z M 60 0.667969 " clip-rule="nonzero"/></clipPath><clipPath id="d154b87714"><rect x="0" width="77" y="0" height="30"/></clipPath><clipPath id="cbe7ea68c9"><path d="M 1 4 L 45 4 L 45 30.503906 L 1 30.503906 Z M 1 4 " clip-rule="nonzero"/></clipPath><clipPath id="1d611b5423"><path d="M 0.839844 8 L 28 8 L 28 26.503906 L 0.839844 26.503906 Z M 0.839844 8 " clip-rule="nonzero"/></clipPath><clipPath id="8f6bf71735"><path d="M 1 0.140625 L 12 0.140625 L 12 17 L 1 17 Z M 1 0.140625 " clip-rule="nonzero"/></clipPath><clipPath id="05d1a5dcd3"><path d="M 12 0.140625 L 20 0.140625 L 20 17 L 12 17 Z M 12 0.140625 " clip-rule="nonzero"/></clipPath><clipPath id="50ff54e390"><path d="M 17 0.140625 L 27.503906 0.140625 L 27.503906 17 L 17 17 Z M 17 0.140625 " clip-rule="nonzero"/></clipPath><clipPath id="b04773b907"><rect x="0" width="28" y="0" height="19"/></clipPath><clipPath id="51e1109a3b"><path d="M 27.246094 10.25 L 40.191406 10.25 L 40.191406 23.195312 L 27.246094 23.195312 Z M 27.246094 10.25 " clip-rule="nonzero"/></clipPath><clipPath id="b33c9acca0"><path d="M 25 0.761719 L 43.214844 0.761719 L 43.214844 26.503906 L 25 26.503906 Z M 25 0.761719 " clip-rule="nonzero"/></clipPath><clipPath id="608482bd39"><rect x="0" width="19" y="0" height="27"/></clipPath><clipPath id="26a7c32103"><rect x="0" width="44" y="0" height="27"/></clipPath><clipPath id="68d6807eea"><path d="M 115.3125 2.863281 L 130.9375 2.863281 L 130.9375 17.742188 L 115.3125 17.742188 Z M 115.3125 2.863281 " clip-rule="nonzero"/></clipPath></defs><g clip-path="url(#bfcf092b0a)"><g transform="matrix(1, 0, 0, 1, 39, 1)"><g clip-path="url(#d154b87714)"><g fill="#005bff" fill-opacity="1"><g transform="translate(0.927654, 27.527558)"><g><path d="M 14.84375 -20.9375 L 10.84375 -20.9375 L 10.84375 0 L 4.078125 0 L 4.078125 -20.9375 L 0.078125 -20.9375 L 0.078125 -26.234375 L 14.84375 -26.234375 Z M 14.84375 -20.9375 "/></g></g></g><g fill="#005bff" fill-opacity="1"><g transform="translate(15.840964, 27.527558)"><g><path d="M 12.234375 -20.9375 L 7.5625 -20.9375 L 7.5625 -16.125 L 11.9375 -16.125 L 11.9375 -11.0625 L 7.5625 -11.0625 L 7.5625 -5.296875 L 12.59375 -5.296875 L 12.59375 0 L 0.8125 0 L 0.8125 -26.234375 L 12.234375 -26.234375 Z M 12.234375 -20.9375 "/></g></g></g><g clip-path="url(#7ec88ed6ec)"><g fill="#005bff" fill-opacity="1"><g transform="translate(28.770732, 27.527558)"><g><path d="M 7.890625 -26.78125 C 12.867188 -26.78125 15.359375 -24.90625 15.359375 -21.15625 L 15.359375 -18.546875 L 9.296875 -18.546875 L 9.296875 -20.828125 C 9.296875 -22.003906 8.851562 -22.59375 7.96875 -22.59375 C 7.207031 -22.59375 6.828125 -22.050781 6.828125 -20.96875 L 6.828125 -19.65625 C 6.828125 -19.164062 7 -18.703125 7.34375 -18.265625 C 7.6875 -17.835938 8.050781 -17.488281 8.4375 -17.21875 C 8.832031 -16.957031 9.460938 -16.566406 10.328125 -16.046875 C 11.378906 -15.410156 12.273438 -14.785156 13.015625 -14.171875 C 13.765625 -13.566406 14.414062 -12.78125 14.96875 -11.8125 C 15.519531 -10.84375 15.796875 -9.695312 15.796875 -8.375 L 15.796875 -6.03125 C 15.796875 -3.550781 15.09375 -1.832031 13.6875 -0.875 C 12.28125 0.0703125 10.347656 0.546875 7.890625 0.546875 C 5.203125 0.546875 3.304688 0.0078125 2.203125 -1.0625 C 1.097656 -2.144531 0.546875 -3.8125 0.546875 -6.0625 L 0.546875 -9.546875 L 6.875 -9.546875 L 6.875 -5.21875 C 6.875 -4.164062 7.253906 -3.640625 8.015625 -3.640625 C 8.421875 -3.640625 8.726562 -3.800781 8.9375 -4.125 C 9.144531 -4.457031 9.25 -5.015625 9.25 -5.796875 L 9.25 -7.203125 C 9.25 -7.859375 9.070312 -8.441406 8.71875 -8.953125 C 8.363281 -9.472656 7.972656 -9.890625 7.546875 -10.203125 C 7.117188 -10.523438 6.515625 -10.929688 5.734375 -11.421875 C 4.679688 -12.054688 3.804688 -12.65625 3.109375 -13.21875 C 2.410156 -13.78125 1.800781 -14.515625 1.28125 -15.421875 C 0.769531 -16.328125 0.515625 -17.40625 0.515625 -18.65625 L 0.515625 -20.421875 C 0.515625 -24.660156 2.972656 -26.78125 7.890625 -26.78125 Z M 7.890625 -26.78125 "/></g></g></g></g><g fill="#005bff" fill-opacity="1"><g transform="translate(45.079868, 27.527558)"><g><path d="M 14.84375 -20.9375 L 10.84375 -20.9375 L 10.84375 0 L 4.078125 0 L 4.078125 -20.9375 L 0.078125 -20.9375 L 0.078125 -26.234375 L 14.84375 -26.234375 Z M 14.84375 -20.9375 "/></g></g></g><g clip-path="url(#85508f9b29)"><g fill="#005bff" fill-opacity="1"><g transform="translate(59.993178, 27.527558)"><g><path d="M 7.890625 -26.78125 C 12.867188 -26.78125 15.359375 -24.90625 15.359375 -21.15625 L 15.359375 -18.546875 L 9.296875 -18.546875 L 9.296875 -20.828125 C 9.296875 -22.003906 8.851562 -22.59375 7.96875 -22.59375 C 7.207031 -22.59375 6.828125 -22.050781 6.828125 -20.96875 L 6.828125 -19.65625 C 6.828125 -19.164062 7 -18.703125 7.34375 -18.265625 C 7.6875 -17.835938 8.050781 -17.488281 8.4375 -17.21875 C 8.832031 -16.957031 9.460938 -16.566406 10.328125 -16.046875 C 11.378906 -15.410156 12.273438 -14.785156 13.015625 -14.171875 C 13.765625 -13.566406 14.414062 -12.78125 14.96875 -11.8125 C 15.519531 -10.84375 15.796875 -9.695312 15.796875 -8.375 L 15.796875 -6.03125 C 15.796875 -3.550781 15.09375 -1.832031 13.6875 -0.875 C 12.28125 0.0703125 10.347656 0.546875 7.890625 0.546875 C 5.203125 0.546875 3.304688 0.0078125 2.203125 -1.0625 C 1.097656 -2.144531 0.546875 -3.8125 0.546875 -6.0625 L 0.546875 -9.546875 L 6.875 -9.546875 L 6.875 -5.21875 C 6.875 -4.164062 7.253906 -3.640625 8.015625 -3.640625 C 8.421875 -3.640625 8.726562 -3.800781 8.9375 -4.125 C 9.144531 -4.457031 9.25 -5.015625 9.25 -5.796875 L 9.25 -7.203125 C 9.25 -7.859375 9.070312 -8.441406 8.71875 -8.953125 C 8.363281 -9.472656 7.972656 -9.890625 7.546875 -10.203125 C 7.117188 -10.523438 6.515625 -10.929688 5.734375 -11.421875 C 4.679688 -12.054688 3.804688 -12.65625 3.109375 -13.21875 C 2.410156 -13.78125 1.800781 -14.515625 1.28125 -15.421875 C 0.769531 -16.328125 0.515625 -17.40625 0.515625 -18.65625 L 0.515625 -20.421875 C 0.515625 -24.660156 2.972656 -26.78125 7.890625 -26.78125 Z M 7.890625 -26.78125 "/></g></g></g></g></g></g></g><g clip-path="url(#cbe7ea68c9)"><g transform="matrix(1, 0, 0, 1, 1, 4)"><g clip-path="url(#26a7c32103)"><g clip-path="url(#1d611b5423)"><g transform="matrix(1, 0, 0, 1, 0, 8)"><g clip-path="url(#b04773b907)"><g clip-path="url(#8f6bf71735)"><g fill="#b1040e" fill-opacity="1"><g transform="translate(1.132989, 16.887849)"><g><path d="M 10.625 0 L 6.359375 0 L 6.15625 -2.921875 L 4.59375 -2.921875 L 4.390625 0 L 0.109375 0 L 2.203125 -16.5625 L 8.359375 -16.5625 Z M 4.59375 -5.84375 L 6.078125 -5.84375 L 5.34375 -13.640625 L 5.296875 -13.640625 Z M 4.59375 -5.84375 "/></g></g></g></g><g clip-path="url(#05d1a5dcd3)"><g fill="#b1040e" fill-opacity="1"><g transform="translate(11.871752, 16.887849)"><g><path d="M 4.78125 -3.203125 L 7.609375 -3.203125 L 7.609375 0 L 0.515625 0 L 0.515625 -16.5625 L 4.78125 -16.5625 Z M 4.78125 -3.203125 "/></g></g></g></g><g clip-path="url(#50ff54e390)"><g fill="#b1040e" fill-opacity="1"><g transform="translate(17.87883, 16.887849)"><g><path d="M 9.375 -13.21875 L 6.84375 -13.21875 L 6.84375 0 L 2.578125 0 L 2.578125 -13.21875 L 0.046875 -13.21875 L 0.046875 -16.5625 L 9.375 -16.5625 Z M 9.375 -13.21875 "/></g></g></g></g></g></g></g><g clip-path="url(#51e1109a3b)"><path fill="#b1040e" d="M 40.328125 16.789062 C 40.328125 17.21875 40.289062 17.644531 40.203125 18.0625 C 40.121094 18.484375 39.996094 18.894531 39.832031 19.292969 C 39.667969 19.6875 39.464844 20.066406 39.226562 20.421875 C 38.988281 20.78125 38.71875 21.113281 38.414062 21.414062 C 38.109375 21.71875 37.777344 21.992188 37.421875 22.230469 C 37.0625 22.46875 36.6875 22.667969 36.289062 22.835938 C 35.890625 23 35.484375 23.121094 35.0625 23.207031 C 34.640625 23.289062 34.214844 23.332031 33.785156 23.332031 C 33.355469 23.332031 32.929688 23.289062 32.507812 23.207031 C 32.085938 23.121094 31.675781 23 31.28125 22.835938 C 30.882812 22.667969 30.507812 22.46875 30.148438 22.230469 C 29.792969 21.992188 29.460938 21.71875 29.15625 21.414062 C 28.851562 21.113281 28.582031 20.78125 28.34375 20.421875 C 28.105469 20.066406 27.902344 19.6875 27.738281 19.292969 C 27.574219 18.894531 27.449219 18.484375 27.367188 18.0625 C 27.28125 17.644531 27.238281 17.21875 27.238281 16.789062 C 27.238281 16.359375 27.28125 15.933594 27.367188 15.511719 C 27.449219 15.089844 27.574219 14.679688 27.738281 14.28125 C 27.902344 13.886719 28.105469 13.507812 28.34375 13.152344 C 28.582031 12.792969 28.851562 12.464844 29.15625 12.160156 C 29.460938 11.855469 29.792969 11.582031 30.148438 11.34375 C 30.507812 11.105469 30.882812 10.90625 31.28125 10.742188 C 31.675781 10.574219 32.085938 10.453125 32.507812 10.367188 C 32.929688 10.285156 33.355469 10.242188 33.785156 10.242188 C 34.214844 10.242188 34.640625 10.285156 35.0625 10.367188 C 35.484375 10.453125 35.890625 10.574219 36.289062 10.742188 C 36.6875 10.90625 37.0625 11.105469 37.421875 11.34375 C 37.777344 11.582031 38.109375 11.855469 38.414062 12.160156 C 38.71875 12.464844 38.988281 12.792969 39.226562 13.152344 C 39.464844 13.507812 39.667969 13.886719 39.832031 14.28125 C 39.996094 14.679688 40.121094 15.089844 40.203125 15.511719 C 40.289062 15.933594 40.328125 16.359375 40.328125 16.789062 Z M 40.328125 16.789062 " fill-opacity="1" fill-rule="nonzero"/></g><path fill="#ffffff" d="M 31.703125 20.28125 L 37.800781 16.789062 L 31.703125 13.292969 Z M 31.703125 20.28125 " fill-opacity="1" fill-rule="nonzero"/><g clip-path="url(#b33c9acca0)"><g transform="matrix(1, 0, 0, 1, 25, 0.000000000000000888)"><g clip-path="url(#608482bd39)"><g fill="#b1040e" fill-opacity="1"><g transform="translate(0.220439, 24.534745)"><g><path d="M 8.5625 0.21875 C 7.113281 0.21875 5.84375 -0.0703125 4.75 -0.65625 C 3.65625 -1.238281 2.796875 -2.132812 2.171875 -3.34375 C 1.546875 -4.550781 1.234375 -6.050781 1.234375 -7.84375 C 1.234375 -9.644531 1.546875 -11.144531 2.171875 -12.34375 C 2.796875 -13.550781 3.65625 -14.445312 4.75 -15.03125 C 5.84375 -15.625 7.113281 -15.921875 8.5625 -15.921875 C 10 -15.921875 11.265625 -15.628906 12.359375 -15.046875 C 13.453125 -14.460938 14.304688 -13.566406 14.921875 -12.359375 C 15.546875 -11.148438 15.859375 -9.644531 15.859375 -7.84375 C 15.859375 -6.050781 15.546875 -4.550781 14.921875 -3.34375 C 14.304688 -2.132812 13.453125 -1.238281 12.359375 -0.65625 C 11.265625 -0.0703125 10 0.21875 8.5625 0.21875 Z M 8.5625 -2.46875 C 9.882812 -2.46875 10.894531 -2.894531 11.59375 -3.75 C 12.300781 -4.601562 12.65625 -5.96875 12.65625 -7.84375 C 12.65625 -9.71875 12.300781 -11.082031 11.59375 -11.9375 C 10.894531 -12.800781 9.882812 -13.234375 8.5625 -13.234375 C 7.21875 -13.234375 6.191406 -12.800781 5.484375 -11.9375 C 4.785156 -11.082031 4.4375 -9.71875 4.4375 -7.84375 C 4.4375 -5.96875 4.785156 -4.601562 5.484375 -3.75 C 6.191406 -2.894531 7.21875 -2.46875 8.5625 -2.46875 Z M 8.5625 -2.46875 "/></g></g></g></g></g></g></g></g></g><g clip-path="url(#68d6807eea)"><path fill="#005bff" d="M 129.316406 7.3125 C 129.695312 8.214844 129.890625 9.167969 129.890625 10.152344 C 129.890625 11.136719 129.695312 12.089844 129.316406 12.988281 C 128.945312 13.863281 128.425781 14.632812 127.753906 15.304688 C 127.085938 15.976562 126.3125 16.496094 125.4375 16.867188 C 124.539062 17.246094 123.585938 17.441406 122.601562 17.441406 C 121.617188 17.441406 120.664062 17.246094 119.765625 16.867188 C 118.890625 16.496094 118.117188 15.976562 117.449219 15.304688 C 116.777344 14.632812 116.257812 13.863281 115.886719 12.988281 C 115.507812 12.089844 115.3125 11.136719 115.3125 10.152344 C 115.3125 9.167969 115.507812 8.214844 115.886719 7.3125 C 116.257812 6.441406 116.777344 5.667969 117.449219 4.996094 C 118.117188 4.328125 118.890625 3.804688 119.765625 3.4375 C 120.664062 3.054688 121.617188 2.863281 122.601562 2.863281 C 123.585938 2.863281 124.539062 3.054688 125.4375 3.4375 C 125.875 3.621094 126.285156 3.84375 126.675781 4.109375 C 126.765625 4.167969 126.855469 4.230469 126.941406 4.296875 C 127.039062 4.367188 127.085938 4.460938 127.089844 4.582031 C 127.09375 4.699219 127.046875 4.796875 126.957031 4.875 C 126.808594 4.992188 126.660156 4.996094 126.507812 4.882812 C 125.414062 4.074219 124.0625 3.589844 122.601562 3.589844 C 118.984375 3.589844 116.042969 6.535156 116.042969 10.152344 C 116.042969 13.769531 118.984375 16.710938 122.601562 16.710938 C 126.214844 16.710938 129.171875 13.742188 129.160156 10.128906 C 129.160156 9.144531 128.945312 8.207031 128.515625 7.316406 C 128.433594 7.144531 128.46875 6.996094 128.617188 6.875 C 128.796875 6.726562 129.074219 6.789062 129.175781 7 C 129.226562 7.105469 129.273438 7.207031 129.316406 7.3125 Z M 130.007812 3.578125 C 127.847656 4.535156 124.992188 6.355469 122.332031 9.792969 L 120.203125 7.445312 C 119.441406 6.605469 118.101562 7.535156 118.625 8.542969 L 121.429688 13.976562 C 121.871094 14.828125 123.101562 14.777344 123.472656 13.894531 C 124.449219 11.546875 126.507812 7.882812 130.617188 4.578125 C 131.15625 4.148438 130.640625 3.300781 130.007812 3.582031 Z M 130.007812 3.578125 " fill-opacity="1" fill-rule="nonzero"/></g></svg>