<svg xmlns="http://www.w3.org/2000/svg" xmlns:xlink="http://www.w3.org/1999/xlink" width="177" zoomAndPan="magnify" viewBox="0 0 132.75 30.750001" height="41" preserveAspectRatio="xMidYMid meet" version="1.0"><defs><g/><clipPath id="9084b8f4dd"><path d="M 115.3125 2.863281 L 130.9375 2.863281 L 130.9375 17.742188 L 115.3125 17.742188 Z M 115.3125 2.863281 " clip-rule="nonzero"/></clipPath><clipPath id="ce0f4f13fe"><path d="M 39 1 L 116 1 L 116 30.503906 L 39 30.503906 Z M 39 1 " clip-rule="nonzero"/></clipPath><clipPath id="6d7b83cf0a"><path d="M 29 0.667969 L 45 0.667969 L 45 29 L 29 29 Z M 29 0.667969 " clip-rule="nonzero"/></clipPath><clipPath id="e9392048b3"><path d="M 60 0.667969 L 76 0.667969 L 76 29 L 60 29 Z M 60 0.667969 " clip-rule="nonzero"/></clipPath><clipPath id="391b116519"><rect x="0" width="77" y="0" height="30"/></clipPath><clipPath id="4bf9d91300"><path d="M 1 12 L 29 12 L 29 30.503906 L 1 30.503906 Z M 1 12 " clip-rule="nonzero"/></clipPath><clipPath id="3c10197255"><path d="M 1 0.140625 L 12 0.140625 L 12 17 L 1 17 Z M 1 0.140625 " clip-rule="nonzero"/></clipPath><clipPath id="1612c0a203"><path d="M 12 0.140625 L 20 0.140625 L 20 17 L 12 17 Z M 12 0.140625 " clip-rule="nonzero"/></clipPath><clipPath id="d7d3e8630c"><path d="M 17 0.140625 L 27.503906 0.140625 L 27.503906 17 L 17 17 Z M 17 0.140625 " clip-rule="nonzero"/></clipPath><clipPath id="04b762d5e7"><rect x="0" width="28" y="0" height="19"/></clipPath><clipPath id="0c51697efc"><path d="M 28.246094 14.25 L 41.636719 14.25 L 41.636719 27.640625 L 28.246094 27.640625 Z M 28.246094 14.25 " clip-rule="nonzero"/></clipPath><clipPath id="fc0ae8df73"><path d="M 26 4 L 45 4 L 45 30.503906 L 26 30.503906 Z M 26 4 " clip-rule="nonzero"/></clipPath><clipPath id="8b46f2cb22"><rect x="0" width="19" y="0" height="27"/></clipPath></defs><g clip-path="url(#9084b8f4dd)"><path fill="#ffffff" d="M 129.316406 7.3125 C 129.695312 8.214844 129.890625 9.167969 129.890625 10.152344 C 129.890625 11.136719 129.695312 12.089844 129.316406 12.988281 C 128.945312 13.863281 128.425781 14.632812 127.753906 15.304688 C 127.085938 15.976562 126.3125 16.496094 125.4375 16.867188 C 124.539062 17.246094 123.585938 17.441406 122.601562 17.441406 C 121.617188 17.441406 120.664062 17.246094 119.765625 16.867188 C 118.890625 16.496094 118.117188 15.976562 117.449219 15.304688 C 116.777344 14.632812 116.257812 13.863281 115.886719 12.988281 C 115.507812 12.089844 115.3125 11.136719 115.3125 10.152344 C 115.3125 9.167969 115.507812 8.214844 115.886719 7.3125 C 116.257812 6.441406 116.777344 5.667969 117.449219 4.996094 C 118.117188 4.328125 118.890625 3.804688 119.765625 3.4375 C 120.664062 3.054688 121.617188 2.863281 122.601562 2.863281 C 123.585938 2.863281 124.539062 3.054688 125.4375 3.4375 C 125.875 3.621094 126.285156 3.84375 126.675781 4.109375 C 126.765625 4.167969 126.855469 4.230469 126.941406 4.296875 C 127.039062 4.367188 127.085938 4.460938 127.089844 4.582031 C 127.09375 4.699219 127.046875 4.796875 126.957031 4.875 C 126.808594 4.992188 126.660156 4.996094 126.507812 4.882812 C 125.414062 4.074219 124.0625 3.589844 122.601562 3.589844 C 118.984375 3.589844 116.042969 6.535156 116.042969 10.152344 C 116.042969 13.769531 118.984375 16.710938 122.601562 16.710938 C 126.214844 16.710938 129.171875 13.742188 129.160156 10.128906 C 129.160156 9.144531 128.945312 8.207031 128.515625 7.316406 C 128.433594 7.144531 128.46875 6.996094 128.617188 6.875 C 128.796875 6.726562 129.074219 6.789062 129.175781 7 C 129.226562 7.105469 129.273438 7.207031 129.316406 7.3125 Z M 130.007812 3.578125 C 127.847656 4.535156 124.992188 6.355469 122.332031 9.792969 L 120.203125 7.445312 C 119.441406 6.605469 118.101562 7.535156 118.625 8.542969 L 121.429688 13.976562 C 121.871094 14.828125 123.101562 14.777344 123.472656 13.894531 C 124.449219 11.546875 126.507812 7.882812 130.617188 4.578125 C 131.15625 4.148438 130.640625 3.300781 130.007812 3.582031 Z M 130.007812 3.578125 " fill-opacity="1" fill-rule="nonzero"/></g><g clip-path="url(#ce0f4f13fe)"><g transform="matrix(1, 0, 0, 1, 39, 1)"><g clip-path="url(#391b116519)"><g fill="#ffffff" fill-opacity="1"><g transform="translate(0.927658, 27.527558)"><g><path d="M 14.84375 -20.9375 L 10.84375 -20.9375 L 10.84375 0 L 4.078125 0 L 4.078125 -20.9375 L 0.078125 -20.9375 L 0.078125 -26.234375 L 14.84375 -26.234375 Z M 14.84375 -20.9375 "/></g></g></g><g fill="#ffffff" fill-opacity="1"><g transform="translate(15.840968, 27.527558)"><g><path d="M 12.234375 -20.9375 L 7.5625 -20.9375 L 7.5625 -16.125 L 11.9375 -16.125 L 11.9375 -11.0625 L 7.5625 -11.0625 L 7.5625 -5.296875 L 12.59375 -5.296875 L 12.59375 0 L 0.8125 0 L 0.8125 -26.234375 L 12.234375 -26.234375 Z M 12.234375 -20.9375 "/></g></g></g><g clip-path="url(#6d7b83cf0a)"><g fill="#ffffff" fill-opacity="1"><g transform="translate(28.770736, 27.527558)"><g><path d="M 7.890625 -26.78125 C 12.867188 -26.78125 15.359375 -24.90625 15.359375 -21.15625 L 15.359375 -18.546875 L 9.296875 -18.546875 L 9.296875 -20.828125 C 9.296875 -22.003906 8.851562 -22.59375 7.96875 -22.59375 C 7.207031 -22.59375 6.828125 -22.050781 6.828125 -20.96875 L 6.828125 -19.65625 C 6.828125 -19.164062 7 -18.703125 7.34375 -18.265625 C 7.6875 -17.835938 8.050781 -17.488281 8.4375 -17.21875 C 8.832031 -16.957031 9.460938 -16.566406 10.328125 -16.046875 C 11.378906 -15.410156 12.273438 -14.785156 13.015625 -14.171875 C 13.765625 -13.566406 14.414062 -12.78125 14.96875 -11.8125 C 15.519531 -10.84375 15.796875 -9.695312 15.796875 -8.375 L 15.796875 -6.03125 C 15.796875 -3.550781 15.09375 -1.832031 13.6875 -0.875 C 12.28125 0.0703125 10.347656 0.546875 7.890625 0.546875 C 5.203125 0.546875 3.304688 0.0078125 2.203125 -1.0625 C 1.097656 -2.144531 0.546875 -3.8125 0.546875 -6.0625 L 0.546875 -9.546875 L 6.875 -9.546875 L 6.875 -5.21875 C 6.875 -4.164062 7.253906 -3.640625 8.015625 -3.640625 C 8.421875 -3.640625 8.726562 -3.800781 8.9375 -4.125 C 9.144531 -4.457031 9.25 -5.015625 9.25 -5.796875 L 9.25 -7.203125 C 9.25 -7.859375 9.070312 -8.441406 8.71875 -8.953125 C 8.363281 -9.472656 7.972656 -9.890625 7.546875 -10.203125 C 7.117188 -10.523438 6.515625 -10.929688 5.734375 -11.421875 C 4.679688 -12.054688 3.804688 -12.65625 3.109375 -13.21875 C 2.410156 -13.78125 1.800781 -14.515625 1.28125 -15.421875 C 0.769531 -16.328125 0.515625 -17.40625 0.515625 -18.65625 L 0.515625 -20.421875 C 0.515625 -24.660156 2.972656 -26.78125 7.890625 -26.78125 Z M 7.890625 -26.78125 "/></g></g></g></g><g fill="#ffffff" fill-opacity="1"><g transform="translate(45.079872, 27.527558)"><g><path d="M 14.84375 -20.9375 L 10.84375 -20.9375 L 10.84375 0 L 4.078125 0 L 4.078125 -20.9375 L 0.078125 -20.9375 L 0.078125 -26.234375 L 14.84375 -26.234375 Z M 14.84375 -20.9375 "/></g></g></g><g clip-path="url(#e9392048b3)"><g fill="#ffffff" fill-opacity="1"><g transform="translate(59.993181, 27.527558)"><g><path d="M 7.890625 -26.78125 C 12.867188 -26.78125 15.359375 -24.90625 15.359375 -21.15625 L 15.359375 -18.546875 L 9.296875 -18.546875 L 9.296875 -20.828125 C 9.296875 -22.003906 8.851562 -22.59375 7.96875 -22.59375 C 7.207031 -22.59375 6.828125 -22.050781 6.828125 -20.96875 L 6.828125 -19.65625 C 6.828125 -19.164062 7 -18.703125 7.34375 -18.265625 C 7.6875 -17.835938 8.050781 -17.488281 8.4375 -17.21875 C 8.832031 -16.957031 9.460938 -16.566406 10.328125 -16.046875 C 11.378906 -15.410156 12.273438 -14.785156 13.015625 -14.171875 C 13.765625 -13.566406 14.414062 -12.78125 14.96875 -11.8125 C 15.519531 -10.84375 15.796875 -9.695312 15.796875 -8.375 L 15.796875 -6.03125 C 15.796875 -3.550781 15.09375 -1.832031 13.6875 -0.875 C 12.28125 0.0703125 10.347656 0.546875 7.890625 0.546875 C 5.203125 0.546875 3.304688 0.0078125 2.203125 -1.0625 C 1.097656 -2.144531 0.546875 -3.8125 0.546875 -6.0625 L 0.546875 -9.546875 L 6.875 -9.546875 L 6.875 -5.21875 C 6.875 -4.164062 7.253906 -3.640625 8.015625 -3.640625 C 8.421875 -3.640625 8.726562 -3.800781 8.9375 -4.125 C 9.144531 -4.457031 9.25 -5.015625 9.25 -5.796875 L 9.25 -7.203125 C 9.25 -7.859375 9.070312 -8.441406 8.71875 -8.953125 C 8.363281 -9.472656 7.972656 -9.890625 7.546875 -10.203125 C 7.117188 -10.523438 6.515625 -10.929688 5.734375 -11.421875 C 4.679688 -12.054688 3.804688 -12.65625 3.109375 -13.21875 C 2.410156 -13.78125 1.800781 -14.515625 1.28125 -15.421875 C 0.769531 -16.328125 0.515625 -17.40625 0.515625 -18.65625 L 0.515625 -20.421875 C 0.515625 -24.660156 2.972656 -26.78125 7.890625 -26.78125 Z M 7.890625 -26.78125 "/></g></g></g></g></g></g></g><g clip-path="url(#4bf9d91300)"><g transform="matrix(1, 0, 0, 1, 1, 12)"><g clip-path="url(#04b762d5e7)"><g clip-path="url(#3c10197255)"><g fill="#ffffff" fill-opacity="1"><g transform="translate(1.132989, 16.88785)"><g><path d="M 10.625 0 L 6.359375 0 L 6.15625 -2.921875 L 4.59375 -2.921875 L 4.390625 0 L 0.109375 0 L 2.203125 -16.5625 L 8.359375 -16.5625 Z M 4.59375 -5.84375 L 6.078125 -5.84375 L 5.34375 -13.640625 L 5.296875 -13.640625 Z M 4.59375 -5.84375 "/></g></g></g></g><g clip-path="url(#1612c0a203)"><g fill="#ffffff" fill-opacity="1"><g transform="translate(11.871752, 16.88785)"><g><path d="M 4.78125 -3.203125 L 7.609375 -3.203125 L 7.609375 0 L 0.515625 0 L 0.515625 -16.5625 L 4.78125 -16.5625 Z M 4.78125 -3.203125 "/></g></g></g></g><g clip-path="url(#d7d3e8630c)"><g fill="#ffffff" fill-opacity="1"><g transform="translate(17.87883, 16.88785)"><g><path d="M 9.375 -13.21875 L 6.84375 -13.21875 L 6.84375 0 L 2.578125 0 L 2.578125 -13.21875 L 0.046875 -13.21875 L 0.046875 -16.5625 L 9.375 -16.5625 Z M 9.375 -13.21875 "/></g></g></g></g></g></g></g><g clip-path="url(#0c51697efc)"><path fill="#ffffff" d="M 41.320312 20.78125 C 41.320312 21.210938 41.277344 21.636719 41.195312 22.058594 C 41.109375 22.480469 40.988281 22.886719 40.824219 23.285156 C 40.65625 23.683594 40.457031 24.058594 40.21875 24.414062 C 39.980469 24.773438 39.707031 25.101562 39.40625 25.40625 C 39.101562 25.710938 38.769531 25.980469 38.414062 26.21875 C 38.054688 26.460938 37.679688 26.660156 37.28125 26.824219 C 36.886719 26.988281 36.476562 27.113281 36.054688 27.195312 C 35.632812 27.28125 35.210938 27.324219 34.78125 27.324219 C 34.351562 27.324219 33.925781 27.28125 33.503906 27.195312 C 33.082031 27.113281 32.675781 26.988281 32.277344 26.824219 C 31.878906 26.660156 31.503906 26.460938 31.144531 26.21875 C 30.789062 25.980469 30.457031 25.710938 30.15625 25.40625 C 29.851562 25.101562 29.582031 24.773438 29.34375 24.414062 C 29.101562 24.058594 28.902344 23.683594 28.738281 23.285156 C 28.574219 22.886719 28.449219 22.480469 28.367188 22.058594 C 28.28125 21.636719 28.238281 21.210938 28.238281 20.78125 C 28.238281 20.351562 28.28125 19.925781 28.367188 19.507812 C 28.449219 19.085938 28.574219 18.675781 28.738281 18.28125 C 28.902344 17.882812 29.101562 17.507812 29.34375 17.148438 C 29.582031 16.792969 29.851562 16.460938 30.15625 16.15625 C 30.457031 15.855469 30.789062 15.582031 31.144531 15.34375 C 31.503906 15.105469 31.878906 14.90625 32.277344 14.738281 C 32.675781 14.574219 33.082031 14.453125 33.503906 14.367188 C 33.925781 14.285156 34.351562 14.242188 34.78125 14.242188 C 35.210938 14.242188 35.632812 14.285156 36.054688 14.367188 C 36.476562 14.453125 36.886719 14.574219 37.28125 14.738281 C 37.679688 14.90625 38.054688 15.105469 38.414062 15.34375 C 38.769531 15.582031 39.101562 15.855469 39.40625 16.15625 C 39.707031 16.460938 39.980469 16.792969 40.21875 17.148438 C 40.457031 17.507812 40.65625 17.882812 40.824219 18.28125 C 40.988281 18.675781 41.109375 19.085938 41.195312 19.507812 C 41.277344 19.925781 41.320312 20.351562 41.320312 20.78125 Z M 41.320312 20.78125 " fill-opacity="1" fill-rule="nonzero"/></g><path fill="#b1040e" d="M 32.699219 24.273438 L 38.792969 20.78125 L 32.699219 17.289062 Z M 32.699219 24.273438 " fill-opacity="1" fill-rule="nonzero"/><g clip-path="url(#fc0ae8df73)"><g transform="matrix(1, 0, 0, 1, 26, 4)"><g clip-path="url(#8b46f2cb22)"><g fill="#ffffff" fill-opacity="1"><g transform="translate(0.220433, 24.534743)"><g><path d="M 8.5625 0.21875 C 7.113281 0.21875 5.84375 -0.0703125 4.75 -0.65625 C 3.65625 -1.238281 2.796875 -2.132812 2.171875 -3.34375 C 1.546875 -4.550781 1.234375 -6.050781 1.234375 -7.84375 C 1.234375 -9.644531 1.546875 -11.144531 2.171875 -12.34375 C 2.796875 -13.550781 3.65625 -14.445312 4.75 -15.03125 C 5.84375 -15.625 7.113281 -15.921875 8.5625 -15.921875 C 10 -15.921875 11.265625 -15.628906 12.359375 -15.046875 C 13.453125 -14.460938 14.304688 -13.566406 14.921875 -12.359375 C 15.546875 -11.148438 15.859375 -9.644531 15.859375 -7.84375 C 15.859375 -6.050781 15.546875 -4.550781 14.921875 -3.34375 C 14.304688 -2.132812 13.453125 -1.238281 12.359375 -0.65625 C 11.265625 -0.0703125 10 0.21875 8.5625 0.21875 Z M 8.5625 -2.46875 C 9.882812 -2.46875 10.894531 -2.894531 11.59375 -3.75 C 12.300781 -4.601562 12.65625 -5.96875 12.65625 -7.84375 C 12.65625 -9.71875 12.300781 -11.082031 11.59375 -11.9375 C 10.894531 -12.800781 9.882812 -13.234375 8.5625 -13.234375 C 7.21875 -13.234375 6.191406 -12.800781 5.484375 -11.9375 C 4.785156 -11.082031 4.4375 -9.71875 4.4375 -7.84375 C 4.4375 -5.96875 4.785156 -4.601562 5.484375 -3.75 C 6.191406 -2.894531 7.21875 -2.46875 8.5625 -2.46875 Z M 8.5625 -2.46875 "/></g></g></g></g></g></g></svg>