<svg width="10" height="12" viewBox="0 0 10 12" fill="none" xmlns="http://www.w3.org/2000/svg">
<path d="M9.97045 6.79715C10.0537 7.0164 9.95506 7.26634 9.75012 7.35543L8.63703 7.83974L9.6672 8.50197C9.85933 8.61936 9.9261 8.88113 9.81641 9.08668C9.70669 9.29223 9.46201 9.36368 9.26988 9.24632C9.26472 9.24314 9.25961 9.23986 9.25456 9.23647L8.22447 8.57431L8.34739 9.85358C8.36644 10.0894 8.20319 10.2971 7.98276 10.3175C7.76732 10.3374 7.57599 10.1708 7.55049 9.94107L7.36621 8.02256L5.39768 6.7574V9.21426L6.83981 10.3714C7.0168 10.5134 7.05266 10.7821 6.91991 10.9714C6.78716 11.1608 6.53607 11.1991 6.35907 11.0571L5.39764 10.2857V11.5714C5.39764 11.8081 5.21828 12 4.99705 12C4.77582 12 4.59646 11.8081 4.59646 11.5714V10.2857L3.63503 11.0571C3.45804 11.1991 3.20694 11.1608 3.07419 10.9714C2.94144 10.7821 2.9773 10.5134 3.1543 10.3714L4.59642 9.21426V6.7574L2.62807 8.02286L2.44379 9.94137C2.42474 10.1772 2.23061 10.3518 2.01019 10.3315C1.78976 10.3111 1.62652 10.1034 1.64556 9.86757C1.64595 9.86302 1.64637 9.85843 1.64689 9.85388L1.7698 8.57461L0.739712 9.23677C0.552674 9.36319 0.305242 9.30347 0.187074 9.10336C0.0689056 8.90326 0.124728 8.63855 0.311766 8.51212C0.31679 8.50873 0.321919 8.50544 0.327083 8.50227L1.35724 7.84003L0.244152 7.35573C0.040541 7.26313 -0.0543564 7.01147 0.0322027 6.79364C0.116808 6.5807 0.344143 6.47805 0.545766 6.56174L2.21565 7.28825L4.21938 5.99994L2.21547 4.71179L0.545591 5.43853C0.339329 5.52415 0.107248 5.41464 0.0272135 5.19397C-0.0510071 4.97826 0.0449371 4.73505 0.243978 4.64453L1.35707 4.16023L0.326978 3.49784C0.134845 3.38045 0.0680683 3.11869 0.177759 2.91317C0.287484 2.70762 0.532159 2.63618 0.724257 2.75353C0.72942 2.7567 0.734514 2.75999 0.739573 2.76338L1.76966 3.42554L1.64675 2.14627C1.62418 1.91082 1.78428 1.70034 2.00436 1.67619C2.22444 1.65204 2.42118 1.82333 2.44375 2.05878L2.62803 3.97729L4.59653 5.24264V2.7857L3.1544 1.62856C2.97734 1.48661 2.94137 1.21802 3.07405 1.02859C3.20673 0.83916 3.45779 0.800677 3.63485 0.942627L3.63513 0.942851L4.59656 1.71426V0.428575C4.59653 0.191892 4.77589 0 4.99712 0C5.21835 0 5.39771 0.191892 5.39771 0.428575V1.7143L6.35914 0.942888C6.53613 0.800863 6.78723 0.839234 6.91998 1.02859C7.05273 1.21794 7.01687 1.48658 6.83988 1.6286L5.39775 2.78574V5.24264L7.36621 3.97714L7.55049 2.05863C7.57659 1.82359 7.77587 1.6557 7.99557 1.68362C8.21031 1.71091 8.36602 1.9156 8.34739 2.14609L8.22447 3.42536L9.25456 2.7632C9.4416 2.63677 9.68904 2.69649 9.8072 2.89664C9.92537 3.09674 9.86951 3.36145 9.68248 3.48788C9.67745 3.49127 9.67236 3.49456 9.66716 3.49773L8.63696 4.15997L9.75006 4.64427C9.95367 4.73687 10.0486 4.98853 9.962 5.20636C9.8774 5.4193 9.65006 5.52195 9.44844 5.43826L7.77856 4.71175L5.77483 6.00006L7.77873 7.28821L9.44862 6.5617C9.6532 6.47241 9.88671 6.57749 9.97013 6.79637L9.97045 6.79715Z" fill="url(#paint0_linear_4356_12118)"/>
<defs>
<linearGradient id="paint0_linear_4356_12118" x1="10" y1="6" x2="0" y2="6" gradientUnits="userSpaceOnUse">
<stop stop-color="#2EB97E"/>
<stop offset="1" stop-color="#1AB69D"/>
</linearGradient>
</defs>
</svg>
