<svg width="11" height="12" viewBox="0 0 11 12" fill="none" xmlns="http://www.w3.org/2000/svg">
<path d="M10.6669 6.79715C10.756 7.0164 10.6504 7.26634 10.4312 7.35543L9.24035 7.83974L10.3425 8.50197C10.548 8.61936 10.6195 8.88113 10.5021 9.08668C10.3847 9.29223 10.123 9.36368 9.9174 9.24632C9.91188 9.24314 9.90641 9.23986 9.90102 9.23647L8.79897 8.57431L8.93047 9.85358C8.95085 10.0894 8.7762 10.2971 8.54038 10.3175C8.30989 10.3374 8.1052 10.1708 8.07791 9.94107L7.88076 8.02256L5.77472 6.7574V9.21426L7.31758 10.3714C7.50694 10.5134 7.54531 10.7821 7.40328 10.9714C7.26126 11.1608 6.99262 11.1991 6.80327 11.0571L5.77468 10.2857V11.5714C5.77468 11.8081 5.58279 12 5.34611 12C5.10942 12 4.91753 11.8081 4.91753 11.5714V10.2857L3.88894 11.0571C3.69959 11.1991 3.43095 11.1608 3.28893 10.9714C3.14691 10.7821 3.18528 10.5134 3.37463 10.3714L4.91749 9.21426V6.7574L2.81164 8.02286L2.61449 9.94137C2.59411 10.1772 2.38643 10.3518 2.1506 10.3315C1.91478 10.3111 1.74013 10.1034 1.76051 9.86757C1.76092 9.86302 1.76137 9.85843 1.76193 9.85388L1.89343 8.57461L0.791383 9.23677C0.591279 9.36319 0.326564 9.30347 0.200142 9.10336C0.0737188 8.90326 0.13344 8.63855 0.333544 8.51212C0.338919 8.50873 0.344406 8.50544 0.34993 8.50227L1.45205 7.84003L0.261207 7.35573C0.0433729 7.26313 -0.0581533 7.01147 0.0344521 6.79364C0.124967 6.5807 0.368182 6.47805 0.583889 6.56174L2.37042 7.28825L4.51411 5.99994L2.37023 4.71179L0.583702 5.43853C0.363031 5.52415 0.11474 5.41464 0.0291144 5.19397C-0.0545701 4.97826 0.048076 4.73505 0.26102 4.64453L1.45186 4.16023L0.349818 3.49784C0.144265 3.38045 0.072823 3.11869 0.190175 2.91317C0.307565 2.70762 0.569332 2.63618 0.774848 2.75353C0.780372 2.7567 0.785821 2.75999 0.791234 2.76338L1.89328 3.42554L1.76178 2.14627C1.73763 1.91082 1.90892 1.70034 2.14437 1.67619C2.37982 1.65204 2.5903 1.82333 2.61445 2.05878L2.81161 3.97729L4.91761 5.24264V2.7857L3.37474 1.62856C3.18531 1.48661 3.14683 1.21802 3.28878 1.02859C3.43073 0.83916 3.69933 0.800677 3.88876 0.942627L3.88906 0.942851L4.91764 1.71426V0.428575C4.91761 0.191892 5.1095 0 5.34618 0C5.58286 0 5.77476 0.191892 5.77476 0.428575V1.7143L6.80334 0.942888C6.9927 0.800863 7.26133 0.839234 7.40336 1.02859C7.54538 1.21794 7.50701 1.48658 7.31766 1.6286L5.77479 2.78574V5.24264L7.88076 3.97714L8.07791 2.05863C8.10583 1.82359 8.31904 1.6557 8.55408 1.68362C8.78382 1.71091 8.9504 1.9156 8.93047 2.14609L8.79897 3.42536L9.90102 2.7632C10.1011 2.63677 10.3658 2.69649 10.4923 2.89664C10.6187 3.09674 10.5589 3.36145 10.3588 3.48788C10.3534 3.49127 10.348 3.49456 10.3424 3.49773L9.24027 4.15997L10.4311 4.64427C10.649 4.73687 10.7505 4.98853 10.6579 5.20636C10.5674 5.4193 10.3241 5.52195 10.1084 5.43826L8.32191 4.71175L6.17821 6.00006L8.3221 7.28821L10.1086 6.5617C10.3275 6.47241 10.5773 6.57749 10.6666 6.79637L10.6669 6.79715Z" fill="#543EE8"/>
</svg>
