<svg width="70" height="45" viewBox="0 0 70 45" fill="none" xmlns="http://www.w3.org/2000/svg">
<path d="M48.964 34.6294C47.2363 34.0133 44.4167 33.9716 43.167 33.5046C42.2047 33.2543 41.2961 32.8308 40.4856 32.2549C40.1449 30.8193 39.9974 29.3445 40.0471 27.8699C40.6894 27.2534 41.2101 26.5215 41.5818 25.7124C41.9547 24.324 42.202 22.9048 42.3207 21.4721C42.3207 21.4721 43.338 21.9106 43.7393 19.8694C44.0791 18.1153 44.7259 17.1879 44.5571 15.8921C44.3882 14.5964 43.6625 14.9055 43.6625 14.9055C44.4496 13.0917 44.7576 11.1062 44.5571 9.13918C44.5451 7.87323 44.2728 6.62328 43.7569 5.46713C43.2411 4.31097 42.4929 3.27335 41.5588 2.41883C40.6246 1.56431 39.5247 0.911177 38.3273 0.500082C37.1299 0.0889861 35.8607 -0.0712775 34.5986 0.0292651C33.3364 -0.0713396 32.067 0.0880805 30.8689 0.497666C29.6707 0.907251 28.5693 1.55829 27.6329 2.41052C26.6964 3.26275 25.9447 4.29805 25.4243 5.45239C24.9039 6.60673 24.6258 7.85555 24.6073 9.12164C24.4089 11.0869 24.7105 13.0705 25.4844 14.888C25.4844 14.888 24.7608 14.5788 24.5898 15.8746C24.4188 17.1704 25.0546 18.111 25.4032 19.865C25.8045 21.915 26.8218 21.4677 26.8218 21.4677C26.9417 22.9003 27.189 24.3193 27.5607 25.708C27.9324 26.5171 28.453 27.249 29.0954 27.8655C29.1451 29.3402 28.9976 30.8149 28.6569 32.2505C27.8487 32.8269 26.939 33.2457 25.9755 33.4849C24.7433 33.9629 21.9215 34.0243 20.1785 34.6404C18.0768 35.428 16.2702 36.8464 15.0063 38.701C13.7424 40.5557 13.083 42.7559 13.1186 45H56.0086C56.0508 42.7552 55.396 40.5525 54.1344 38.6952C52.8728 36.8379 51.0664 35.4175 48.964 34.6294Z" fill="#543EE8"/>
<path d="M16.7289 27.1219C18.5401 27.0976 20.3139 26.6035 21.8769 25.688C19.4871 22.066 20.7807 17.841 20.2896 13.8945C20.2654 12.9965 20.0555 12.1133 19.673 11.3006C19.2905 10.4878 18.7438 9.76307 18.0674 9.17208C17.3909 8.58109 16.5993 8.13666 15.7425 7.8668C14.8858 7.59694 13.9824 7.50751 13.0893 7.60415H13.0279C12.1402 7.51981 11.2445 7.61835 10.3963 7.89369C9.54808 8.16903 8.76532 8.61532 8.09632 9.205C7.42733 9.79468 6.88632 10.5152 6.50669 11.3222C6.12706 12.1291 5.91687 13.0053 5.8891 13.8967C5.39579 17.8279 6.76611 22.5308 4.31707 25.6902C5.88492 26.5907 7.67354 27.0342 9.48045 26.9707C9.57403 27.8363 9.52215 28.7115 9.32697 29.56C8.79635 30.002 8.15767 30.2949 7.47649 30.4085C6.12531 30.7009 4.79221 31.0713 3.48391 31.5179C2.43568 32.0658 1.55708 32.8896 0.94306 33.9005C0.329038 34.9114 0.00293833 36.0708 0 37.2536H12.3812C13.5065 35.243 15.231 33.6335 17.3143 32.6493C18.5216 32.1434 19.8139 31.8711 21.1227 31.8468C21.1227 31.8468 21.7081 30.9216 19.7809 30.5664C18.7566 30.3415 17.7629 29.9948 16.821 29.5337C16.5272 29.2048 16.7289 27.1219 16.7289 27.1219Z" fill="#543EE8"/>
<path d="M52.4918 27.1219C50.6806 27.0976 48.9067 26.6035 47.3438 25.688C49.7336 22.066 48.44 17.841 48.9311 13.8945C48.9553 12.9965 49.1652 12.1133 49.5477 11.3006C49.9302 10.4878 50.4769 9.76307 51.1533 9.17208C51.8298 8.58109 52.6214 8.13666 53.4781 7.8668C54.3349 7.59694 55.2383 7.50751 56.1314 7.60415H56.1928C57.0805 7.51981 57.9762 7.61835 58.8244 7.89369C59.6726 8.16903 60.4554 8.61532 61.1244 9.205C61.7934 9.79468 62.3344 10.5152 62.714 11.3222C63.0936 12.1291 63.3038 13.0053 63.3316 13.8967C63.8249 17.8279 62.4546 22.5308 64.9036 25.6902C63.3358 26.5907 61.5472 27.0342 59.7402 26.9707C59.6467 27.8363 59.6985 28.7115 59.8937 29.56C60.4243 30.002 61.063 30.2949 61.7442 30.4085C63.0954 30.7009 64.4285 31.0713 65.7368 31.5179C66.785 32.0658 67.6636 32.8896 68.2776 33.9005C68.8917 34.9114 69.2178 36.0708 69.2207 37.2536H56.8395C55.7142 35.243 53.9897 33.6335 51.9064 32.6493C50.6991 32.1434 49.4068 31.8711 48.098 31.8468C48.098 31.8468 47.5126 30.9216 49.4398 30.5664C50.4641 30.3415 51.4578 29.9948 52.3997 29.5337C52.6935 29.2048 52.4918 27.1219 52.4918 27.1219Z" fill="#543EE8"/>
</svg>
