<svg width="65" height="65" viewBox="0 0 65 65" fill="none" xmlns="http://www.w3.org/2000/svg">
<path d="M15.1483 57.6773C15.6741 57.6773 16.1004 57.251 16.1004 56.7252V56.5194H58.563C59.0889 56.5194 59.5152 56.0931 59.5152 55.5672C59.5152 55.0414 59.0889 54.6151 58.563 54.6151H16.1004V54.4092C16.1004 53.8833 15.6741 53.457 15.1483 53.457C14.6224 53.457 14.1961 53.8833 14.1961 54.4092V54.6151H8.99902C8.47318 54.6151 8.04688 55.0414 8.04688 55.5672C8.04688 56.0931 8.47318 56.5194 8.99902 56.5194H14.1961V56.7252C14.1961 57.251 14.6224 57.6773 15.1483 57.6773Z" fill="#6EC857"/>
<path d="M8.04642 25.4933V48.9904C8.04642 50.1351 8.97774 51.0664 10.1225 51.0664H57.4388C58.5835 51.0664 59.5147 50.1351 59.5147 48.9904V48.9434V47.8251V15.2391C59.5147 14.0944 58.5835 13.1631 57.4388 13.1631H29.3511V7.17582C29.3511 5.02612 27.6023 3.27734 25.4526 3.27734H3.89848C1.74878 3.27734 0 5.02612 0 7.17582V21.5948C0 23.7445 1.74878 25.4933 3.89848 25.4933H8.04642ZM41.6735 49.1621H32.4505V47.8252C32.4505 45.9317 33.102 44.0749 34.2851 42.5969C35.3027 41.3255 36.6799 40.3776 38.2195 39.8727L39.0835 41.8232C39.4478 42.6453 40.2625 43.1377 41.1129 43.1377C41.2563 43.1377 41.4008 43.1235 41.5443 43.0947L42.6956 44.9309L41.6735 49.1621ZM41.2268 41.2098C41.0728 41.2758 40.8924 41.205 40.8246 41.0519L39.7832 38.7012L40.6113 38.3876L43.169 40.3762L41.2268 41.2098ZM47.6557 21.5508C47.6492 21.5508 47.6428 21.5508 47.6365 21.5508C47.1377 21.5508 46.6282 21.6072 46.1218 21.7186C45.3978 21.8779 44.6634 21.8779 43.9391 21.7186C43.4261 21.6058 42.9103 21.5498 42.4051 21.5508C41.2675 21.5541 40.3419 22.4884 40.3419 23.6335V25.6078C40.3419 25.8355 40.1567 26.0209 39.9289 26.0209C39.3404 26.0209 38.877 26.0209 38.4161 26.0209V23.5092C38.4161 21.3532 40.1701 19.5992 42.3262 19.5992H47.7346C49.8905 19.5992 51.6447 21.3532 51.6447 23.5092V26.0209H50.1319C49.9041 26.0209 49.7189 25.8356 49.7189 25.6078V23.6335C49.7189 22.4884 48.7934 21.554 47.6557 21.5508ZM42.2463 25.6078V23.6335C42.2463 23.537 42.3216 23.4554 42.4108 23.4551H42.4246C42.786 23.4551 43.1578 23.4967 43.5302 23.5785C44.5256 23.7974 45.5353 23.7974 46.5309 23.5785C46.9079 23.4956 47.2879 23.4557 47.6502 23.4551C47.7395 23.4554 47.8147 23.5372 47.8147 23.6335V25.6078C47.8147 26.7945 48.7118 27.7743 49.8633 27.9083C49.8426 29.7709 49.9239 30.2932 49.7779 31.1387C49.7759 31.148 49.7745 31.1573 49.7729 31.1667C49.6246 32.0004 49.2649 32.9146 48.4651 33.6033C46.4292 35.3564 43.6518 35.3741 41.5952 33.6033C40.7938 32.9133 40.4362 31.9922 40.29 31.1535C40.2895 31.1505 40.2891 31.1476 40.2884 31.1448C40.146 30.3195 40.2227 29.9 40.1997 27.9082C41.3502 27.7732 42.2463 26.7939 42.2463 25.6078ZM47.4269 37.5459L45.029 39.4101L42.6333 37.5476C42.7838 37.2147 42.8826 36.8601 42.9302 36.4967C44.2743 36.9231 45.6636 36.9621 47.1306 36.4964C47.1782 36.8594 47.2767 37.2133 47.4269 37.5459ZM43.6326 49.1621L44.4648 45.717H45.5899L46.4221 49.1621H43.6326ZM45.8124 43.8127H44.242L43.3405 42.3748L45.0289 41.6502L46.7144 42.3736L45.8124 43.8127ZM49.4466 38.3876L50.2747 38.7012L49.2333 41.0519C49.1655 41.2051 48.9852 41.2761 48.8313 41.2098L46.889 40.3762L49.4466 38.3876ZM57.6104 48.9434C57.6104 49.064 57.5123 49.1621 57.3917 49.1621H48.3812L47.3591 44.9309L48.5106 43.0942C48.6552 43.1235 48.8007 43.1377 48.9453 43.1377C49.7955 43.1377 50.6104 42.6451 50.9745 41.8232L51.8389 39.872C53.3791 40.3765 54.757 41.3244 55.7752 42.596C56.9588 44.0742 57.6106 45.9312 57.6106 47.8252V48.9434H57.6104ZM29.3511 21.5948V15.0674H57.4388C57.5335 15.0674 57.6104 15.1444 57.6104 15.2391V41.8713C57.4982 41.7134 57.3831 41.5574 57.2617 41.4058C55.96 39.78 54.1791 38.5853 52.193 37.9879C52.0284 37.5279 51.6763 37.1955 51.2637 37.0394L49.954 36.5436C49.6662 36.4346 49.3554 36.4176 49.0609 36.4804C48.9708 36.1411 49.0095 35.9202 49.0002 35.5865C49.2435 35.4217 49.4799 35.2424 49.7076 35.0463C50.5279 34.3401 51.1214 33.3941 51.4557 32.2907H52.1092C53.5604 32.2907 54.7409 31.1098 54.7409 29.6582V28.6532C54.7409 27.7335 54.2659 26.9235 53.5491 26.4526V23.5091C53.5491 20.303 50.9408 17.6948 47.7348 17.6948H42.3262C39.1202 17.6948 36.5118 20.303 36.5118 23.5091V26.4526C35.7951 26.9235 35.32 27.7335 35.32 28.6532V29.6582C35.32 31.1098 36.5007 32.2907 37.9517 32.2907H38.6083C38.9417 33.3954 39.5338 34.3415 40.3523 35.0463C40.5803 35.2427 40.8171 35.4223 41.0607 35.5872C41.0514 35.9207 41.0902 36.1416 40.9999 36.4809C40.7046 36.4173 40.3929 36.4341 40.1041 36.5434L38.7943 37.0391C38.3886 37.1927 38.0599 37.5104 37.8925 37.9107C37.8818 37.9362 37.8738 37.9626 37.8645 37.9885C35.8791 38.5864 34.0991 39.7813 32.7981 41.4067C31.3457 43.2211 30.5459 45.5006 30.5459 47.8249V49.1619H10.1225C10.0278 49.1619 9.95071 49.0848 9.95071 48.9901V25.4933H18.0176C18.0346 25.4933 18.0506 25.5009 18.0612 25.5141L22.3013 30.7425C22.7746 31.3261 23.5352 31.5357 24.2364 31.2871C24.941 31.0374 25.3962 30.393 25.3962 29.6454V25.5496C25.3962 25.5185 25.4215 25.4934 25.4525 25.4934C27.6021 25.4933 29.3511 23.7443 29.3511 21.5948ZM51.7674 27.9252C52.0447 27.9271 52.1704 27.9112 52.3198 27.9568C52.6184 28.0477 52.8365 28.3254 52.8365 28.6534V29.6583C52.8365 30.0599 52.5102 30.3865 52.1091 30.3865H51.7631C51.7738 30.0864 51.7637 30.897 51.7674 27.9252ZM38.3023 30.3864H37.9519C37.5507 30.3864 37.2244 30.0598 37.2244 29.6582V28.6532C37.2244 28.3253 37.4424 28.0475 37.7411 27.9567C37.9165 27.9033 38.079 27.9343 38.2954 27.925C38.302 30.8249 38.2911 30.069 38.3023 30.3864ZM1.9043 21.5948V7.17582C1.9043 6.07615 2.79881 5.18164 3.89848 5.18164H25.4526C26.5522 5.18164 27.4468 6.07615 27.4468 7.17582V21.5948C27.4468 22.6944 26.5522 23.589 25.4526 23.589C24.3716 23.589 23.492 24.4685 23.492 25.5495V29.1872L19.5405 24.3145C19.1665 23.8534 18.6115 23.5888 18.0177 23.5888H3.89848C2.79881 23.589 1.9043 22.6943 1.9043 21.5948Z" fill="#6EC857"/>
<path d="M61.3247 7.67969H32.8513C32.3255 7.67969 31.8992 8.106 31.8992 8.63184C31.8992 9.15768 32.3255 9.58398 32.8513 9.58398H61.3247C62.3009 9.58398 63.0951 10.3782 63.0951 11.3543V58.0491C63.0951 59.0252 62.3009 59.8193 61.3247 59.8193H6.2352C5.25906 59.8193 4.46484 59.0252 4.46484 58.0491V28.9946C4.46484 28.4688 4.03854 28.0425 3.5127 28.0425C2.98686 28.0425 2.56055 28.4688 2.56055 28.9946V58.0491C2.56055 60.0753 4.20891 61.7236 6.2352 61.7236H61.3247C63.3509 61.7236 64.9994 60.0753 64.9994 58.0491V11.3543C64.9994 9.32817 63.3509 7.67969 61.3247 7.67969Z" fill="#6EC857"/>
<path d="M5.50539 13.8062L7.94099 14.5361V17.775C7.94099 18.9975 8.93554 19.992 10.158 19.992H19.1946C20.4171 19.992 21.4115 18.9975 21.4115 17.775V14.5361L22.829 14.1113V15.1404C22.829 15.6662 23.2553 16.0925 23.7812 16.0925C24.307 16.0925 24.7333 15.6662 24.7333 15.1404V12.7943C24.7435 12.729 24.7491 12.6624 24.7491 12.5944C24.7491 12.0312 24.3866 11.5443 23.8472 11.3827L15.9435 9.01437C15.1145 8.76604 14.2379 8.76604 13.409 9.01437L5.50552 11.3827C4.96597 11.5443 4.60352 12.0312 4.60352 12.5944C4.60352 13.1577 4.96597 13.6446 5.50539 13.8062ZM19.5072 17.775C19.5072 17.9474 19.367 18.0877 19.1946 18.0877H10.158C9.98557 18.0877 9.84528 17.9474 9.84528 17.775V15.1067L13.409 16.1746C13.8235 16.2988 14.2498 16.3609 14.6761 16.3609C15.1025 16.3609 15.5288 16.2988 15.9435 16.1746L19.5071 15.1067V17.775H19.5072ZM13.9555 10.8386C14.427 10.6973 14.9256 10.6973 15.3969 10.8386L21.2567 12.5944L20.1814 12.9167C20.1786 12.9175 20.1757 12.9183 20.1729 12.9192L15.3971 14.3503C14.9256 14.4916 14.4271 14.4918 13.9556 14.3503L9.17941 12.9192C9.17675 12.9183 9.17395 12.9175 9.17116 12.9168L8.09574 12.5944L13.9555 10.8386Z" fill="#6EC857"/>
</svg>
