<svg width="65" height="65" viewBox="0 0 65 65" fill="none" xmlns="http://www.w3.org/2000/svg">
<g clip-path="url(#clip0_4235_217)">
<path d="M40.5495 11.626C42.8231 11.7341 44.8429 12.0281 46.5529 12.5C46.6375 12.5235 46.7228 12.5345 46.8066 12.5345C47.2243 12.5345 47.6075 12.2575 47.724 11.8355C47.864 11.3286 47.5664 10.8043 47.0595 10.6644C45.2141 10.1549 43.0542 9.83853 40.6399 9.72389C40.1148 9.69723 39.6686 10.1045 39.6437 10.6298C39.6185 11.155 40.0243 11.601 40.5495 11.626Z" fill="#FFA0C9"/>
<path d="M40.5494 15.9619C42.8234 16.0699 44.8431 16.364 46.5529 16.8358C46.6375 16.8593 46.7228 16.8704 46.8066 16.8704C47.2243 16.8704 47.6075 16.5934 47.724 16.1714C47.864 15.6645 47.5664 15.1401 47.0595 15.0002C45.2143 14.4909 43.0543 14.1745 40.64 14.0596C40.1106 14.0353 39.6686 14.4402 39.6437 14.9656C39.6185 15.4908 40.0243 15.9369 40.5494 15.9619Z" fill="#FFA0C9"/>
<path d="M40.5494 20.7353C42.8232 20.8433 44.8431 21.1374 46.5529 21.6093C46.6377 21.6327 46.7228 21.6438 46.8066 21.6438C47.2243 21.6438 47.6076 21.3668 47.724 20.9447C47.864 20.4377 47.5664 19.9134 47.0595 19.7735C45.2143 19.2642 43.0543 18.9478 40.64 18.833C40.1106 18.8091 39.6686 19.2137 39.6437 19.739C39.6185 20.2642 40.0243 20.7103 40.5494 20.7353Z" fill="#FFA0C9"/>
<path d="M60.4058 9.72364C57.9914 9.83828 55.8316 10.1548 53.9862 10.6641C53.4793 10.804 53.1817 11.3283 53.3217 11.8353C53.4383 12.2574 53.8214 12.5343 54.2391 12.5343C54.3229 12.5343 54.4082 12.5231 54.4929 12.4997C56.2028 12.0278 58.2226 11.7338 60.4962 11.6258C61.0215 11.6008 61.4272 11.1548 61.4022 10.6295C61.377 10.1042 60.9309 9.70003 60.4058 9.72364Z" fill="#FFA0C9"/>
<path d="M60.4057 14.0596C57.9913 14.1743 55.8315 14.4907 53.9862 15.0002C53.4793 15.1401 53.1817 15.6644 53.3217 16.1713C53.4383 16.5934 53.8214 16.8703 54.2391 16.8703C54.3229 16.8703 54.4082 16.8591 54.4929 16.8358C56.2027 16.3639 58.2224 16.0699 60.4963 15.9618C61.0215 15.9368 61.4272 15.4908 61.4022 14.9655C61.377 14.4402 60.9352 14.0362 60.4057 14.0596Z" fill="#FFA0C9"/>
<path d="M56.9316 19.1667C55.8769 19.3229 54.8859 19.5281 53.9862 19.7764C53.4793 19.9163 53.1817 20.4406 53.3217 20.9476C53.4383 21.3698 53.8214 21.6467 54.2391 21.6467C54.3229 21.6467 54.4082 21.6355 54.4929 21.6122C55.3182 21.3844 56.2326 21.1955 57.2109 21.0505C57.731 20.9735 58.0903 20.4893 58.0131 19.9691C57.9359 19.4487 57.4514 19.0896 56.9316 19.1667Z" fill="#FFA0C9"/>
<path d="M43.7045 36.5277C43.7011 35.5662 43.011 34.7899 42.1374 34.6195C41.959 34.0612 41.7319 33.5186 41.4592 32.9995C41.9555 32.2398 41.868 31.2074 41.2002 30.5443L39.5861 28.9415C38.8978 28.258 37.8609 28.2165 37.1346 28.7068C36.6148 28.4387 36.072 28.216 35.5136 28.0419C35.3374 27.1708 34.5589 26.4883 33.6014 26.4883C33.599 26.4883 33.5968 26.4883 33.5943 26.4883L31.3267 26.4962C30.3615 26.4995 29.5877 27.1934 29.4182 28.0631C28.8599 28.2415 28.3172 28.4686 27.7983 28.7413C27.0387 28.2452 26.0064 28.3325 25.3431 29.0004L23.7472 30.6074C23.0674 31.2922 23.0147 32.3267 23.507 33.0632C23.2383 33.5837 23.0151 34.1274 22.8408 34.6868C21.9706 34.8626 21.2837 35.6424 21.2871 36.6061L21.295 38.8738C21.2982 39.8377 21.9903 40.6121 22.862 40.7822C23.0401 41.34 23.267 41.882 23.5393 42.4005C23.0461 43.1467 23.1163 44.1793 23.7947 44.8528L25.3993 46.4462C26.066 47.1083 27.1012 47.1905 27.8597 46.6922C28.3811 46.9616 28.9258 47.1852 29.4859 47.3599C29.6617 48.2293 30.439 48.9135 31.3981 48.9135H31.4052L33.673 48.9057C34.6347 48.9022 35.4122 48.211 35.5822 47.3383C36.1397 47.1602 36.6816 46.9333 37.2002 46.661C37.9385 47.1472 38.9732 47.0895 39.6543 46.4035L41.2544 44.7921C41.9283 44.1134 41.9909 43.0805 41.4929 42.3379C41.7614 41.8175 41.9845 41.2739 42.1587 40.7149C43.029 40.5388 43.7156 39.7596 43.7124 38.7956L43.7045 36.5277ZM41.746 38.8491C41.1289 38.8563 40.5843 39.2767 40.4216 39.8714C40.2458 40.5147 39.991 41.1358 39.6645 41.7171C39.3656 42.2488 39.452 42.9243 39.8708 43.3563C39.895 43.3817 39.9391 43.4142 39.903 43.4504L38.3029 45.0619C38.2873 45.0773 38.2594 45.0835 38.2393 45.0642L38.2102 45.0356C37.7715 44.6166 37.0955 44.5352 36.5662 44.8373C35.9869 45.168 35.3677 45.4271 34.726 45.6074C34.1321 45.774 33.7155 46.3217 33.7128 46.9435C33.7058 46.9562 33.7285 47.0011 33.6664 47.0014L31.3986 47.0092C31.3986 47.0092 31.3984 47.0092 31.3983 47.0092C31.3398 47.0092 31.3526 46.952 31.3504 46.8954C31.3276 46.2949 30.9173 45.7834 30.3296 45.6228C29.6867 45.4472 29.0659 45.1924 28.4843 44.8659C27.5543 44.3437 26.8327 45.0902 26.82 45.0962C26.7976 45.1169 26.763 45.1165 26.7414 45.095L25.1365 43.5017C25.1205 43.4857 25.1162 43.4608 25.1436 43.4336L25.1653 43.4114C25.5841 42.9729 25.6656 42.2969 25.3635 41.7671C25.0326 41.1875 24.7735 40.5681 24.5932 39.9263C24.429 39.3406 23.9153 38.9341 23.3151 38.9148C23.2563 38.9129 23.1997 38.9265 23.1997 38.8675L23.1918 36.5996C23.1918 36.5369 23.2407 36.5596 23.2534 36.5529C23.8709 36.5458 24.4156 36.1253 24.5783 35.5303C24.7541 34.8871 25.0088 34.2663 25.3353 33.6851C25.6341 33.1533 25.5478 32.4774 25.1244 32.0407C25.1168 32.0279 25.0562 31.9927 25.0989 31.9494L26.6948 30.3423C26.7134 30.3235 26.7437 30.3228 26.7632 30.3405C26.7654 30.3427 26.7676 30.3449 26.7697 30.3469C27.2118 30.7811 27.9006 30.8679 28.4458 30.5579C29.0212 30.2304 29.6364 29.9735 30.2743 29.7945C30.868 29.6278 31.2846 29.0802 31.2872 28.4586L31.287 28.4361C31.2865 28.4219 31.3052 28.4008 31.3336 28.4007L33.6013 28.3928H33.6016C33.6605 28.3928 33.6469 28.4491 33.6496 28.508C33.6729 29.108 34.0829 29.6188 34.6698 29.779C35.3132 29.9547 35.9343 30.2095 36.516 30.5363C37.0473 30.8348 37.7231 30.7486 38.1602 30.3253C38.177 30.3179 38.2055 30.254 38.2445 30.2929L39.8586 31.8957C39.9042 31.9408 39.8422 31.9776 39.835 31.9903C39.4155 32.4289 39.334 33.1052 39.6364 33.6351C39.9671 34.2144 40.2262 34.8337 40.4064 35.4755C40.5708 36.0613 41.0843 36.4679 41.6851 36.4872C41.7438 36.489 41.8002 36.4758 41.8002 36.5347L41.8081 38.8024C41.8081 38.8653 41.7587 38.8425 41.746 38.8491Z" fill="#FFA0C9"/>
<path d="M28.3755 33.577C26.1014 35.8512 26.1014 39.5516 28.3755 41.826C30.6497 44.1002 34.3503 44.1004 36.6247 41.826C38.8988 39.5516 38.8988 35.8512 36.6247 33.577C34.3451 31.2974 30.6552 31.2971 28.3755 33.577ZM35.2779 40.4794C33.7465 42.0111 31.2539 42.0113 29.7221 40.4794C28.1904 38.9476 28.1904 36.4552 29.7221 34.9234C31.2575 33.3881 33.7424 33.3879 35.2779 34.9234C36.8096 36.4552 36.8096 38.9476 35.2779 40.4794Z" fill="#FFA0C9"/>
<path d="M62.1216 26.3371C63.7088 26.3272 65 25.0266 65 23.4377V6.755C65 5.61318 64.0722 4.6703 62.9319 4.65316C59.0687 4.59374 53.9864 5.07972 50.6416 6.98795C50.5809 7.02261 50.5026 7.02096 50.4371 6.98364C47.0851 5.0749 42.0073 4.5959 38.1554 4.65316C37.0146 4.67042 36.0864 5.61331 36.0864 6.75512V22.0239H11.0966C10.075 22.0239 9.24397 22.8549 9.24397 23.8764V51.4735H6.83186V22.1422C6.83186 20.7469 7.96694 19.6118 9.36241 19.6118H32.5872C33.1132 19.6118 33.5394 19.1855 33.5394 18.6596C33.5394 18.1338 33.1132 17.7075 32.5872 17.7075H9.36241C6.91704 17.7075 4.92756 19.6968 4.92756 22.1422V51.4735H2.71527C1.21812 51.4732 0 52.6913 0 54.1885C0 57.5874 2.76517 60.3526 6.16408 60.3526H58.836C62.2348 60.3526 65.0001 57.5874 65.0001 54.1885C65.0001 52.6913 63.782 51.4733 62.2849 51.4733H60.0724V29.9087C60.0724 29.3829 59.6463 28.9566 59.1203 28.9566C58.5943 28.9566 58.1681 29.3829 58.1681 29.9087V51.4733H55.756V26.9567C58.132 26.458 60.5677 26.3467 62.1216 26.3371ZM37.9907 6.755C37.9907 6.64747 38.0776 6.55873 38.1839 6.55707C40.4263 6.52432 46.0185 6.65876 49.4948 8.63834C49.5264 8.65637 49.5587 8.67275 49.5911 8.689V26.3318C46.3017 24.7949 41.7966 24.384 38.1891 24.4359C38.188 24.4359 38.187 24.4359 38.1861 24.4359C38.0796 24.4359 37.9909 24.3489 37.9909 24.238V6.755H37.9907ZM11.1483 23.9281H36.0864V24.2381C36.0864 25.402 37.0336 26.356 38.2158 26.3401C40.2846 26.3116 45.4726 26.4284 48.9718 28.1453C49.9509 28.6257 51.1333 28.6271 52.1148 28.1453C52.659 27.8782 53.2444 27.6507 53.8517 27.4555V51.4735H11.1483V23.9281ZM39.5492 53.3775C39.1718 54.3046 38.2621 54.9607 37.2011 54.9607H27.7991C26.7379 54.9607 25.8282 54.3048 25.4509 53.3775H39.5492ZM62.2847 53.3775C62.7319 53.3775 63.0957 53.7412 63.0957 54.1884C63.0957 56.5373 61.1848 58.4481 58.8359 58.4481H6.16408C3.8152 58.4483 1.9043 56.5373 1.9043 54.1885C1.9043 53.7414 2.26802 53.3776 2.71527 53.3776H23.4634C23.9004 55.3694 25.6779 56.8652 27.7991 56.8652H37.2011C39.3222 56.8652 41.0997 55.3695 41.5368 53.3776C45.8126 53.3775 57.6288 53.3775 62.2847 53.3775ZM51.4954 26.3318V8.68925C51.5256 8.67389 51.5558 8.65866 51.5854 8.64177C55.0613 6.65876 60.6562 6.52305 62.9032 6.55707C63.0094 6.55873 63.0957 6.64734 63.0957 6.75487V23.4375C63.0957 23.9736 62.6443 24.4294 62.1099 24.4327C58.7205 24.4538 54.5525 24.9055 51.4954 26.3318Z" fill="#FFA0C9"/>
</g>
<defs>
<clipPath id="clip0_4235_217">
<rect width="65" height="65" rx="5" fill="white"/>
</clipPath>
</defs>
</svg>
