<svg width="65" height="65" viewBox="0 0 65 65" fill="none" xmlns="http://www.w3.org/2000/svg">
<path d="M11.5184 18.1348C10.6839 17.2309 9.49917 16.6953 8.21009 16.6953C7.68412 16.6953 7.25781 17.1216 7.25781 17.6476C7.25781 18.1736 7.68412 18.5999 8.21009 18.5999C9.27929 18.5999 10.2242 19.2378 10.624 20.2271C10.9289 21.0588 12.1087 21.057 12.4125 20.2274C12.8125 19.2379 13.7576 18.5999 14.8268 18.5999C15.3527 18.5999 15.779 18.1736 15.779 17.6476C15.779 17.1216 15.3527 16.6953 14.8268 16.6953C13.5378 16.6953 12.3529 17.2311 11.5184 18.1348Z" fill="#4260FF"/>
<path d="M24.1318 11.6506C23.2972 10.7467 22.1123 10.2111 20.8234 10.2111C20.2974 10.2111 19.8711 10.6374 19.8711 11.1633C19.8711 11.6893 20.2974 12.1156 20.8234 12.1156C21.8931 12.1156 22.8385 12.7542 23.238 13.7442C23.5445 14.5757 24.7222 14.5718 25.0265 13.7416C25.4267 12.7529 26.3713 12.1155 27.4402 12.1155C27.9661 12.1155 28.3924 11.6892 28.3924 11.1632C28.3924 10.6372 27.9661 10.2109 27.4402 10.2109C26.1511 10.2111 24.9662 10.7467 24.1318 11.6506Z" fill="#4260FF"/>
<path d="M64.0353 16.6568C63.0942 15.7157 61.6971 15.4603 60.5074 15.9106V13.9781C60.5074 13.4522 60.0811 13.0259 59.5551 13.0259C59.0291 13.0259 58.6028 13.4522 58.6028 13.9781V17.2774L46.8601 27.2856C45.2799 27.0645 43.6474 26.9511 41.9994 26.9511C36.1806 26.9511 32.6596 27.9177 29.5515 29.2609C23.3702 26.9791 13.716 24.34 1.90442 24.2038V7.06045C1.90442 5.68644 3.02237 4.56849 4.39639 4.56849H56.111C57.485 4.56849 58.603 5.68644 58.603 7.06045V9.52943C58.603 10.0554 59.0293 10.4817 59.5552 10.4817C60.0812 10.4817 60.5075 10.0554 60.5075 9.52943V7.06045C60.5075 4.63615 58.5353 2.66406 56.1111 2.66406H4.39639C1.97222 2.66406 0 4.63628 0 7.06045V41.0473C0 43.4716 1.97222 45.4437 4.39639 45.4437H16.2237L15.4945 47.5542C15.3227 48.0512 15.5865 48.5934 16.0836 48.7652C16.1865 48.8007 16.2914 48.8176 16.3945 48.8176C16.7893 48.8176 17.1583 48.5703 17.2946 48.1761L18.2386 45.4437H21.7017L16.9048 59.3268C16.6098 60.1809 15.679 60.6353 14.8236 60.3391C13.9692 60.0441 13.5156 59.1129 13.8112 58.2579L15.8392 52.3883C16.0109 51.8913 15.7471 51.3491 15.2501 51.1773C14.7536 51.0057 14.211 51.2693 14.0391 51.7664L12.0112 57.6359C11.3721 59.4854 12.3517 61.5001 14.2015 62.1391C16.0591 62.7818 18.0699 61.7871 18.705 59.9486L20.9263 53.5198H39.5812L41.8024 59.9486C42.4403 61.7945 44.4562 62.7789 46.3056 62.1392C48.1548 61.5004 49.1357 59.486 48.4962 57.6359L44.2837 45.4437H56.111C58.5353 45.4437 60.5074 43.4715 60.5074 41.0473V25.5001L64.214 21.1511C65.3274 19.8449 65.249 17.8708 64.0353 16.6568ZM1.90442 26.1084C12.352 26.2315 21.0676 28.3575 27.1011 30.4125C21.7605 33.0684 16.6403 36.0459 1.90442 36.726V26.1084ZM4.39639 43.5393C3.02237 43.5393 1.90442 42.4213 1.90442 41.0473V38.6324C28.2643 37.4369 25.3537 28.8556 41.9995 28.8556C42.9692 28.8556 43.9324 28.8979 44.8814 28.979C41.1331 32.3109 39.8727 35.6913 39.1959 36.7861C36.3705 36.8655 34.1812 38.2305 33.7905 41.043C33.6506 42.0552 33.5675 42.3877 32.7548 42.6419C32.314 42.7799 31.7168 42.8275 31.0733 42.7755C30.5421 42.732 30.0323 43.0258 29.8139 43.5393H4.39639ZM47.7302 36.9523C45.8057 38.4619 44.3478 39.058 42.9198 39.8637C42.9131 39.8672 42.9051 39.8663 42.8999 39.8608L40.8313 37.7922C40.826 37.7869 40.8247 37.779 40.8283 37.7724C41.6305 36.3507 42.2291 34.8878 43.7398 32.9619L47.7302 36.9523ZM35.4335 42.4978C36.0335 42.2959 36.4449 42.3881 36.6436 43.6128C36.8354 44.7959 37.3675 45.8051 38.4126 46.3821C36.4548 47.1171 34.0021 46.7842 32.2342 44.6703C32.591 44.6369 32.9634 44.5722 33.3239 44.4594C34.6367 44.0486 35.176 43.2795 35.4335 42.4978ZM21.5843 51.6154L23.7167 45.4437H30.42C32.3982 48.0815 35.0977 49.0276 37.8507 48.5115L38.9231 51.6154H21.5843ZM38.5234 43.308C38.1965 41.2912 37.0708 40.5052 35.8517 40.5129C36.3448 39.2396 37.8756 38.7542 39.1539 38.6956C39.39 39.1282 39.5295 39.1486 41.5532 41.2075C41.688 41.3422 41.8384 41.4529 41.9988 41.54C41.9415 42.8077 41.4697 43.933 40.59 44.895C39.3539 45.0561 38.7145 44.4857 38.5234 43.308ZM46.6962 58.258C46.9916 59.1125 46.5392 60.0437 45.6836 60.3392C44.8292 60.6348 43.8979 60.1816 43.6026 59.3268L39.6618 47.9212C40.6927 47.429 41.6152 46.6965 42.3698 45.7361L46.6962 58.258ZM58.603 41.0473C58.603 42.4213 57.485 43.5393 56.111 43.5393H43.5536C43.7665 42.8893 43.8849 42.2058 43.9056 41.4962C44.9678 40.8326 48.5952 39.477 52.0129 35.4667L55.1799 31.7509C56.3757 32.3322 57.5226 32.9993 58.6028 33.7402V41.0473H58.603ZM58.603 31.4672C57.9067 31.0352 57.1891 30.6308 56.4529 30.2573L58.603 27.7346V31.4672ZM62.7646 19.9157L50.5635 34.2313C50.1236 34.7474 49.6594 35.2373 49.1731 35.702L44.99 31.5189C45.4547 31.0328 45.9445 30.5684 46.4605 30.1286L60.7761 17.9275C61.3318 17.454 62.172 17.487 62.6884 18.0037C63.2049 18.52 63.2384 19.3599 62.7646 19.9157Z" fill="#4260FF"/>
<path d="M40.5742 14.7197C40.5742 17.4384 42.7861 19.6501 45.5048 19.6501C48.2235 19.6501 50.4353 17.4384 50.4353 14.7197C50.4353 12.001 48.2235 9.78906 45.5048 9.78906C42.7861 9.78906 40.5742 12.001 40.5742 14.7197ZM48.5308 14.7197C48.5308 16.3882 47.1734 17.7456 45.5048 17.7456C43.8362 17.7456 42.4788 16.3882 42.4788 14.7197C42.4788 13.051 43.8362 11.6936 45.5048 11.6936C47.1734 11.6936 48.5308 13.051 48.5308 14.7197Z" fill="#4260FF"/>
</svg>
