<svg width="40" height="40" viewBox="0 0 40 40" fill="none" xmlns="http://www.w3.org/2000/svg">
<g clip-path="url(#clip0_4399_2059)">
<path d="M35.4665 25.297C35.2155 25.0927 34.8463 25.1307 34.6421 25.3818C34.438 25.6329 34.4759 26.002 34.727 26.2062C37.3228 28.3173 38.8116 31.4466 38.8116 34.7916V36.9393C38.8116 37.9807 37.9653 38.828 36.925 38.828H33.7182V33.9544C33.7182 33.6307 33.4559 33.3684 33.1322 33.3684C32.8085 33.3684 32.5462 33.6307 32.5462 33.9544V38.828H26.0348L24.2383 30.206L25.4251 28.8367C25.5262 28.8573 25.6285 28.8676 25.7305 28.8676C26.2298 28.8676 26.7213 28.6246 27.0116 28.1815L29.5516 24.3045C29.6328 24.1804 29.6969 24.0489 29.7448 23.9133L29.8527 23.9341C30.7806 24.1128 31.6809 24.4089 32.5284 24.8141C32.61 24.8531 32.6961 24.8716 32.7808 24.8716C32.9995 24.8716 33.2092 24.7487 33.3098 24.5382C33.4495 24.2462 33.3259 23.8963 33.034 23.7567C32.0963 23.3084 31.1005 22.9808 30.0743 22.7833L29.7526 22.7213C29.6798 22.5056 29.567 22.3016 29.4124 22.123C28.5182 21.0901 27.4385 20.5445 26.854 20.305V19.2722C27.1509 19.0741 27.4398 18.8542 27.7204 18.6124C28.8631 17.6276 29.6067 16.2103 29.8734 14.5443H30.6195C31.6236 14.5443 32.4405 13.7269 32.4405 12.7223V10.8199C32.4405 10.0259 31.93 9.34922 31.2203 9.10024V6.4979C31.2203 4.44063 30.1158 2.51774 28.3377 1.47969C27.7548 1.13938 27.0683 0.987038 26.384 1.04134C24.0376 -0.302805 21.1413 -0.390696 18.6414 1.04126C17.9574 0.987117 17.2712 1.13962 16.6885 1.47977C14.9105 2.51774 13.8059 4.44063 13.8059 6.4979V9.09711C13.0914 9.34344 12.5765 10.0224 12.5765 10.8199V12.7223C12.5765 13.727 13.3934 14.5443 14.3974 14.5443H15.1543C15.4144 16.2227 16.1462 17.614 17.3047 18.6124C17.5824 18.8518 17.8685 19.0695 18.1623 19.266V20.305C17.5778 20.5445 16.498 21.0901 15.6038 22.123C15.4487 22.3022 15.3356 22.5069 15.2629 22.7234L14.9522 22.7833C13.9834 22.9698 13.0407 23.2744 12.1468 23.6866H2.78813C1.97148 23.6866 1.30711 24.3509 1.30711 25.1676V25.7651C0.574609 25.8934 0.015625 26.5326 0.015625 27.3013C0.015625 28.0701 0.574609 28.7093 1.30711 28.8377V30.0951C0.574609 30.2234 0.015625 30.8626 0.015625 31.6313C0.015625 32.4001 0.574609 33.0393 1.30711 33.1677V34.4251C0.574609 34.5534 0.015625 35.1927 0.015625 35.9613C0.015625 36.7301 0.574609 37.3693 1.30711 37.4977V38.5191C1.30711 39.3357 1.97148 40.0001 2.78813 40.0001H36.9251C38.6116 40.0001 39.9836 38.627 39.9836 36.9394V34.7916C39.9836 31.0923 38.3372 27.6316 35.4665 25.297ZM23.338 29.4555H21.6889L20.6674 28.277L22.5083 27.1297L24.3558 28.2812L23.338 29.4555ZM26.1045 21.9144C26.2021 22.1661 26.132 22.4555 25.9299 22.6344L22.5083 25.6642L19.0866 22.6344C18.8846 22.4555 18.8145 22.1661 18.912 21.9143C19.2298 21.0224 19.3344 20.9331 19.3344 20.715V19.9166C21.2757 20.7909 23.5533 20.8762 25.6821 19.9207V20.7152C25.6822 20.9336 25.7901 21.0317 26.1045 21.9144ZM27.2943 21.8442C27.6904 22.0923 28.1313 22.4338 28.5265 22.8902C28.7111 23.1034 28.7295 23.4209 28.5713 23.6623L26.0314 27.5392C25.9339 27.6883 25.7469 27.7377 25.5901 27.6645C25.4617 27.5733 26.1871 28.0316 23.4898 26.3605L26.7068 23.5119C27.1813 23.0916 27.3968 22.4548 27.2943 21.8442ZM31.2687 10.82V12.7223C31.2687 13.0808 30.9776 13.3724 30.6197 13.3724H29.9801C29.9805 13.3586 29.9816 13.3451 29.9819 13.3313C29.9823 13.3151 29.9819 13.299 29.9809 13.283V10.17H30.6197C30.9775 10.1698 31.2687 10.4615 31.2687 10.82ZM30.0485 6.4979V8.9979H29.7187C29.1568 8.9979 28.6995 8.54016 28.6991 7.97751L28.6972 5.37063C28.6972 5.36657 28.6972 5.36251 28.697 5.35852C28.675 4.32985 28.3849 3.38782 27.8317 2.54251C29.2016 3.38219 30.0485 4.88852 30.0485 6.4979ZM14.3976 13.3723C14.0398 13.3723 13.7486 13.0807 13.7486 12.7223V10.8199C13.7486 10.4615 14.0397 10.1698 14.3976 10.1698H15.0477L15.0499 13.319C15.0499 13.3231 15.0499 13.3271 15.0501 13.3311C15.0504 13.345 15.0515 13.3584 15.0518 13.3723H14.3976V13.3723ZM15.3079 8.9979H14.978V6.4979C14.978 4.88852 15.8249 3.38219 17.1948 2.54251C16.6416 3.38782 16.3516 4.32985 16.3295 5.35852C16.3295 5.36258 16.3294 5.36665 16.3294 5.37063L16.3275 7.97751C16.3271 8.54016 15.8697 8.9979 15.3079 8.9979ZM18.07 17.7246C16.8066 16.6358 16.373 15.137 16.2565 13.9041C16.2562 13.9008 16.2559 13.8976 16.2555 13.8943C16.2367 13.6921 16.226 13.4968 16.222 13.312L16.2195 9.97024C16.9734 9.62352 17.4989 8.86141 17.4995 7.97844L17.5014 5.37782C17.5298 4.12938 18.0739 3.03407 19.1171 2.12055C21.2366 0.856648 23.7966 0.859617 25.9116 2.12243C26.9534 3.03555 27.4968 4.13024 27.5252 5.37782L27.5271 7.97844C27.5277 8.86211 28.0541 9.62477 28.809 9.9711V13.3186C28.809 13.3261 28.8091 13.3335 28.8094 13.3409C28.8049 13.5164 28.7945 13.701 28.7766 13.892C28.776 13.8966 28.7756 13.9013 28.7752 13.9061C28.6579 15.1364 28.2225 16.6327 26.9555 17.7247C24.3206 19.9956 20.7146 20.004 18.07 17.7246ZM16.4902 22.8902C16.8827 22.4367 17.3243 22.0957 17.7219 21.847C17.6205 22.4566 17.8361 23.0923 18.3098 23.5118L21.5268 26.3604L19.4655 27.6452C19.3019 27.747 19.0909 27.7006 18.9852 27.5391L16.4453 23.6623C16.2871 23.4209 16.3056 23.1034 16.4902 22.8902ZM1.18758 27.3013C1.18758 27.0866 1.36219 26.912 1.5768 26.912H2.24109C2.4557 26.912 2.63031 27.0866 2.63031 27.3013C2.63031 27.5159 2.4557 27.6905 2.24109 27.6905H1.5768C1.36219 27.6905 1.18758 27.5159 1.18758 27.3013ZM1.18758 31.6313C1.18758 31.4166 1.36219 31.242 1.5768 31.242H2.24109C2.4557 31.242 2.63031 31.4166 2.63031 31.6313C2.63031 31.8459 2.4557 32.0205 2.24109 32.0205H1.5768C1.36219 32.0205 1.18758 31.8459 1.18758 31.6313ZM1.5768 36.3505C1.36219 36.3505 1.18758 36.1759 1.18758 35.9613C1.18758 35.7466 1.36219 35.572 1.5768 35.572H2.24109C2.4557 35.572 2.63031 35.7466 2.63031 35.9613C2.63031 36.1759 2.4557 36.3505 2.24109 36.3505C2.23078 36.3505 1.56531 36.3505 1.5768 36.3505ZM4.54219 38.828H2.78813C2.61773 38.828 2.47914 38.6894 2.47914 38.5191V37.5025C3.22711 37.3873 3.80234 36.7412 3.80234 35.9613C3.80234 35.1816 3.22711 34.5355 2.47914 34.4202V33.1725C3.22711 33.0573 3.80234 32.4111 3.80234 31.6313C3.80234 30.8516 3.22711 30.2055 2.47914 30.0902V28.8425C3.22711 28.7273 3.80234 28.0811 3.80234 27.3013C3.80234 26.5216 3.22711 25.8755 2.47914 25.7602V25.1676C2.47914 24.9972 2.61781 24.8586 2.78813 24.8586H4.54227L4.54219 38.828ZM13.193 38.519C13.193 38.6894 13.0544 38.828 12.8841 38.828H5.71422V24.8584H12.2723C12.273 24.8584 12.2737 24.8586 12.2745 24.8586C12.2754 24.8586 12.2763 24.8584 12.2773 24.8584H12.8841C13.0545 24.8584 13.193 24.9971 13.193 25.1674V38.519ZM20.1926 38.8115L20.6934 36.4077C20.7595 36.0909 20.5562 35.7805 20.2393 35.7145C19.9225 35.6489 19.6121 35.8518 19.5461 36.1686L18.992 38.828H14.332C14.3533 38.7283 14.365 38.6251 14.365 38.5191V25.1675C14.365 24.8083 14.2362 24.4787 14.0227 24.222C14.4009 24.106 14.785 24.009 15.1741 23.934L15.2725 23.915C15.3203 24.05 15.3841 24.1809 15.465 24.3044L18.0048 28.1813C18.2953 28.6245 18.7866 28.8674 19.2859 28.8674C19.3909 28.8674 19.4962 28.8565 19.6 28.8346L20.7885 30.2058L20.105 33.4859C20.039 33.8028 20.2423 34.1131 20.5591 34.1792C20.876 34.2451 21.1863 34.042 21.2523 33.7251L21.8978 30.6273H23.1291L24.8343 38.8112H20.1926V38.8115Z" fill="#6EC857"/>
<path d="M10.9798 28.5078H7.54109C7.2175 28.5078 6.95508 28.7702 6.95508 29.0938C6.95508 29.4175 7.21742 29.6798 7.54109 29.6798H10.9798C11.3034 29.6798 11.5658 29.4175 11.5658 29.0938C11.5658 28.7702 11.3034 28.5078 10.9798 28.5078Z" fill="#6EC857"/>
<path d="M10.9798 30.8203H7.54109C7.2175 30.8203 6.95508 31.0827 6.95508 31.4063C6.95508 31.73 7.21742 31.9923 7.54109 31.9923H10.9798C11.3034 31.9923 11.5658 31.73 11.5658 31.4063C11.5658 31.0827 11.3034 30.8203 10.9798 30.8203Z" fill="#6EC857"/>
</g>
<defs>
<clipPath id="clip0_4399_2059">
<rect width="40" height="40" fill="white"/>
</clipPath>
</defs>
</svg>
