<svg width="65" height="61" viewBox="0 0 65 61" fill="none" xmlns="http://www.w3.org/2000/svg">
<path d="M7.40281 15.2431C7.92839 15.2431 8.35445 14.8171 8.35445 14.2915C8.35445 13.7659 7.92839 13.3398 7.40281 13.3398C6.87724 13.3398 6.45117 13.7659 6.45117 14.2915C6.45117 14.8171 6.87724 15.2431 7.40281 15.2431Z" fill="#FFB876"/>
<path d="M11.6372 15.2431C12.1628 15.2431 12.5888 14.8171 12.5888 14.2915C12.5888 13.7659 12.1628 13.3398 11.6372 13.3398C11.1116 13.3398 10.6855 13.7659 10.6855 14.2915C10.6855 14.8171 11.1116 15.2431 11.6372 15.2431Z" fill="#FFB876"/>
<path d="M15.8735 15.2431C16.3991 15.2431 16.8252 14.8171 16.8252 14.2915C16.8252 13.7659 16.3991 13.3398 15.8735 13.3398C15.3479 13.3398 14.9219 13.7659 14.9219 14.2915C14.9219 14.8171 15.3479 15.2431 15.8735 15.2431Z" fill="#FFB876"/>
<path d="M15.5364 38.685L18.8883 30.2573C19.0827 29.7687 18.844 29.215 18.3555 29.0207C17.8666 28.8266 17.3132 29.065 17.1188 29.5535L13.7669 37.9812C13.5725 38.4698 13.8112 39.0234 14.2997 39.2178C14.7883 39.4119 15.3419 39.1738 15.5364 38.685Z" fill="#FFB876"/>
<path d="M22.3871 38.751C22.8455 39.0166 23.4266 38.856 23.6882 38.4044L25.9391 34.5185C26.1132 34.2181 26.1099 33.8469 25.9306 33.5496L23.6797 29.8162C23.4082 29.3659 22.8231 29.2207 22.3727 29.4924C21.9224 29.764 21.7775 30.3491 22.049 30.7994L24.0093 34.0509L22.0405 37.45C21.777 37.9049 21.9321 38.4873 22.3871 38.751Z" fill="#FFB876"/>
<path d="M10.2806 29.4924C9.83002 29.2207 9.24502 29.366 8.9736 29.8161L6.72272 33.5496C6.54346 33.8469 6.54016 34.2181 6.71421 34.5185L8.96509 38.4044C9.22827 38.8589 9.8106 39.015 10.2662 38.751C10.7212 38.4874 10.8765 37.9048 10.6128 37.4498L8.64403 34.051L10.6044 30.7995C10.8759 30.3491 10.731 29.764 10.2806 29.4924Z" fill="#FFB876"/>
<path d="M53.0895 30.1172H31.9443C31.4185 30.1172 30.9922 30.5435 30.9922 31.0693C30.9922 31.5952 31.4185 32.0215 31.9443 32.0215H53.0895C53.6155 32.0215 54.0417 31.5952 54.0417 31.0693C54.0417 30.5435 53.6154 30.1172 53.0895 30.1172Z" fill="#FFB876"/>
<path d="M53.0895 37.0391H31.9443C31.4185 37.0391 30.9922 37.4654 30.9922 37.9912C30.9922 38.5171 31.4185 38.9434 31.9443 38.9434H53.0895C53.6155 38.9434 54.0417 38.5171 54.0417 37.9912C54.0417 37.4654 53.6154 37.0391 53.0895 37.0391Z" fill="#FFB876"/>
<path d="M53.0889 43.9609H8.77832C8.25248 43.9609 7.82617 44.3872 7.82617 44.9131C7.82617 45.4389 8.25248 45.8652 8.77832 45.8652H53.0888C53.6147 45.8652 54.0409 45.4389 54.0409 44.9131C54.0409 44.3872 53.6147 43.9609 53.0889 43.9609Z" fill="#FFB876"/>
<path d="M53.0889 50.8828H8.77832C8.25248 50.8828 7.82617 51.3091 7.82617 51.835C7.82617 52.3608 8.25248 52.7871 8.77832 52.7871H53.0888C53.6147 52.7871 54.0409 52.3608 54.0409 51.835C54.0409 51.3091 53.6147 50.8828 53.0889 50.8828Z" fill="#FFB876"/>
<path d="M65 13.9454C65 6.35281 58.823 0.175781 51.2303 0.175781C43.6377 0.175781 37.4607 6.35281 37.4607 13.9454C37.4607 15.4 37.6882 16.8025 38.1082 18.1197H1.9043V12.298C1.9043 11.2879 2.72606 10.4661 3.73623 10.4661H34.6662C35.1922 10.4661 35.6183 10.0398 35.6183 9.51395C35.6183 8.98811 35.1922 8.5618 34.6662 8.5618H3.73623C1.67604 8.5618 0 10.238 0 12.298V57.0891C0 59.1493 1.67604 60.8254 3.73623 60.8254H56.6356C58.6958 60.8254 60.3718 59.1493 60.3718 57.0891V28.4904C60.3718 27.9646 59.9456 27.5382 59.4197 27.5382C58.8937 27.5382 58.4675 27.9646 58.4675 28.4904V57.0891C58.4675 58.0993 57.6457 58.9211 56.6356 58.9211H3.73623C2.72606 58.9211 1.9043 58.0993 1.9043 57.0891V20.024H38.8775C41.1267 24.5763 45.8185 27.7151 51.2303 27.7151C58.823 27.7151 65 21.5379 65 13.9454ZM51.2303 25.8108C44.6878 25.8108 39.365 20.488 39.365 13.9455C39.365 7.40297 44.6878 2.0802 51.2303 2.0802C57.7728 2.0802 63.0957 7.40284 63.0957 13.9454C63.0957 20.4879 57.7728 25.8108 51.2303 25.8108Z" fill="#FFB876"/>
<path d="M60.909 12.178C60.909 11.7276 60.6228 11.3269 60.1968 11.181L52.3871 8.50436C51.641 8.24855 50.8187 8.24855 50.0727 8.50436L42.2627 11.181C41.317 11.5054 41.3151 12.85 42.2629 13.175L44.3938 13.9053V17.3341C44.3938 18.6577 45.4705 19.7345 46.7941 19.7345H55.6655C56.9891 19.7345 58.0659 18.6577 58.0659 17.3341V13.9052L59.0047 13.5835V14.808C59.0047 15.3338 59.4309 15.7601 59.9569 15.7601C60.4829 15.7601 60.909 15.3338 60.909 14.808C60.909 14.244 60.909 13.1997 60.909 12.178ZM56.1618 17.3341C56.1618 17.6077 55.9392 17.8302 55.6656 17.8302H46.7943C46.5208 17.8302 46.2983 17.6077 46.2983 17.3341V14.5579L50.0727 15.8515C50.8187 16.1073 51.6407 16.1073 52.3871 15.8515L56.1616 14.5579V17.3341H56.1618ZM51.7697 14.0502C51.4216 14.1694 51.0382 14.1694 50.6901 14.0502L45.2275 12.178L50.6901 10.3057C51.0382 10.1865 51.4216 10.1865 51.7697 10.3057L57.2322 12.178L51.7697 14.0502Z" fill="#FFB876"/>
</svg>
