<svg width="40" height="40" viewBox="0 0 40 40" fill="none" xmlns="http://www.w3.org/2000/svg">
<path d="M38.654 26.6202H37.8898V26.4554C37.8898 25.3201 36.9661 24.3964 35.8307 24.3964H35.7117L37.933 18.1416C37.9665 18.1433 38.0002 18.1441 38.0341 18.1441C39.111 18.1441 39.9872 17.268 39.9872 16.1911C39.9872 15.1141 39.111 14.238 38.0341 14.238C37.667 14.238 37.3234 14.3399 37.0297 14.5168L33.8427 11.627C34.8341 11.0237 35.1832 9.73578 34.6164 8.71078L34.3127 8.1618C33.7311 7.10984 32.402 6.72727 31.3502 7.30891L29.8978 8.11203C28.6543 7.36742 27.091 7.22359 25.6671 7.83977C25.155 8.06133 24.9414 8.6775 25.213 9.16828L28.7835 15.6254C29.0543 16.1149 29.6889 16.2637 30.1501 15.947C31.3266 15.1389 32.022 13.8891 32.1496 12.5659L32.7609 12.2279L36.252 15.3934C36.1425 15.6372 36.081 15.907 36.081 16.1911C36.081 16.8163 36.3767 17.3734 36.8352 17.7312L34.4682 24.3964H32.29C31.1546 24.3964 30.2309 25.3201 30.2309 26.4554V26.6202H21.2861C21.3057 26.5247 21.316 26.4259 21.316 26.3246C21.316 24.8798 20.1405 23.7043 18.6956 23.7043H18.1166L17.9103 22.1209H27.9766C29.3537 22.1209 30.4742 21.0005 30.4742 19.6233V18.117C30.4742 17.7934 30.2119 17.5311 29.8883 17.5311H1.18695V2.49758C1.18695 1.76656 1.78164 1.17188 2.51258 1.17188H27.9767C28.7077 1.17188 29.3024 1.76656 29.3024 2.49758V5.98555C29.3024 6.30922 29.5648 6.57148 29.8884 6.57148C30.212 6.57148 30.4743 6.30922 30.4743 5.98555V2.49758C30.4743 1.12039 29.3538 0 27.9767 0H2.51258C1.13547 0 0.0150781 1.12039 0.0150781 2.49758V19.6234C0.0150781 21.0005 1.13547 22.1209 2.51258 22.1209H12.0311L11.8248 23.7044H11.2458C9.80086 23.7044 8.62539 24.8798 8.62539 26.3247C8.62539 26.4259 8.6357 26.5248 8.65531 26.6203H1.32555C0.594609 26.6203 0 27.2149 0 27.9459V29.6169C0 30.3477 0.594609 30.9424 1.32555 30.9424H2.68398V38.8199C2.68398 39.4707 3.21344 40.0001 3.86422 40.0001H5.20883C5.85961 40.0001 6.38898 39.4707 6.38898 38.8199V30.9423H33.6055V38.8198C33.6055 39.4706 34.1349 40 34.7856 40H36.1302C36.781 40 37.3105 39.4706 37.3105 38.8198V30.9423H38.6538C39.3848 30.9423 39.9794 30.3477 39.9794 29.6168V27.9458C39.9795 27.2149 39.3848 26.6202 38.654 26.6202ZM38.034 15.4098C38.4648 15.4098 38.8152 15.7602 38.8152 16.191C38.8152 16.6218 38.4648 16.9722 38.034 16.9722C37.6134 16.9722 37.2527 16.6299 37.2527 16.191C37.2527 15.76 37.6059 15.4098 38.034 15.4098ZM29.6851 14.8342L26.3623 8.82508C27.9736 8.25656 29.7364 8.94195 30.5582 10.4281C31.3859 11.9248 31.0136 13.7793 29.6851 14.8342ZM33.1965 10.6478L32.0892 11.2601C31.9987 10.782 31.832 10.31 31.5837 9.86109C31.3874 9.50609 31.1512 9.18711 30.8849 8.90523L31.9172 8.33438C32.4037 8.06539 33.0182 8.24234 33.2872 8.72883L33.5909 9.27781C33.8598 9.76422 33.6829 10.3789 33.1965 10.6478ZM31.4027 26.4554C31.4027 25.9662 31.8007 25.5683 32.2899 25.5683H35.8307C36.3199 25.5683 36.7179 25.9662 36.7179 26.4554V26.6202H31.4027V26.4554ZM2.51258 20.9489C1.78164 20.9489 1.18695 20.3543 1.18695 19.6233V18.703H29.3024V19.6233C29.3024 20.3542 28.7077 20.9489 27.9767 20.9489H2.51258ZM16.9348 23.7043H13.0066L13.2129 22.1209H16.7287L16.9348 23.7043ZM11.2459 24.8762H12.339C12.3394 24.8762 12.3398 24.8762 12.3402 24.8762C12.3407 24.8762 12.3413 24.8762 12.3418 24.8762H18.6956C19.4943 24.8762 20.1441 25.5259 20.1441 26.3246C20.1441 26.4877 20.0116 26.6202 19.8485 26.6202H10.093C9.93 26.6202 9.79734 26.4877 9.79734 26.3246C9.79734 25.5259 10.4471 24.8762 11.2459 24.8762ZM5.21719 38.8198C5.21719 38.8245 5.21344 38.8281 5.20891 38.8281H3.86422C3.85961 38.8281 3.85586 38.8244 3.85586 38.8198V30.9423H5.21719V38.8198ZM36.1387 38.8198C36.1387 38.8245 36.135 38.8281 36.1304 38.8281H34.7857C34.7811 38.8281 34.7774 38.8244 34.7774 38.8198V30.9423H36.1387V38.8198ZM38.8077 29.6168C38.8077 29.7016 38.7388 29.7705 38.654 29.7705H1.32555C1.24078 29.7705 1.17188 29.7016 1.17188 29.6168V27.9458C1.17188 27.861 1.24078 27.7921 1.32555 27.7921H38.654C38.7388 27.7921 38.8077 27.861 38.8077 27.9458V29.6168Z" fill="#543EE8"/>
</svg>
