<svg width="38" height="40" viewBox="0 0 38 40" fill="none" xmlns="http://www.w3.org/2000/svg">
<path d="M16.0812 37.6953C16.4048 37.6953 16.6671 37.433 16.6671 37.1094C16.6671 36.7857 16.4048 36.5234 16.0812 36.5234H14.1543C13.8307 36.5234 13.5684 36.7857 13.5684 37.1094C13.5684 37.433 13.8307 37.6953 14.1543 37.6953H16.0812Z" fill="#FFA0C9"/>
<path d="M6.59642 6.07668C6.89648 6.02803 7.1003 5.74535 7.05165 5.44529C7.00301 5.14522 6.72033 4.94141 6.42027 4.99005C6.1202 5.03869 5.91639 5.32137 5.96503 5.62144C6.01367 5.9215 6.29635 6.12532 6.59642 6.07668Z" fill="#FFA0C9"/>
<path d="M9.04563 6.07668C9.3457 6.02803 9.54951 5.74535 9.50087 5.44529C9.45223 5.14522 9.16955 4.94141 8.86948 4.99005C8.56942 5.03869 8.3656 5.32137 8.41425 5.62144C8.46289 5.9215 8.74557 6.12532 9.04563 6.07668Z" fill="#FFA0C9"/>
<path d="M11.4949 6.07668C11.7949 6.02803 11.9987 5.74535 11.9501 5.44529C11.9014 5.14522 11.6188 4.94141 11.3187 4.99005C11.0186 5.03869 10.8148 5.32137 10.8635 5.62144C10.9121 5.9215 11.1948 6.12532 11.4949 6.07668Z" fill="#FFA0C9"/>
<path d="M28.9337 29.8624C28.6101 29.8624 28.3477 30.1247 28.3477 30.4484V36.9141C28.3477 37.9695 27.4891 38.8281 26.4338 38.8281H3.80266C2.74727 38.8281 1.88867 37.9695 1.88867 36.9141V3.08586C1.88867 2.03047 2.74727 1.17188 3.80266 1.17188H26.4338C27.4892 1.17188 28.3478 2.03047 28.3478 3.08586V12.378C28.3478 12.7017 28.6102 12.964 28.9338 12.964C29.2573 12.964 29.5197 12.7017 29.5197 12.378V3.08586C29.5196 1.3843 28.1354 0 26.4338 0H3.80266C2.10109 0 0.716797 1.3843 0.716797 3.08586V36.9141C0.716797 38.6157 2.10109 40 3.80266 40H26.4338C28.1354 40 29.5197 38.6157 29.5197 36.9141V30.4484C29.5196 30.1248 29.2573 29.8624 28.9337 29.8624Z" fill="#FFA0C9"/>
<path d="M37.2784 25.2343L36.8863 21.5938C36.8241 21.0168 36.3493 20.5795 35.7737 20.5588V17.3157C35.7737 17.0403 35.5519 16.7561 35.2678 16.6587L26.8638 13.7783C26.8638 11.3957 26.8638 5.72508 26.8638 3.86516C26.8638 3.19859 26.3216 2.65625 25.6549 2.65625H4.58195C3.9143 2.65625 3.37305 3.19953 3.37305 3.86516V34.0261C3.37305 34.6927 3.91531 35.235 4.58195 35.235H25.655C26.3216 35.235 26.8639 34.6927 26.8639 34.0261V28.5056H29.2213C30.3295 28.5056 31.2309 27.6041 31.2309 26.496V19.4584L34.6019 18.3031V20.5588C34.0263 20.5795 33.5515 21.0168 33.4893 21.5938L33.0971 25.2342C33.0234 25.9182 33.5591 26.52 34.2518 26.52H36.1237C36.8127 26.52 37.3524 25.9216 37.2784 25.2343ZM4.54492 3.86516C4.54492 3.84477 4.56156 3.82813 4.58195 3.82813H25.655C25.6754 3.82813 25.692 3.84477 25.692 3.86516V7.23641H4.54492V3.86516ZM25.692 34.026C25.692 34.0464 25.6754 34.0631 25.6549 34.0631H4.58195C4.56156 34.0631 4.54492 34.0464 4.54492 34.026V8.40828H25.692V13.3766L22.7889 12.3816C21.7921 12.04 20.6942 12.04 19.6974 12.3816L7.21828 16.6587C6.91578 16.7624 6.71258 17.047 6.71258 17.3666C6.71258 17.6864 6.91578 17.9709 7.21844 18.0748L11.2554 19.4584V26.4959C11.2554 27.6041 12.157 28.5056 13.265 28.5056H25.6919V34.026H25.692ZM30.059 26.496C30.059 26.9579 29.6831 27.3338 29.2213 27.3338H13.2651C12.8031 27.3338 12.4273 26.9579 12.4273 26.496V19.8601L19.6974 22.3517C20.6984 22.6948 21.796 22.6921 22.789 22.3517L30.0591 19.86V26.496H30.059ZM22.409 21.2432C21.6572 21.5009 20.8291 21.5009 20.0773 21.2432L8.7668 17.3667L20.0773 13.4902C20.8291 13.2327 21.6572 13.2327 22.409 13.4902L33.7195 17.3667L22.409 21.2432ZM34.2635 25.3481L34.6534 21.7288H35.7221L36.112 25.3481H34.2635Z" fill="#FFA0C9"/>
</svg>
