<svg width="40" height="40" viewBox="0 0 40 40" fill="none" xmlns="http://www.w3.org/2000/svg">
<path d="M38.6592 24.4832H37.9023V24.2444C37.9023 23.1089 36.9786 22.1851 35.8431 22.1851H35.7241L37.9456 15.9293C37.9791 15.931 38.0129 15.9319 38.0468 15.9319C39.1238 15.9319 40.0001 15.0556 40.0001 13.9786C40.0001 12.9016 39.1238 12.0253 38.0468 12.0253C37.6797 12.0253 37.3359 12.1273 37.0423 12.3041L33.8548 9.41391C34.3234 9.12906 34.6632 8.68555 34.8159 8.15539C34.977 7.59578 34.9105 7.00695 34.6287 6.49727L34.3249 5.94805C33.7431 4.89602 32.4138 4.51352 31.362 5.09523L29.9094 5.89852C28.6657 5.15375 27.1022 5.01 25.678 5.62625C25.1664 5.84766 24.9523 6.46352 25.224 6.95469L28.7951 13.4128C29.0659 13.9023 29.7006 14.0512 30.1616 13.7344C31.3384 12.9262 32.0338 11.6762 32.1613 10.3528L32.7728 10.0147L36.2645 13.1808C36.1549 13.4245 36.0934 13.6945 36.0934 13.9785C36.0934 14.6038 36.3891 15.1611 36.8477 15.5188L34.4805 22.1851H32.3018C31.1663 22.1851 30.2426 23.1089 30.2426 24.2444V24.4832H27.4355V22.4538C27.4355 21.8363 27.0184 21.2969 26.4213 21.1423C26.326 21.1176 26.2203 21.0913 26.106 21.0641C25.1926 18.3016 22.8857 16.2651 20.008 15.7113C19.209 15.557 19.0278 15.5366 18.7694 15.3766C18.7674 15.3754 18.7652 15.3747 18.7633 15.3735C17.9808 14.8848 18.1479 14.0409 18.1263 13.933C18.2749 13.8257 18.4207 13.7106 18.5627 13.5858C19.407 12.8437 19.9503 11.7916 20.0977 10.6398C20.7445 10.5215 21.2353 9.94875 21.2324 9.26516L21.2287 7.54609C21.228 7.40266 21.2046 7.26125 21.1612 7.12594C21.2073 6.98781 21.2324 6.84117 21.2324 6.69016V3.65859C21.2324 2.76555 20.5059 2.02711 19.613 2.01258C19.5901 2.01219 19.5719 1.99398 19.5715 1.97102C19.5574 1.06727 18.8105 0.332031 17.9066 0.332031H13.1198C10.8804 0.332031 9.05844 2.15398 9.05844 4.39344V6.69016C9.05844 6.75641 9.06383 6.8218 9.07305 6.88602C8.84703 7.18406 8.72195 7.54906 8.72227 7.93172L8.72305 8.97078C8.72367 9.84156 9.37031 10.564 10.2085 10.6838C10.3659 11.8335 10.9178 12.8802 11.7677 13.6148C11.8973 13.7267 12.0297 13.831 12.1645 13.9286C12.1427 14.0383 12.3112 14.8845 11.5273 15.3737C11.5255 15.3748 11.5234 15.3755 11.5216 15.3766C11.051 15.6677 10.4141 15.5862 9.21281 15.9945C8.90648 16.0987 8.7425 16.4315 8.84664 16.7379C8.95078 17.0443 9.28367 17.2084 9.59 17.1041C10.4623 16.8077 11.2464 16.7703 11.7419 16.573C13.7917 18.213 16.5028 18.2099 18.5487 16.573C18.807 16.6759 18.9802 16.7063 19.7859 16.862C22.017 17.2913 23.8465 18.7639 24.7484 20.7966C23.8152 20.6487 22.6666 20.5391 21.4342 20.5867C18.9322 20.6835 16.8317 21.3874 15.1802 22.6781C13.5286 21.3875 11.428 20.6836 8.92609 20.5867C7.66094 20.5378 6.48406 20.6545 5.53797 20.8084C5.95805 19.8612 6.58766 19.0209 7.39211 18.3442C7.63969 18.1359 7.67156 17.7663 7.4632 17.5187C7.25492 17.2709 6.88531 17.2393 6.63766 17.4475C5.48875 18.4142 4.64406 19.6656 4.17852 21.0825C4.09328 21.1032 4.01297 21.1233 3.93922 21.1424C3.34203 21.297 2.925 21.8364 2.925 22.454V24.4834H1.32563C0.594688 24.4832 0 25.0779 0 25.8088V27.4801C0 28.211 0.594688 28.8058 1.32563 28.8058H2.68438V38.402C2.68438 39.1018 3.25367 39.6711 3.95344 39.6711H36.0465C36.7463 39.6711 37.3155 39.1018 37.3155 38.402V32.7554C37.3155 32.4317 37.0533 32.1695 36.7296 32.1695C36.4059 32.1695 36.1437 32.4317 36.1437 32.7554V38.402C36.1437 38.4556 36.1 38.4991 36.0465 38.4991H34.782V28.8057H36.1438V30.015C36.1438 30.3387 36.406 30.6009 36.7297 30.6009C37.0534 30.6009 37.3156 30.3387 37.3156 30.015V28.8057H38.6592C39.3902 28.8057 39.9849 28.211 39.9849 27.48V25.8088C39.9849 25.0779 39.3902 24.4832 38.6592 24.4832ZM38.0467 13.1972C38.4776 13.1972 38.8281 13.5477 38.8281 13.9786C38.8281 14.4095 38.4776 14.76 38.0467 14.76C37.6159 14.76 37.2653 14.4095 37.2653 13.9786C37.2653 13.5477 37.6159 13.1972 38.0467 13.1972ZM31.0059 10.0491C30.9655 11.0311 30.5089 11.9767 29.6966 12.6217L26.3733 6.61156C27.4486 6.23211 28.6032 6.40992 29.4966 7.02688C29.5246 7.05109 29.5545 7.07242 29.5861 7.09063C29.9794 7.38109 30.318 7.75891 30.57 8.21477C30.8704 8.75805 31.0119 9.34641 31.0087 9.9261C31.0035 9.96672 31.0024 10.0079 31.0059 10.0491ZM33.6896 7.83125C33.6152 8.09 33.4443 8.30438 33.2087 8.43469L32.1011 9.04711C32.0105 8.56898 31.8438 8.0968 31.5955 7.64781C31.3992 7.29274 31.163 6.97367 30.8966 6.69172L31.9291 6.12078C32.4153 5.85172 33.0303 6.02852 33.2993 6.51523L33.603 7.06438C33.7334 7.30008 33.7641 7.57242 33.6896 7.83125ZM10.2303 4.39336C10.2303 2.8 11.5266 1.50383 13.1198 1.50383H17.9066C18.1744 1.50383 18.3955 1.72156 18.3998 1.9893C18.4101 2.64867 18.9347 3.17359 19.5939 3.1843C19.8512 3.18852 20.0606 3.40125 20.0606 3.65859V6.69023C20.0606 6.77813 20.0048 6.85664 19.9217 6.88555C19.7116 6.95914 19.4779 6.86375 19.3784 6.66414C19.1399 6.18586 18.6082 5.94 18.0849 6.06648C17.2517 6.26758 15.6163 6.33914 14.0214 4.55633C13.0213 3.43875 11.1323 4.06047 11.0584 5.57609C11.0541 5.66414 11.0566 5.59055 11.0577 7.12531L10.3693 6.88563C10.2863 6.85672 10.2305 6.7782 10.2305 6.69023V4.39336H10.2303ZM12.7415 15.8557C13.0513 15.4907 13.2509 15.0438 13.3143 14.5612C14.506 15.0304 15.7939 15.0285 16.977 14.565C17.041 15.0461 17.2402 15.4917 17.5492 15.8557C16.0755 16.8755 14.2327 16.8877 12.7415 15.8557ZM17.789 12.7055C16.2161 14.0881 14.0887 14.0715 12.534 12.728C11.7984 12.0923 11.3616 11.1345 11.3352 10.1002C11.3272 9.78258 11.0673 9.52914 10.7495 9.52914C10.7494 9.52914 10.7493 9.52914 10.7491 9.52914L10.455 9.5293C10.4549 9.5293 10.4548 9.5293 10.4547 9.5293C10.1462 9.5293 9.89508 9.27836 9.89484 8.96977L9.89406 7.95688C9.98719 7.9968 9.95148 7.9793 10.8398 8.29016C11.5137 8.52492 12.2308 8.0257 12.2296 7.30094C12.228 5.58164 12.2269 5.67227 12.2288 5.63305C12.2512 5.17406 12.8388 4.99203 13.1478 5.33742C13.8698 6.14453 15.2697 7.34664 17.202 7.34648C17.5634 7.34648 17.9435 7.30445 18.3412 7.20984C18.6692 7.84266 19.3725 8.17727 20.0578 8.05586L20.0605 9.26883C20.0609 9.39047 19.9668 9.48984 19.8505 9.49031L19.5491 9.49164C19.2304 9.49305 18.9712 9.74891 18.9658 10.0676C18.9482 11.1023 18.5192 12.0637 17.789 12.7055ZM31.4144 24.2445C31.4144 23.7551 31.8125 23.357 32.3017 23.357H35.843C36.3323 23.357 36.7303 23.7552 36.7303 24.2445V24.4833H31.4143V24.2445H31.4144ZM15.7662 23.7088C19.3116 20.8128 24.5753 21.8748 26.1275 22.2767C26.2076 22.2975 26.2636 22.3702 26.2636 22.4538V24.4833H15.7662V23.7088ZM4.09695 22.4538C4.09695 22.3703 4.15289 22.2975 4.23312 22.2767C5.785 21.8747 11.0487 20.8123 14.5944 23.708V24.4832H4.09695V22.4538ZM5.21797 38.4992H3.95344C3.89984 38.4992 3.85625 38.4556 3.85625 38.402V28.8057H5.21797V38.4992ZM33.6102 38.4992H6.38984V28.8057H33.6102V38.4992ZM38.813 27.4801C38.813 27.5649 38.7441 27.6339 38.6592 27.6339H1.32563C1.24086 27.6339 1.17188 27.5649 1.17188 27.4801V25.8088C1.17188 25.7241 1.24086 25.6551 1.32563 25.6551H38.6592C38.7441 25.6551 38.813 25.7241 38.813 25.8088V27.4801Z" fill="#FFA0C9"/>
</svg>
