<svg width="41" height="40" viewBox="0 0 41 40" fill="none" xmlns="http://www.w3.org/2000/svg">
<path d="M27.1685 0H4.02591C1.80602 0 0 1.8061 0 4.02599V35.9741C0 38.194 1.80602 40 4.02591 40H27.1685C29.3884 40 31.1944 38.1939 31.1944 35.9741V4.02599C31.1945 1.8061 29.3884 0 27.1685 0ZM30.0196 35.974C30.0196 37.5461 28.7406 38.825 27.1686 38.825H4.02591C2.45385 38.825 1.17488 37.5461 1.17488 35.974V4.02599C1.17488 2.45393 2.45385 1.17495 4.02591 1.17495H27.1685C28.7405 1.17495 30.0195 2.45393 30.0195 4.02599V35.974H30.0196Z" fill="#FFA0C9"/>
<path d="M26.4937 4.10938H4.70297C3.87703 4.10938 3.20508 4.78133 3.20508 5.60734V12.8137C3.20508 13.6397 3.87703 14.3116 4.70297 14.3116H26.4937C27.3197 14.3116 27.9916 13.6397 27.9916 12.8137V5.60734C27.9916 4.78133 27.3197 4.10938 26.4937 4.10938ZM26.8167 12.8137C26.8167 12.9918 26.6718 13.1367 26.4937 13.1367H4.70297C4.52486 13.1367 4.37995 12.9918 4.37995 12.8137V5.60734C4.37995 5.42923 4.52486 5.28425 4.70297 5.28425H26.4937C26.6718 5.28425 26.8167 5.42923 26.8167 5.60734V12.8137Z" fill="#FFA0C9"/>
<path d="M6.86834 16.8398H4.59159C3.82706 16.8398 3.20508 17.4618 3.20508 18.2264V20.5031C3.20508 21.2676 3.82706 21.8896 4.59159 21.8896H6.86834C7.63287 21.8896 8.25493 21.2676 8.25493 20.5031V18.2264C8.25493 17.4619 7.63287 16.8398 6.86834 16.8398ZM7.08006 20.5032C7.08006 20.6199 6.98513 20.7148 6.86834 20.7148H4.59159C4.47488 20.7148 4.37995 20.6199 4.37995 20.5032V18.2264C4.37995 18.1097 4.47488 18.0148 4.59159 18.0148H6.86834C6.98505 18.0148 7.08006 18.1097 7.08006 18.2264V20.5032Z" fill="#FFA0C9"/>
<path d="M13.4465 16.8398H11.1697C10.4052 16.8398 9.7832 17.4618 9.7832 18.2264V20.5031C9.7832 21.2676 10.4052 21.8896 11.1697 21.8896H13.4465C14.2111 21.8896 14.8331 21.2676 14.8331 20.5031V18.2264C14.8331 17.4619 14.2112 16.8398 13.4465 16.8398ZM13.6583 20.5032C13.6583 20.6199 13.5633 20.7148 13.4466 20.7148H11.1698C11.0531 20.7148 10.9582 20.6199 10.9582 20.5032V18.2264C10.9582 18.1097 11.0531 18.0148 11.1698 18.0148H13.4466C13.5633 18.0148 13.6583 18.1097 13.6583 18.2264V20.5032Z" fill="#FFA0C9"/>
<path d="M17.7479 21.8896H20.0247C20.7892 21.8896 21.4112 21.2676 21.4112 20.5031V18.2264C21.4112 17.4618 20.7892 16.8398 20.0247 16.8398H17.7479C16.9834 16.8398 16.3613 17.4618 16.3613 18.2264V20.5031C16.3613 21.2676 16.9833 21.8896 17.7479 21.8896ZM17.5362 18.2263C17.5362 18.1096 17.6311 18.0146 17.7479 18.0146H20.0247C20.1414 18.0146 20.2363 18.1096 20.2363 18.2263V20.503C20.2363 20.6197 20.1414 20.7147 20.0247 20.7147H17.7479C17.6312 20.7147 17.5362 20.6197 17.5362 20.503V18.2263Z" fill="#FFA0C9"/>
<path d="M26.6047 16.8398H24.328C23.5634 16.8398 22.9414 17.4618 22.9414 18.2264V20.5031C22.9414 21.2676 23.5634 21.8896 24.328 21.8896H26.6047C27.3693 21.8896 27.9913 21.2676 27.9913 20.5031V18.2264C27.9913 17.4619 27.3693 16.8398 26.6047 16.8398ZM26.8164 20.5032C26.8164 20.6199 26.7215 20.7148 26.6047 20.7148H24.328C24.2113 20.7148 24.1163 20.6199 24.1163 20.5032V18.2264C24.1163 18.1097 24.2113 18.0148 24.328 18.0148H26.6047C26.7215 18.0148 26.8164 18.1097 26.8164 18.2264V20.5032Z" fill="#FFA0C9"/>
<path d="M6.86834 23.8438H4.59159C3.82706 23.8438 3.20508 24.4657 3.20508 25.2303V27.507C3.20508 28.2715 3.82706 28.8935 4.59159 28.8935H6.86834C7.63287 28.8935 8.25493 28.2715 8.25493 27.507V25.2303C8.25493 24.4657 7.63287 23.8438 6.86834 23.8438ZM7.08006 27.507C7.08006 27.6237 6.98513 27.7187 6.86834 27.7187H4.59159C4.47488 27.7187 4.37995 27.6237 4.37995 27.507V25.2303C4.37995 25.1136 4.47488 25.0186 4.59159 25.0186H6.86834C6.98505 25.0186 7.08006 25.1136 7.08006 25.2303V27.507Z" fill="#FFA0C9"/>
<path d="M13.4465 23.8438H11.1697C10.4052 23.8438 9.7832 24.4657 9.7832 25.2303V27.507C9.7832 28.2715 10.4052 28.8935 11.1697 28.8935H13.4465C14.2111 28.8935 14.8331 28.2715 14.8331 27.507V25.2303C14.8331 24.4657 14.2112 23.8438 13.4465 23.8438ZM13.6583 27.507C13.6583 27.6237 13.5633 27.7187 13.4466 27.7187H11.1698C11.0531 27.7187 10.9582 27.6237 10.9582 27.507V25.2303C10.9582 25.1136 11.0531 25.0186 11.1698 25.0186H13.4466C13.5633 25.0186 13.6583 25.1136 13.6583 25.2303V27.507Z" fill="#FFA0C9"/>
<path d="M16.3613 27.507C16.3613 28.2715 16.9833 28.8935 17.7479 28.8935H20.0247C20.7892 28.8935 21.4112 28.2715 21.4112 27.507V25.2303C21.4112 24.4657 20.7892 23.8438 20.0247 23.8438H17.7479C16.9834 23.8438 16.3613 24.4657 16.3613 25.2303V27.507ZM17.5362 25.2303C17.5362 25.1136 17.6311 25.0186 17.7479 25.0186H20.0247C20.1414 25.0186 20.2363 25.1136 20.2363 25.2303V27.507C20.2363 27.6237 20.1414 27.7187 20.0247 27.7187H17.7479C17.6312 27.7187 17.5362 27.6237 17.5362 27.507V25.2303Z" fill="#FFA0C9"/>
<path d="M26.6047 23.8438H24.328C23.5634 23.8438 22.9414 24.4657 22.9414 25.2303V27.507C22.9414 28.2715 23.5634 28.8935 24.328 28.8935H26.6047C27.3693 28.8935 27.9913 28.2715 27.9913 27.507V25.2303C27.9913 24.4657 27.3693 23.8438 26.6047 23.8438ZM26.8164 27.507C26.8164 27.6237 26.7215 27.7187 26.6047 27.7187H24.328C24.2113 27.7187 24.1163 27.6237 24.1163 27.507V25.2303C24.1163 25.1136 24.2113 25.0186 24.328 25.0186H26.6047C26.7215 25.0186 26.8164 25.1136 26.8164 25.2303V27.507Z" fill="#FFA0C9"/>
<path d="M6.86834 30.8438H4.59159C3.82706 30.8438 3.20508 31.4657 3.20508 32.2303V34.507C3.20508 35.2716 3.82706 35.8936 4.59159 35.8936H6.86834C7.63287 35.8936 8.25493 35.2716 8.25493 34.507V32.2303C8.25493 31.4657 7.63287 30.8438 6.86834 30.8438ZM7.08006 34.507C7.08006 34.6237 6.98513 34.7187 6.86834 34.7187H4.59159C4.47488 34.7187 4.37995 34.6237 4.37995 34.507V32.2303C4.37995 32.1136 4.47488 32.0186 4.59159 32.0186H6.86834C6.98505 32.0186 7.08006 32.1136 7.08006 32.2303V34.507Z" fill="#FFA0C9"/>
<path d="M13.4465 30.8438H11.1697C10.4052 30.8438 9.7832 31.4657 9.7832 32.2303V34.507C9.7832 35.2716 10.4052 35.8936 11.1697 35.8936H13.4465C14.2111 35.8936 14.8331 35.2716 14.8331 34.507V32.2303C14.8331 31.4657 14.2112 30.8438 13.4465 30.8438ZM13.6583 34.507C13.6583 34.6237 13.5633 34.7187 13.4466 34.7187H11.1698C11.0531 34.7187 10.9582 34.6237 10.9582 34.507V32.2303C10.9582 32.1136 11.0531 32.0186 11.1698 32.0186H13.4466C13.5633 32.0186 13.6583 32.1136 13.6583 32.2303V34.507Z" fill="#FFA0C9"/>
<path d="M26.6036 30.8438H17.7479C16.9834 30.8438 16.3613 31.4657 16.3613 32.2303V34.507C16.3613 35.2715 16.9833 35.8935 17.7479 35.8935H20.6927C21.0172 35.8935 21.2801 35.6306 21.2801 35.3061C21.2801 34.9816 21.0172 34.7187 20.6927 34.7187H17.7479C17.6312 34.7187 17.5362 34.6237 17.5362 34.507V32.2303C17.5362 32.1136 17.6311 32.0186 17.7479 32.0186H26.6036C26.7203 32.0186 26.8152 32.1136 26.8152 32.2303V34.507C26.8152 34.6237 26.7203 34.7187 26.6036 34.7187H23.4327C23.1082 34.7187 22.8452 34.9816 22.8452 35.3061C22.8452 35.6306 23.1082 35.8935 23.4327 35.8935H26.6036C27.3681 35.8935 27.9901 35.2715 27.9901 34.507V32.2303C27.9901 31.4657 27.3681 30.8438 26.6036 30.8438Z" fill="#FFA0C9"/>
<path d="M37.0712 0C35.3993 0 34.0391 1.36012 34.0391 3.03204V33.5354C34.0391 33.7455 34.0534 33.9679 34.0816 34.1968V34.197V34.1976C34.24 35.469 34.68 35.9755 36.1328 39.3898C36.2998 39.7661 36.6593 39.9999 37.071 39.9999C37.4829 39.9999 37.8424 39.7661 38.0094 39.3898C39.5043 35.8763 39.9 35.486 40.0605 34.1976C40.0605 34.1974 40.0605 34.1972 40.0605 34.197C40.0605 34.197 40.0605 34.1969 40.0605 34.1968C40.0887 33.9679 40.1031 33.7454 40.1031 33.5354C40.1031 31.9686 40.1031 4.37485 40.1031 3.03204C40.1032 1.36019 38.7431 0 37.0712 0ZM37.0712 38.6077L36.3227 36.9208H37.8197L37.0712 38.6077ZM38.341 35.7459H35.8014C35.623 35.3292 35.4997 35.1117 35.3835 34.7124H38.7588C38.6422 35.1128 38.5182 35.3318 38.341 35.7459ZM38.9283 33.5354V33.5376H37.6587V15.7149C37.6587 15.3904 37.3958 15.1275 37.0713 15.1275C36.7468 15.1275 36.4838 15.3904 36.4838 15.7149V33.5376H35.2141C35.2141 33.5368 35.2141 33.5361 35.2141 33.5354V8.43506H36.4839V12.9749C36.4839 13.2994 36.7468 13.5624 37.0713 13.5624C37.3958 13.5624 37.6588 13.2994 37.6588 12.9749V8.43506H38.9283V33.5354ZM38.9283 7.26019H35.214V6.1988H38.9283V7.26019ZM38.9283 5.02393H35.2139V3.03204C35.2139 2.00802 36.0471 1.17488 37.0712 1.17488C38.0952 1.17488 38.9283 2.00802 38.9283 3.03204V5.02393Z" fill="#FFA0C9"/>
</svg>
