<svg width="65" height="65" viewBox="0 0 65 65" fill="none" xmlns="http://www.w3.org/2000/svg">
<path d="M55.6829 11.9833C46.8603 11.4343 40.4077 12.1765 36.5474 12.8957C36.0306 12.9919 35.6895 13.4891 35.7858 14.0062C35.8711 14.4642 36.271 14.7841 36.7207 14.7841C37.1383 14.7841 43.9318 13.1604 55.5647 13.884C56.0932 13.9177 56.5415 13.5175 56.5741 12.9928C56.6069 12.4679 56.2078 12.0159 55.6829 11.9833Z" fill="#6EC857"/>
<path d="M55.6829 19.0067C46.8604 18.4579 40.4074 19.1998 36.5474 19.9191C36.0306 20.0155 35.6895 20.5126 35.7858 21.0296C35.8711 21.4876 36.271 21.8075 36.7207 21.8075C37.139 21.8075 43.9315 20.1837 55.5647 20.9073C56.0932 20.9412 56.5415 20.5409 56.5741 20.0161C56.6069 19.4913 56.2078 19.0393 55.6829 19.0067Z" fill="#6EC857"/>
<path d="M35.7858 35.0762C35.8711 35.5343 36.271 35.8542 36.7207 35.8542C37.0829 35.8542 39.0523 35.3418 43.4064 35.0031C43.9307 34.9624 44.3227 34.5042 44.2819 33.9799C44.2411 33.4557 43.7835 33.0642 43.2587 33.1044C40.8798 33.2895 38.6218 33.5793 36.5474 33.9658C36.0306 34.0621 35.6895 34.5593 35.7858 35.0762Z" fill="#6EC857"/>
<path d="M13.7526 13.7107C13.7582 13.7107 13.7637 13.7107 13.7693 13.7106C20.3237 13.5982 25.1815 14.2235 28.1037 14.7678C28.1628 14.7788 28.2214 14.7841 28.2793 14.7841C28.7288 14.7841 29.1289 14.4642 29.2142 14.0061C29.3105 13.4892 28.9694 12.992 28.4526 12.8957C25.4438 12.335 20.4473 11.6915 13.7366 11.8064C13.2107 11.8154 12.7919 12.249 12.8009 12.7748C12.8098 13.2952 13.2343 13.7107 13.7526 13.7107Z" fill="#6EC857"/>
<path d="M9.4351 20.9074C18.0633 20.3709 24.3494 21.0918 28.1036 21.7912C28.627 21.8886 29.1189 21.5404 29.214 21.0295C29.3104 20.5125 28.9692 20.0154 28.4524 19.919C24.5924 19.1998 18.1394 18.4579 9.31691 19.0066C8.79208 19.0392 8.39307 19.4912 8.42569 20.016C8.45832 20.541 8.91116 20.9414 9.4351 20.9074Z" fill="#6EC857"/>
<path d="M9.4351 27.9309C18.0621 27.3943 24.349 28.1152 28.1036 28.8148C28.627 28.9121 29.1189 28.5639 29.214 28.053C29.3104 27.5361 28.9692 27.0389 28.4524 26.9426C24.5922 26.2234 18.1391 25.4812 9.31691 26.0302C8.79208 26.0628 8.39307 26.5147 8.42569 27.0396C8.45832 27.5646 8.91116 27.9652 9.4351 27.9309Z" fill="#6EC857"/>
<path d="M9.43523 34.9542C12.6513 34.7541 15.796 34.7147 18.7821 34.8371C22.1412 34.9747 25.2775 35.3115 28.1037 35.838C28.6271 35.9354 29.1191 35.5872 29.2141 35.0763C29.3105 34.5593 28.9694 34.0622 28.4526 33.9658C25.5371 33.4227 22.3098 33.0756 18.86 32.9344C15.8092 32.8093 12.5981 32.8494 9.31691 33.0536C8.79208 33.0862 8.39307 33.5381 8.42569 34.063C8.45845 34.5878 8.91129 34.9886 9.43523 34.9542Z" fill="#6EC857"/>
<path d="M60.94 5.15454V4.04091C60.94 2.51747 59.7525 1.22217 58.2363 1.09179C43.9418 -0.136863 35.2097 2.00534 32.8741 2.69127C32.6347 2.7616 32.3752 2.7644 32.126 2.69127C29.7903 2.00547 21.0587 -0.13699 6.76368 1.09179C5.24761 1.22217 4.05996 2.5176 4.05996 4.04091V5.15454C1.4347 5.99193 0 7.85979 0 10.4811V43.5312C0 47.1015 2.75387 49.4084 7.01594 49.4084C7.7807 49.4084 19.4544 48.1366 29.2123 50.4667C31.1689 50.934 33.1948 50.9812 35.1942 50.5935C35.2699 51.6746 35.522 52.7271 35.951 53.7273C37.9017 58.3503 37.8178 58.1144 37.9377 58.454C37.1664 58.8307 36.6326 59.6209 36.6326 60.5354V61.9663C36.6326 63.2441 37.6721 64.2837 38.95 64.2837H53.2021C54.4799 64.2837 55.5195 63.2442 55.5195 61.9663V60.5354C55.5195 59.7063 55.0804 58.9795 54.4239 58.5699C54.6408 58.1219 54.8991 57.6957 55.1982 57.2966C56.9053 55.0184 57.912 52.2449 58.0804 49.4067C62.287 49.3722 65 47.0745 65 43.5312V10.4811C65 7.85979 63.5653 5.9918 60.94 5.15454ZM35.1673 48.6544C33.3578 49.0579 31.4581 49.0454 29.6546 48.6147C19.6404 46.2232 7.66581 47.5042 7.01594 47.5042C5.81687 47.5042 1.9043 47.2177 1.9043 43.5313V10.4811C1.9043 8.89852 2.6127 7.81142 4.05996 7.18236V13.694C4.05996 14.2199 4.48614 14.6462 5.01211 14.6462C5.53808 14.6462 5.96426 14.2199 5.96426 13.694V4.04091C5.96426 3.49755 6.38701 3.03557 6.92682 2.9891C20.8083 1.796 29.2335 3.83169 31.5479 4.50645V44.4833C31.2282 44.4462 30.9108 44.3904 30.5979 44.3156C26.9169 43.4366 18.9695 42.1084 7.10544 43.0904C6.48959 43.1416 5.96438 42.6554 5.96438 42.0387V18.1453C5.96438 17.6194 5.5382 17.1931 5.01224 17.1931C4.48627 17.1931 4.06009 17.6194 4.06009 18.1453V42.0387C4.06009 43.767 5.53935 45.1304 7.26248 44.9882C18.864 44.0281 26.5854 45.3153 30.1556 46.1679C32.0304 46.6155 33.5226 46.4698 35.1674 46.0925L35.1673 48.6544ZM53.6151 61.9664C53.6151 62.1942 53.4297 62.3796 53.202 62.3796H38.95C38.7222 62.3796 38.5369 62.1943 38.5369 61.9664V60.5356C38.5369 60.3078 38.7222 60.1225 38.95 60.1225H53.148C53.1491 60.1225 53.1501 60.1227 53.1511 60.1227C53.1521 60.1227 53.1532 60.1225 53.1543 60.1225H53.202C53.4297 60.1225 53.6151 60.3077 53.6151 60.5356V61.9664ZM56.2041 48.5602C56.2041 51.2805 55.3056 53.9777 53.6741 56.1547C53.1967 56.7918 52.8022 57.4839 52.4947 58.218H39.8618C39.6367 57.4545 39.5642 57.4229 37.7029 52.9811C37.284 52.0044 37.0716 50.9704 37.0716 49.9077C37.0716 48.9689 37.0716 43.4979 37.0716 42.7017C37.0716 42.0179 37.6033 41.4427 38.2566 41.4195C38.9625 41.3967 39.5331 41.9561 39.5331 42.6494C39.5331 43.1752 39.9593 43.6015 40.4852 43.6015C41.0112 43.6015 41.4374 43.1752 41.4374 42.6494V41.3964C41.4374 40.705 42.005 40.1424 42.6655 40.1586C43.6452 40.1784 43.8987 40.6458 43.8987 42.4319C43.8987 42.9578 44.3249 43.3841 44.8509 43.3841C45.3769 43.3841 45.803 42.9578 45.803 42.4319C45.803 42.4286 45.803 42.4253 45.803 42.422V40.3284C45.803 39.6447 46.3347 39.0694 46.988 39.0462C47.699 39.0236 48.2644 39.5873 48.2644 40.2761C48.2644 40.802 48.6906 41.2283 49.2166 41.2283C49.7425 41.2283 50.1687 40.802 50.1687 40.2761V27.6345C50.1687 26.9559 50.7209 26.4038 51.3995 26.4038C52.0781 26.4038 52.6301 26.9559 52.6301 27.6345V42.993C52.6301 43.362 52.8433 43.6978 53.1772 43.8548C53.511 44.0118 53.9058 43.9617 54.1899 43.7262C55.0335 43.0269 56.2042 43.7172 56.2042 44.727V48.5602H56.2041ZM63.0957 43.5312C63.0957 47.0988 59.4318 47.4821 58.1083 47.5031V44.9922C59.7148 44.9216 60.94 43.6038 60.94 42.0387V33.4571C60.94 32.9312 60.5139 32.5049 59.9879 32.5049C59.4619 32.5049 59.0357 32.9312 59.0357 33.4571V42.0387C59.0357 42.6595 58.5056 43.1415 57.8949 43.0905C57.812 43.0837 57.7309 43.0779 57.6488 43.0714C57.007 42.0054 55.8035 41.3887 54.5344 41.5696V27.8728C54.8738 27.8902 55.2167 27.9094 55.5642 27.9311C56.0927 27.9652 56.541 27.5647 56.5736 27.0399C56.6064 26.515 56.2072 26.0631 55.6824 26.0305C55.1236 25.9957 54.5755 25.9667 54.0361 25.9422C53.4779 25.0754 52.5048 24.4995 51.3993 24.4995C50.3355 24.4995 49.3944 25.0325 48.8273 25.845C43.4472 25.8965 39.3246 26.4253 36.5468 26.9429C36.0299 27.0391 35.6888 27.5364 35.7852 28.0533C35.8705 28.5114 36.2704 28.8313 36.72 28.8313C37.1149 28.8313 41.0196 27.8747 48.2642 27.7566V37.3906C47.8462 37.2121 47.3902 37.1272 46.9201 37.1433C45.817 37.1825 44.8696 37.7892 44.3424 38.6843C43.9315 38.4368 43.3974 38.2689 42.704 38.2548C41.4761 38.2313 40.4162 38.9275 39.8893 39.9443C39.3809 39.6443 38.797 39.496 38.1886 39.5166C36.4943 39.5767 35.167 40.9759 35.167 42.7018V44.1411C34.9054 44.1983 34.6496 44.2566 34.402 44.3158C34.0891 44.3905 33.7716 44.4463 33.452 44.4835V4.50645C35.7663 3.83182 44.1916 1.79562 58.0731 2.98923C58.6129 3.03557 59.0356 3.49755 59.0356 4.04104V29.0059C59.0356 29.5317 59.4618 29.958 59.9878 29.958C60.5137 29.958 60.9399 29.5317 60.9399 29.0059V7.18236C62.3873 7.81142 63.0957 8.89852 63.0957 10.4811V43.5312Z" fill="#6EC857"/>
</svg>
