<svg width="40" height="40" viewBox="0 0 40 40" fill="none" xmlns="http://www.w3.org/2000/svg">
<path d="M40 9.08141C40 4.07392 36.1987 0 31.5264 0C26.8541 0 23.0527 4.07392 23.0527 9.08141C23.0527 10.0409 23.1927 10.9657 23.4512 11.8346H1.17188V7.99494C1.17188 7.32871 1.67758 6.78673 2.29922 6.78673H21.7298C22.0534 6.78673 22.3157 6.50566 22.3157 6.15877C22.3157 5.81188 22.0534 5.5308 21.7298 5.5308H2.29922C1.03141 5.5308 0 6.63627 0 7.99494V37.5359C0 38.8946 1.03141 40 2.29922 40H34.8527C36.1205 40 37.1519 38.8946 37.1519 37.5359V18.5279C37.1519 18.181 36.8895 17.8999 36.5659 17.8999C36.2423 17.8999 35.98 18.181 35.98 18.5279V37.5359C35.98 38.2022 35.4743 38.7442 34.8527 38.7442H2.29922C1.67758 38.7442 1.17188 38.2022 1.17188 37.5359V13.0905H23.9246C25.3087 16.0928 28.196 18.1629 31.5263 18.1629C36.1987 18.1629 40 14.0889 40 9.08141ZM24.2246 9.08141C24.2246 4.76644 27.5002 1.25593 31.5263 1.25593C35.5525 1.25593 38.8281 4.76644 38.8281 9.08141C38.8281 13.3964 35.5526 16.907 31.5264 16.907C27.5002 16.907 24.2246 13.3964 24.2246 9.08141Z" fill="#E95D66"/>
<path d="M35.7333 11.3172V9.05574L36.311 8.84357V9.65114C36.311 9.99803 36.5734 10.2791 36.897 10.2791C37.2205 10.2791 37.4829 9.99803 37.4829 9.65114C37.4802 7.82987 37.4889 7.9223 37.4764 7.82786C37.4452 7.5683 37.2804 7.34574 37.0447 7.259L32.2387 5.49366C31.7795 5.32503 31.2737 5.32503 30.8145 5.49366L26.0082 7.25917C25.7462 7.35554 25.5702 7.62004 25.5703 7.91694C25.5705 8.21393 25.7467 8.47801 26.0086 8.57405L27.3198 9.05574V11.3172C27.3198 12.1901 27.9825 12.9002 28.797 12.9002H34.2563C35.0706 12.9003 35.7333 12.1901 35.7333 11.3172ZM31.1942 6.68177C31.4084 6.60315 31.6445 6.60315 31.8586 6.68177L35.2202 7.91661L31.8586 9.15136C31.6444 9.22998 31.4084 9.22998 31.1942 9.15136L27.8327 7.91652L31.1942 6.68177ZM28.4915 11.3172V9.48619L30.8142 10.3394C31.2728 10.5079 31.7791 10.5082 32.2385 10.3394L34.5613 9.48619V11.3172C34.5613 11.4975 34.4244 11.6443 34.256 11.6443H28.7967C28.6284 11.6444 28.4915 11.4976 28.4915 11.3172Z" fill="#E95D66"/>
<path d="M26.6371 22.305C27.7255 22.305 28.6109 21.3561 28.6109 20.1896C28.6109 19.0232 27.7255 18.0742 26.6371 18.0742C25.7527 18.0742 25.0023 18.7008 24.7522 19.5617C24.2459 19.5617 12.9322 19.5617 12.4016 19.5617C12.1515 18.7009 11.4011 18.0742 10.5167 18.0742C9.42836 18.0742 8.54297 19.0232 8.54297 20.1896C8.54297 21.3561 9.42836 22.305 10.5167 22.305C11.4011 22.305 12.1515 21.6783 12.4016 20.8176H16.9532L12.9275 25.8511C12.4223 26.4829 12.5208 27.4419 13.1414 27.9439C13.7605 28.4445 14.872 29.6849 15.5691 32.4507C15.3974 32.6512 15.2917 32.9174 15.2917 33.2102V35.2828C15.2917 35.9035 15.7629 36.4085 16.342 36.4085H20.8118C21.3909 36.4085 21.8621 35.9035 21.8621 35.2828V33.2102C21.8621 32.9174 21.7563 32.6512 21.5848 32.4507C22.2818 29.6848 23.3933 28.4444 24.0123 27.9438C24.6323 27.4424 24.7321 26.4837 24.2262 25.851L20.2006 20.8175H24.7522C25.0023 21.6783 25.7527 22.305 26.6371 22.305ZM26.6371 19.3302C27.0792 19.3302 27.439 19.7156 27.439 20.1896C27.439 20.6635 27.0793 21.049 26.6371 21.049C26.1949 21.049 25.8352 20.6635 25.8352 20.1896C25.8353 19.7157 26.195 19.3302 26.6371 19.3302ZM10.5167 21.049C10.0745 21.049 9.71484 20.6635 9.71484 20.1896C9.71484 19.7157 10.0745 19.3302 10.5167 19.3302C10.9588 19.3302 11.3186 19.7156 11.3186 20.1896C11.3185 20.6635 10.9588 21.049 10.5167 21.049ZM18.5769 27.1236C18.9616 27.1236 19.2747 27.4591 19.2747 27.8715C19.2747 28.2839 18.9616 28.6194 18.5769 28.6194C18.1921 28.6194 17.8791 28.2839 17.8791 27.8715C17.8791 27.4591 18.1922 27.1236 18.5769 27.1236ZM20.6902 35.1527H16.4635V33.3405H20.6902V35.1527ZM23.3365 26.6683C23.4045 26.7534 23.3861 26.877 23.3066 26.9413C22.4088 27.6673 21.2096 29.144 20.463 32.0847H16.6908C15.9441 29.1441 14.745 27.6673 13.8473 26.9413C13.767 26.8765 13.7498 26.7528 13.8173 26.6684L17.9909 21.4498V25.969C17.2463 26.2332 16.7072 26.9859 16.7072 27.8714C16.7072 28.9763 17.5459 29.8752 18.5769 29.8752C19.6078 29.8752 20.4466 28.9764 20.4466 27.8714C20.4466 26.9858 19.9076 26.2331 19.1628 25.969V21.4498L23.3365 26.6683Z" fill="#E95D66"/>
</svg>
