<svg width="40" height="36" viewBox="0 0 40 36" fill="none" xmlns="http://www.w3.org/2000/svg">
<path d="M4.08422 4.23875C4.36804 4.23875 4.59812 4.00867 4.59812 3.72484C4.59812 3.44102 4.36804 3.21094 4.08422 3.21094C3.8004 3.21094 3.57031 3.44102 3.57031 3.72484C3.57031 4.00867 3.8004 4.23875 4.08422 4.23875Z" fill="#543EE8"/>
<path d="M6.37133 4.23875C6.65515 4.23875 6.88523 4.00867 6.88523 3.72484C6.88523 3.44102 6.65515 3.21094 6.37133 3.21094C6.08751 3.21094 5.85742 3.44102 5.85742 3.72484C5.85742 4.00867 6.08751 4.23875 6.37133 4.23875Z" fill="#543EE8"/>
<path d="M8.65844 4.23875C8.94226 4.23875 9.17234 4.00867 9.17234 3.72484C9.17234 3.44102 8.94226 3.21094 8.65844 3.21094C8.37462 3.21094 8.14453 3.44102 8.14453 3.72484C8.14453 4.00867 8.37462 4.23875 8.65844 4.23875Z" fill="#543EE8"/>
<path d="M15.8203 12.5273H4.24609C3.9225 12.5273 3.66016 12.7896 3.66016 13.1133C3.66016 13.437 3.9225 13.6992 4.24609 13.6992H15.8203C16.1439 13.6992 16.4062 13.437 16.4062 13.1133C16.4062 12.7896 16.1439 12.5273 15.8203 12.5273Z" fill="#543EE8"/>
<path d="M15.8203 15.6445H4.24609C3.9225 15.6445 3.66016 15.9068 3.66016 16.2305C3.66016 16.5541 3.9225 16.8164 4.24609 16.8164H15.8203C16.1439 16.8164 16.4062 16.5541 16.4062 16.2305C16.4062 15.9069 16.1439 15.6445 15.8203 15.6445Z" fill="#543EE8"/>
<path d="M16.4062 19.3477C16.4062 19.0241 16.1439 18.7617 15.8203 18.7617H4.24609C3.9225 18.7617 3.66016 19.024 3.66016 19.3477C3.66016 19.6713 3.9225 19.9336 4.24609 19.9336H15.8203C16.1439 19.9336 16.4062 19.6713 16.4062 19.3477Z" fill="#543EE8"/>
<path d="M4.24609 21.8828C3.9225 21.8828 3.66016 22.1451 3.66016 22.4688C3.66016 22.7924 3.9225 23.0547 4.24609 23.0547H10.5697C10.8933 23.0547 11.1556 22.7924 11.1556 22.4688C11.1556 22.1451 10.8933 21.8828 10.5697 21.8828H4.24609Z" fill="#543EE8"/>
<path d="M15.6638 29.7245H2.20977C1.63742 29.7245 1.17187 29.2588 1.17187 28.6866V7.09828H34.1021V10.8752C34.1021 11.1989 34.3644 11.4612 34.688 11.4612C35.0117 11.4612 35.274 11.1989 35.274 10.8752V2.56133C35.274 1.34289 34.2826 0.351562 33.0641 0.351562H2.20977C0.991328 0.351641 0 1.34289 0 2.56133V28.6866C0 29.905 0.991328 30.8963 2.20977 30.8963H15.6638C15.9874 30.8963 16.2498 30.6341 16.2498 30.3104C16.2498 29.9867 15.9874 29.7245 15.6638 29.7245ZM1.17187 2.56133C1.17187 1.98906 1.6375 1.52344 2.20977 1.52344H33.0641C33.6364 1.52344 34.102 1.98906 34.102 2.56133V5.92641H1.17187V2.56133Z" fill="#543EE8"/>
<path d="M39.1466 12.7013C38.0084 11.5631 36.1664 11.5631 35.028 12.7013L31.6468 16.0825C31.1396 15.8279 30.6092 15.6198 30.0636 15.4628C29.9947 14.6805 29.3348 14.0653 28.5369 14.0653C28.5351 14.0653 28.5332 14.0653 28.5314 14.0653L26.3907 14.0728C25.5893 14.0756 24.9321 14.6972 24.8709 15.4811C24.2314 15.6701 23.613 15.9286 23.0294 16.251C22.4333 15.7424 21.5277 15.7724 20.9589 16.3449L19.4485 17.866C18.8784 18.4401 18.8573 19.3462 19.369 19.9371C19.0507 20.5228 18.7966 21.1428 18.612 21.7836C17.8323 21.8484 17.2115 22.5025 17.2143 23.3103L17.2218 25.4477C17.2246 26.246 17.8439 26.9068 18.6298 26.9757C18.7844 27.4988 18.9867 28.0084 19.2323 28.4972L18.8008 28.9287C18.2909 29.4384 17.901 30.038 17.6418 30.7108L16.2642 34.2861C16.1194 34.6619 16.2064 35.0721 16.4912 35.3569C16.7766 35.6424 17.1874 35.7281 17.5618 35.5836L21.1371 34.206C21.8099 33.9468 22.4095 33.5569 22.9192 33.0471L23.3505 32.6158C23.8576 32.8704 24.3877 33.0788 24.9331 33.2359C25.0005 34.0183 25.6589 34.6335 26.4573 34.6335H26.4627L28.6092 34.6259C29.4155 34.623 30.068 33.9977 30.1266 33.2175C30.7661 33.0285 31.3844 32.7699 31.9677 32.4477C32.5614 32.9542 33.4674 32.9283 34.0381 32.3538L35.5486 30.8327C36.1066 30.2707 36.1499 29.3642 35.6281 28.7617C35.9464 28.1757 36.2007 27.5555 36.3852 26.9145C37.1693 26.8455 37.7855 26.1828 37.7827 25.3823L37.7752 23.2324C37.7723 22.4256 37.1462 21.7775 36.3667 21.721C36.212 21.1975 36.0098 20.6888 35.7652 20.2013L39.1466 16.8198C40.2846 15.6816 40.2848 13.8396 39.1466 12.7013ZM17.4939 34.3539C18.7798 31.0459 18.7291 31.0828 18.9391 30.6892L21.1587 32.9088C20.7645 33.1191 20.7998 33.0689 17.4939 34.3539ZM29.3994 19.9872C29.7667 20.1478 30.1095 20.3537 30.4217 20.5974L20.4632 30.556L19.6469 29.7397L29.3994 19.9872ZM22.7391 24.3493C22.7391 21.7249 24.8742 19.5899 27.4985 19.5899C27.7024 19.5899 27.9029 19.6042 28.1001 19.6292L22.7773 24.952C22.7519 24.7528 22.7391 24.5516 22.7391 24.3493ZM22.1081 32.2009L21.2919 31.3846L31.2504 21.4262C31.4941 21.7383 31.6999 22.0811 31.8606 22.4484L22.1081 32.2009ZM32.2186 23.7478C32.2436 23.9449 32.258 24.1454 32.258 24.3493C32.258 26.9737 30.1229 29.1088 27.4985 29.1088C27.2963 29.1088 27.0952 29.0959 26.8959 29.0705L32.2186 23.7478ZM36.2087 22.8885C36.4737 22.896 36.6027 23.0493 36.6033 23.2364L36.6109 25.3863C36.6115 25.5727 36.4777 25.7424 36.225 25.7489C35.7895 25.7587 35.4045 26.061 35.2888 26.4842C35.1159 27.1174 34.8654 27.7285 34.5442 28.3003C34.3301 28.6817 34.3837 29.1485 34.6771 29.4614C34.8763 29.6733 34.8527 29.8704 34.717 30.007L33.2066 31.5281C33.0902 31.6453 32.9411 31.637 32.9489 31.6354C32.7818 31.6354 32.6994 31.5255 32.6916 31.5211C32.374 31.2108 31.8831 31.1476 31.4982 31.3673C30.9287 31.6924 30.3195 31.9472 29.6878 32.1245C29.266 32.2428 28.9546 32.6341 28.9591 33.0967C28.9603 33.2933 28.8019 33.4534 28.6052 33.454L26.4587 33.4616C26.4582 33.4616 26.4578 33.4616 26.4573 33.4616C26.272 33.4616 26.1052 33.3287 26.099 33.0754C26.0892 32.64 25.787 32.2552 25.3639 32.1396C24.9767 32.0339 24.598 31.8988 24.2303 31.7361L25.9052 30.0613C26.4237 30.2061 26.958 30.2806 27.4986 30.2806C30.7691 30.2806 33.4299 27.6198 33.4299 24.3492C33.4299 21.0961 30.7809 18.4179 27.4986 18.4179C24.228 18.4179 21.5673 21.0787 21.5673 24.3492C21.5673 24.89 21.6419 25.4242 21.7866 25.9428L20.1123 27.6171C19.9573 27.267 19.8268 26.9067 19.7236 26.5389C19.6049 26.116 19.2175 25.8162 18.7884 25.8099C18.7775 25.8096 18.7665 25.8096 18.7589 25.8096C18.5583 25.8082 18.3944 25.644 18.3937 25.4434L18.3862 23.306C18.3855 23.1097 18.544 22.9499 18.7413 22.9499C19.2105 22.9499 19.5941 22.6321 19.7082 22.2143C19.8812 21.5812 20.1317 20.97 20.453 20.3981C20.6633 20.0238 20.6306 19.5415 20.2754 19.1913C20.1401 19.0585 20.1399 18.8328 20.2802 18.6914L21.7905 17.1705C22.0437 16.9157 22.2975 17.1738 22.3053 17.177C22.6228 17.4876 23.1138 17.5509 23.4993 17.331C24.0688 17.006 24.6778 16.7513 25.3092 16.5742C25.7316 16.4556 26.0313 16.0686 26.0381 15.6314L26.0383 15.6038C26.0376 15.4064 26.1977 15.2452 26.395 15.2445L28.5357 15.237H28.537C28.7348 15.237 28.8966 15.3976 28.8979 15.5921V15.6001C28.9013 16.0466 29.2091 16.4424 29.6463 16.5624C30.2747 16.7352 30.8812 16.9844 31.4491 17.3032C31.8262 17.5153 32.3216 17.4656 32.6563 17.1262C32.7942 16.9857 33.0211 16.9963 33.1563 17.1308L34.6774 18.6413C34.8081 18.7711 34.8454 18.9659 34.6417 19.1866C34.35 19.5021 34.2996 19.9692 34.5164 20.3491C34.5193 20.3542 34.5219 20.3593 34.5248 20.3644C34.5256 20.366 34.5265 20.3674 34.5273 20.3689C34.8473 20.9329 35.0986 21.5353 35.2739 22.1599C35.3921 22.5822 35.7791 22.8819 36.2087 22.8885ZM35.8819 18.4271C35.8077 18.1967 35.6798 17.9854 35.503 17.8098L33.982 16.2994C33.8242 16.1428 33.638 16.026 33.4359 15.9508L34.3151 15.0717L36.7762 17.5328L35.8819 18.4271ZM38.3179 15.991L37.6049 16.704L35.1438 14.2429L35.8568 13.5299C36.5368 12.8497 37.6377 12.8496 38.318 13.5299C38.998 14.21 38.9981 15.311 38.3179 15.991Z" fill="#543EE8"/>
</svg>
