<svg width="65" height="65" viewBox="0 0 65 65" fill="none" xmlns="http://www.w3.org/2000/svg">
<path d="M44.036 0.0820312H6.52539C2.92729 0.0820312 0 3.00944 0 6.60755V58.3906C0 61.9887 2.92729 64.916 6.52539 64.916H44.0361C47.6342 64.916 50.5614 61.9886 50.5614 58.3906V6.60755C50.5615 3.00944 47.6341 0.0820312 44.036 0.0820312ZM48.6572 58.3905C48.6572 60.9385 46.5842 63.0116 44.0362 63.0116H6.52539C3.97731 63.0116 1.9043 60.9385 1.9043 58.3905V6.60755C1.9043 4.05947 3.97731 1.98645 6.52539 1.98645H44.036C46.5841 1.98645 48.6571 4.05947 48.6571 6.60755V58.3905H48.6572Z" fill="#FFA0C9"/>
<path d="M42.9407 6.73828H7.62121C6.28249 6.73828 5.19336 7.82741 5.19336 9.16626V20.8467C5.19336 22.1854 6.28249 23.2746 7.62121 23.2746H42.9407C44.2794 23.2746 45.3686 22.1854 45.3686 20.8467V9.16626C45.3686 7.82741 44.2794 6.73828 42.9407 6.73828ZM43.4643 20.8467C43.4643 21.1354 43.2294 21.3703 42.9407 21.3703H7.62121C7.33252 21.3703 7.09766 21.1354 7.09766 20.8467V9.16626C7.09766 8.87757 7.33252 8.64258 7.62121 8.64258H42.9407C43.2294 8.64258 43.4643 8.87757 43.4643 9.16626V20.8467Z" fill="#FFA0C9"/>
<path d="M11.131 27.3789H7.44068C6.20149 27.3789 5.19336 28.387 5.19336 29.6262V33.3165C5.19336 34.5557 6.20149 35.5638 7.44068 35.5638H11.131C12.3701 35.5638 13.3784 34.5557 13.3784 33.3165V29.6262C13.3784 28.3872 12.3701 27.3789 11.131 27.3789ZM11.4741 33.3166C11.4741 33.5058 11.3202 33.6597 11.131 33.6597H7.44068C7.25152 33.6597 7.09766 33.5058 7.09766 33.3166V29.6264C7.09766 29.4372 7.25152 29.2833 7.44068 29.2833H11.131C11.3201 29.2833 11.4741 29.4372 11.4741 29.6264V33.3166Z" fill="#FFA0C9"/>
<path d="M21.7932 27.3789H18.1028C16.8636 27.3789 15.8555 28.387 15.8555 29.6262V33.3165C15.8555 34.5557 16.8636 35.5638 18.1028 35.5638H21.7932C23.0324 35.5638 24.0405 34.5557 24.0405 33.3165V29.6262C24.0406 28.3872 23.0325 27.3789 21.7932 27.3789ZM22.1363 33.3166C22.1363 33.5058 21.9825 33.6597 21.7933 33.6597H18.1029C17.9138 33.6597 17.7599 33.5058 17.7599 33.3166V29.6264C17.7599 29.4372 17.9138 29.2833 18.1029 29.2833H21.7933C21.9825 29.2833 22.1363 29.4372 22.1363 29.6264V33.3166Z" fill="#FFA0C9"/>
<path d="M28.767 35.5638H32.4573C33.6964 35.5638 34.7046 34.5557 34.7046 33.3165V29.6262C34.7046 28.387 33.6964 27.3789 32.4573 27.3789H28.767C27.5278 27.3789 26.5195 28.387 26.5195 29.6262V33.3165C26.5195 34.5557 27.5277 35.5638 28.767 35.5638ZM28.4238 29.6261C28.4238 29.4369 28.5777 29.2831 28.767 29.2831H32.4573C32.6464 29.2831 32.8003 29.4369 32.8003 29.6261V33.3164C32.8003 33.5055 32.6464 33.6594 32.4573 33.6594H28.767C28.5778 33.6594 28.4238 33.5055 28.4238 33.3164V29.6261Z" fill="#FFA0C9"/>
<path d="M43.1213 27.3789H39.431C38.1917 27.3789 37.1836 28.387 37.1836 29.6262V33.3165C37.1836 34.5557 38.1917 35.5638 39.431 35.5638H43.1213C44.3605 35.5638 45.3686 34.5557 45.3686 33.3165V29.6262C45.3686 28.3872 44.3605 27.3789 43.1213 27.3789ZM43.4643 33.3166C43.4643 33.5058 43.3105 33.6597 43.1213 33.6597H39.431C39.2419 33.6597 39.0879 33.5058 39.0879 33.3166V29.6264C39.0879 29.4372 39.2419 29.2833 39.431 29.2833H43.1213C43.3105 29.2833 43.4643 29.4372 43.4643 29.6264V33.3166Z" fill="#FFA0C9"/>
<path d="M11.131 38.7266H7.44068C6.20149 38.7266 5.19336 39.7347 5.19336 40.9739V44.6642C5.19336 45.9033 6.20149 46.9115 7.44068 46.9115H11.131C12.3701 46.9115 13.3784 45.9033 13.3784 44.6642V40.9739C13.3784 39.7347 12.3701 38.7266 11.131 38.7266ZM11.4741 44.6642C11.4741 44.8533 11.3202 45.0072 11.131 45.0072H7.44068C7.25152 45.0072 7.09766 44.8533 7.09766 44.6642V40.9739C7.09766 40.7847 7.25152 40.6309 7.44068 40.6309H11.131C11.3201 40.6309 11.4741 40.7847 11.4741 40.9739V44.6642Z" fill="#FFA0C9"/>
<path d="M21.7932 38.7266H18.1028C16.8636 38.7266 15.8555 39.7347 15.8555 40.9739V44.6642C15.8555 45.9033 16.8636 46.9115 18.1028 46.9115H21.7932C23.0324 46.9115 24.0405 45.9033 24.0405 44.6642V40.9739C24.0406 39.7347 23.0325 38.7266 21.7932 38.7266ZM22.1363 44.6642C22.1363 44.8533 21.9825 45.0072 21.7933 45.0072H18.1029C17.9138 45.0072 17.7599 44.8533 17.7599 44.6642V40.9739C17.7599 40.7847 17.9138 40.6309 18.1029 40.6309H21.7933C21.9825 40.6309 22.1363 40.7847 22.1363 40.9739V44.6642Z" fill="#FFA0C9"/>
<path d="M26.5195 44.6642C26.5195 45.9033 27.5277 46.9115 28.767 46.9115H32.4573C33.6964 46.9115 34.7046 45.9033 34.7046 44.6642V40.9739C34.7046 39.7347 33.6964 38.7266 32.4573 38.7266H28.767C27.5278 38.7266 26.5195 39.7347 26.5195 40.9739V44.6642ZM28.4238 40.9739C28.4238 40.7847 28.5777 40.6309 28.767 40.6309H32.4573C32.6464 40.6309 32.8003 40.7847 32.8003 40.9739V44.6642C32.8003 44.8533 32.6464 45.0072 32.4573 45.0072H28.767C28.5778 45.0072 28.4238 44.8533 28.4238 44.6642V40.9739Z" fill="#FFA0C9"/>
<path d="M43.1213 38.7266H39.431C38.1917 38.7266 37.1836 39.7347 37.1836 40.9739V44.6642C37.1836 45.9033 38.1917 46.9115 39.431 46.9115H43.1213C44.3605 46.9115 45.3686 45.9033 45.3686 44.6642V40.9739C45.3686 39.7347 44.3605 38.7266 43.1213 38.7266ZM43.4643 44.6642C43.4643 44.8533 43.3105 45.0072 43.1213 45.0072H39.431C39.2419 45.0072 39.0879 44.8533 39.0879 44.6642V40.9739C39.0879 40.7847 39.2419 40.6309 39.431 40.6309H43.1213C43.3105 40.6309 43.4643 40.7847 43.4643 40.9739V44.6642Z" fill="#FFA0C9"/>
<path d="M11.131 50.0742H7.44068C6.20149 50.0742 5.19336 51.0824 5.19336 52.3215V56.0118C5.19336 57.2511 6.20149 58.2593 7.44068 58.2593H11.131C12.3701 58.2593 13.3784 57.2511 13.3784 56.0118V52.3215C13.3784 51.0824 12.3701 50.0742 11.131 50.0742ZM11.4741 56.0118C11.4741 56.201 11.3202 56.355 11.131 56.355H7.44068C7.25152 56.355 7.09766 56.201 7.09766 56.0118V52.3215C7.09766 52.1324 7.25152 51.9785 7.44068 51.9785H11.131C11.3201 51.9785 11.4741 52.1324 11.4741 52.3215V56.0118Z" fill="#FFA0C9"/>
<path d="M21.7932 50.0742H18.1028C16.8636 50.0742 15.8555 51.0824 15.8555 52.3215V56.0118C15.8555 57.2511 16.8636 58.2593 18.1028 58.2593H21.7932C23.0324 58.2593 24.0405 57.2511 24.0405 56.0118V52.3215C24.0406 51.0824 23.0325 50.0742 21.7932 50.0742ZM22.1363 56.0118C22.1363 56.201 21.9825 56.355 21.7933 56.355H18.1029C17.9138 56.355 17.7599 56.201 17.7599 56.0118V52.3215C17.7599 52.1324 17.9138 51.9785 18.1029 51.9785H21.7933C21.9825 51.9785 22.1363 52.1324 22.1363 52.3215V56.0118Z" fill="#FFA0C9"/>
<path d="M43.1207 50.0742H28.767C27.5278 50.0742 26.5195 51.0824 26.5195 52.3215V56.0118C26.5195 57.251 27.5277 58.2591 28.767 58.2591H33.54C34.066 58.2591 34.4922 57.833 34.4922 57.307C34.4922 56.781 34.066 56.3548 33.54 56.3548H28.767C28.5778 56.3548 28.4238 56.201 28.4238 56.0118V52.3215C28.4238 52.1324 28.5777 51.9785 28.767 51.9785H43.1207C43.3098 51.9785 43.4637 52.1324 43.4637 52.3215V56.0118C43.4637 56.201 43.3098 56.3548 43.1207 56.3548H37.9811C37.4551 56.3548 37.029 56.781 37.029 57.307C37.029 57.833 37.4551 58.2591 37.9811 58.2591H43.1207C44.3599 58.2591 45.368 57.251 45.368 56.0118V52.3215C45.368 51.0824 44.3599 50.0742 43.1207 50.0742Z" fill="#FFA0C9"/>
<path d="M60.0865 0.0820312C57.3765 0.0820312 55.1719 2.28657 55.1719 4.99651V54.4378C55.1719 54.7784 55.1951 55.1389 55.2408 55.5099V55.5103V55.5112C55.4976 57.5719 56.2107 58.3929 58.5655 63.927C58.8363 64.5369 59.419 64.9158 60.0862 64.9158C60.7537 64.9158 61.3365 64.5369 61.6071 63.9269C64.0302 58.2321 64.6715 57.5994 64.9318 55.5112C64.9318 55.5109 64.9318 55.5105 64.9318 55.5103C64.9318 55.5101 64.9318 55.51 64.9318 55.5099C64.9775 55.1389 65.0007 54.7783 65.0007 54.4378C65.0007 51.8983 65.0007 7.173 65.0007 4.99651C65.001 2.2867 62.7964 0.0820312 60.0865 0.0820312ZM60.0865 62.6593L58.8733 59.9251H61.2998L60.0865 62.6593ZM62.1446 58.0208H58.0283C57.7392 57.3453 57.5394 56.9927 57.351 56.3456H62.8218C62.6329 56.9946 62.4318 57.3496 62.1446 58.0208ZM63.0967 54.4379V54.4413H61.0388V25.5535C61.0388 25.0276 60.6126 24.6014 60.0866 24.6014C59.5606 24.6014 59.1345 25.0276 59.1345 25.5535V54.4413H57.0764C57.0764 54.4402 57.0764 54.439 57.0764 54.4379V13.754H59.1346V21.1125C59.1346 21.6384 59.5608 22.0646 60.0867 22.0646C60.6127 22.0646 61.0389 21.6384 61.0389 21.1125V13.754H63.0967V54.4379ZM63.0967 11.8497H57.0763V10.1294H63.0967V11.8497ZM63.0967 8.22506H57.0762V4.99651C57.0762 3.33673 58.4266 1.98633 60.0865 1.98633C61.7463 1.98633 63.0967 3.33673 63.0967 4.99651V8.22506Z" fill="#FFA0C9"/>
</svg>
