<svg width="40" height="38" viewBox="0 0 40 38" fill="none" xmlns="http://www.w3.org/2000/svg">
<path d="M7.08867 10.1593C6.57516 9.60305 5.84609 9.27344 5.05281 9.27344C4.72914 9.27344 4.4668 9.53578 4.4668 9.85945C4.4668 10.1831 4.72914 10.4455 5.05281 10.4455C5.71078 10.4455 6.29227 10.838 6.53828 11.4469C6.72594 11.9587 7.45195 11.9576 7.63891 11.447C7.88508 10.8381 8.46664 10.4455 9.12461 10.4455C9.44828 10.4455 9.71062 10.1831 9.71062 9.85945C9.71062 9.53578 9.44828 9.27344 9.12461 9.27344C8.33141 9.27344 7.60227 9.60313 7.08867 10.1593Z" fill="#FFA0C9"/>
<path d="M14.8505 6.17109C14.3369 5.61484 13.6077 5.28523 12.8145 5.28523C12.4909 5.28523 12.2285 5.54758 12.2285 5.87125C12.2285 6.19492 12.4909 6.45727 12.8145 6.45727C13.4728 6.45727 14.0546 6.85023 14.3005 7.45945C14.4891 7.97117 15.2138 7.96875 15.4011 7.45789C15.6473 6.84945 16.2287 6.45719 16.8864 6.45719C17.2101 6.45719 17.4724 6.19484 17.4724 5.87117C17.4724 5.5475 17.2101 5.28516 16.8864 5.28516C16.0931 5.28523 15.364 5.61484 14.8505 6.17109Z" fill="#FFA0C9"/>
<path d="M39.4063 9.25156C38.8272 8.67242 37.9674 8.51523 37.2353 8.79234V7.60313C37.2353 7.27945 36.973 7.01711 36.6493 7.01711C36.3256 7.01711 36.0633 7.27945 36.0633 7.60313V9.63344L28.837 15.7923C27.8645 15.6562 26.8599 15.5865 25.8458 15.5865C22.265 15.5865 20.0982 16.1813 18.1855 17.0079C14.3816 15.6038 8.44062 13.9797 1.17195 13.8959V3.34609C1.17195 2.50055 1.85992 1.81258 2.70547 1.81258H34.5298C35.3754 1.81258 36.0634 2.50055 36.0634 3.34609V4.86547C36.0634 5.18914 36.3257 5.45148 36.6494 5.45148C36.973 5.45148 37.2354 5.18914 37.2354 4.86547V3.34609C37.2354 1.85422 36.0217 0.640625 34.5299 0.640625H2.70547C1.21367 0.640625 0 1.8543 0 3.34609V24.2611C0 25.753 1.21367 26.9666 2.70547 26.9666H9.98383L9.53508 28.2653C9.42937 28.5712 9.59172 28.9048 9.89758 29.0105C9.96094 29.0324 10.0255 29.0428 10.0889 29.0428C10.3319 29.0428 10.559 28.8906 10.6428 28.648L11.2237 26.9666H13.3549L10.403 35.51C10.2214 36.0356 9.64859 36.3152 9.12219 36.133C8.59641 35.9514 8.31726 35.3784 8.49922 34.8522L9.74719 31.2402C9.85289 30.9343 9.69055 30.6006 9.38469 30.4949C9.07914 30.3893 8.74523 30.5516 8.63945 30.8574L7.39148 34.4695C6.9982 35.6076 7.60101 36.8474 8.73937 37.2406C9.8825 37.6362 11.1199 37.0241 11.5108 35.8927L12.8777 31.9365H24.3577L25.7245 35.8927C26.1171 37.0286 27.3577 37.6344 28.4958 37.2407C29.6337 36.8476 30.2373 35.608 29.8438 34.4695L27.2515 26.9666H34.5298C36.0217 26.9666 37.2353 25.7529 37.2353 24.2611V14.6936L39.5163 12.0173C40.2015 11.2134 40.1532 9.99859 39.4063 9.25156ZM1.17195 15.0679C7.60125 15.1437 12.9647 16.452 16.6776 17.7166C13.3911 19.351 10.2402 21.1833 1.17195 21.6018V15.0679ZM2.70547 25.7946C1.85992 25.7946 1.17195 25.1066 1.17195 24.2611V22.775C17.3934 22.0393 15.6023 16.7585 25.8459 16.7585C26.4426 16.7585 27.0353 16.7845 27.6193 16.8345C25.3127 18.8848 24.537 20.9651 24.1205 21.6388C22.3819 21.6877 21.0346 22.5277 20.7941 24.2584C20.708 24.8813 20.6569 25.0859 20.1568 25.2423C19.8855 25.3273 19.518 25.3566 19.122 25.3246C18.7952 25.2978 18.4814 25.4786 18.347 25.7946H2.70547ZM29.3724 21.7411C28.1881 22.6701 27.2909 23.0369 26.4122 23.5327C26.408 23.5348 26.4031 23.5343 26.3999 23.5309L25.127 22.258C25.1237 22.2547 25.1229 22.2498 25.1251 22.2458C25.6187 21.3709 25.9871 20.4706 26.9168 19.2855L29.3724 21.7411ZM21.8052 25.1537C22.1744 25.0295 22.4277 25.0862 22.5499 25.8398C22.668 26.5679 22.9954 27.189 23.6385 27.5441C22.4337 27.9963 20.9244 27.7915 19.8364 26.4906C20.056 26.4701 20.2852 26.4302 20.507 26.3609C21.3149 26.108 21.6468 25.6348 21.8052 25.1537ZM13.2827 30.7645L14.5949 26.9666H18.72C19.9373 28.5898 21.5986 29.172 23.2927 28.8545L23.9527 30.7645H13.2827ZM23.7067 25.6523C23.5055 24.4112 22.8128 23.9275 22.0626 23.9322C22.366 23.1487 23.308 22.8499 24.0947 22.8139C24.24 23.0801 24.3259 23.0927 25.5712 24.3597C25.6541 24.4426 25.7467 24.5107 25.8454 24.5643C25.8102 25.3444 25.5198 26.0369 24.9784 26.6289C24.2178 26.728 23.8243 26.377 23.7067 25.6523ZM28.7361 34.8523C28.9179 35.3781 28.6395 35.9512 28.113 36.133C27.5872 36.3149 27.0141 36.036 26.8323 35.51L24.4073 28.4912C25.0416 28.1883 25.6094 27.7375 26.0737 27.1465L28.7361 34.8523ZM36.0634 24.2611C36.0634 25.1066 35.3754 25.7946 34.5298 25.7946H26.8022C26.9332 25.3946 27.0061 24.974 27.0188 24.5373C27.6725 24.129 29.9048 23.2948 32.008 20.8269L33.9569 18.5402C34.6927 18.898 35.3985 19.3084 36.0633 19.7644V24.2611H36.0634ZM36.0634 18.3656C35.6349 18.0998 35.1933 17.8509 34.7402 17.6211L36.0634 16.0687V18.3656ZM38.6244 11.257L31.116 20.0666C30.8453 20.3842 30.5596 20.6857 30.2604 20.9716L27.6862 18.3974C27.9721 18.0983 28.2735 17.8125 28.5911 17.5419L37.4007 10.0335C37.7427 9.74211 38.2597 9.76242 38.5775 10.0804C38.8953 10.3981 38.9159 10.915 38.6244 11.257Z" fill="#FFA0C9"/>
<path d="M24.9688 8.05766C24.9688 9.7307 26.3299 11.0918 28.003 11.0918C29.676 11.0918 31.0371 9.7307 31.0371 8.05766C31.0371 6.38461 29.676 5.02344 28.003 5.02344C26.3299 5.02344 24.9688 6.38461 24.9688 8.05766ZM29.8651 8.05766C29.8651 9.08445 29.0298 9.91977 28.003 9.91977C26.9761 9.91977 26.1408 9.08445 26.1408 8.05766C26.1408 7.03078 26.9761 6.19547 28.003 6.19547C29.0298 6.19547 29.8651 7.03078 29.8651 8.05766Z" fill="#FFA0C9"/>
</svg>
