<svg width="36" height="40" viewBox="0 0 36 40" fill="none" xmlns="http://www.w3.org/2000/svg">
<path d="M27.137 13.9141H12.2051C11.8815 13.9141 11.6191 14.1764 11.6191 14.5C11.6191 14.8236 11.8815 15.0859 12.2051 15.0859H27.137C27.4605 15.0859 27.7229 14.8236 27.7229 14.5C27.7229 14.1764 27.4605 13.9141 27.137 13.9141Z" fill="#6EC857"/>
<path d="M27.137 16.4297H12.2051C11.8815 16.4297 11.6191 16.692 11.6191 17.0156C11.6191 17.3392 11.8815 17.6016 12.2051 17.6016H27.137C27.4605 17.6016 27.7229 17.3392 27.7229 17.0156C27.7229 16.692 27.4605 16.4297 27.137 16.4297Z" fill="#6EC857"/>
<path d="M9.5132 8.81117C9.5132 9.13477 9.77555 9.39711 10.0991 9.39711H19.088C19.7334 9.39711 20.2584 8.87203 20.2584 8.22656V6.13531C20.2584 5.48992 19.7334 4.96484 19.088 4.96484H5.44781C4.80242 4.96484 4.27734 5.48992 4.27734 6.13531V8.22664C4.27734 8.87211 4.80242 9.39719 5.44781 9.39719H7.35805C7.68164 9.39719 7.94398 9.13484 7.94398 8.81125C7.94398 8.48766 7.68164 8.22531 7.35805 8.22531L5.44922 8.22664L5.44781 6.13664L19.0866 6.13523L19.088 8.22516H10.0991C9.77555 8.22523 9.5132 8.48758 9.5132 8.81117Z" fill="#6EC857"/>
<path d="M31.2846 26.0201C30.961 26.0201 30.6987 26.2824 30.6987 26.606V35.8601C30.6987 37.4967 29.3672 38.8282 27.7305 38.8282H4.27086C2.63422 38.8282 1.30273 37.4967 1.30273 35.8601V4.14C1.30273 2.50336 2.63422 1.17188 4.27086 1.17188C23.1524 1.18789 22.1073 1.13336 22.4745 1.21445V6.90617C22.4745 8.27906 23.5915 9.39602 24.9644 9.39602H30.6561C30.6834 9.51937 30.6987 9.64617 30.6987 9.77555V14.7866C30.6987 15.1102 30.961 15.3725 31.2846 15.3725C31.6082 15.3725 31.8705 15.1102 31.8705 14.7866V9.77555C31.8705 8.99641 31.5672 8.26391 31.0163 7.71305L24.1575 0.854297C23.6066 0.303359 22.8741 0 22.095 0H4.27086C1.98805 0 0.130859 1.85719 0.130859 4.14V35.8601C0.130859 38.1429 1.98805 40.0001 4.27086 40.0001H27.7306C30.0134 40.0001 31.8706 38.1429 31.8706 35.8601V26.606C31.8705 26.2824 31.6082 26.0201 31.2846 26.0201ZM29.8701 8.22414H24.9644C24.2377 8.22414 23.6464 7.63289 23.6464 6.90617V2.00047L29.8701 8.22414Z" fill="#6EC857"/>
<path d="M9.31453 14.3313C9.31453 13.7307 8.82602 13.2422 8.22547 13.2422H5.36641C4.76586 13.2422 4.27734 13.7307 4.27734 14.3313V17.1903C4.27734 17.7909 4.76586 18.2794 5.36641 18.2794H8.22547C8.82602 18.2794 9.31453 17.7909 9.31453 17.1903V14.3313ZM8.14266 17.1075H5.44922V14.4141H8.14266V17.1075Z" fill="#6EC857"/>
<path d="M9.31453 21.6203C9.31453 21.0198 8.82602 20.5312 8.22547 20.5312H5.36641C4.76586 20.5312 4.27734 21.0198 4.27734 21.6203V24.4794C4.27734 25.0799 4.76586 25.5684 5.36641 25.5684H8.22547C8.82602 25.5684 9.31453 25.0799 9.31453 24.4794V21.6203ZM8.14266 24.3966H5.44922V21.7031H8.14266V24.3966Z" fill="#6EC857"/>
<path d="M8.22547 27.8203H5.36641C4.76586 27.8203 4.27734 28.3088 4.27734 28.9094V31.7684C4.27734 32.369 4.76586 32.8575 5.36641 32.8575H8.22547C8.82602 32.8575 9.31453 32.369 9.31453 31.7684V28.9094C9.31453 28.3088 8.82602 27.8203 8.22547 27.8203ZM8.14266 31.6855H5.44922V28.9921H8.14266V31.6855Z" fill="#6EC857"/>
<path d="M35.0865 16.8711C34.0449 15.8294 32.3501 15.8294 31.3085 16.8711L26.9749 21.2047H12.2051C11.8815 21.2047 11.6191 21.467 11.6191 21.7906C11.6191 22.1142 11.8815 22.3765 12.2051 22.3765H25.803L24.4594 23.7202H12.2051C11.8815 23.7202 11.6191 23.9826 11.6191 24.3062C11.6191 24.6297 11.8815 24.8921 12.2051 24.8921H23.2875L19.6838 28.4958H12.2051C11.8815 28.4958 11.6191 28.7581 11.6191 29.0817C11.6191 29.4053 11.8815 29.6676 12.2051 29.6676H18.512L17.1683 31.0113H12.2052C11.8816 31.0113 11.6192 31.2737 11.6192 31.5972C11.6192 31.9208 11.8816 32.1832 12.2052 32.1832H16.0132C15.652 32.6003 15.3713 33.0578 15.173 33.5726L13.9379 36.778C13.8015 37.1321 13.8867 37.5343 14.155 37.8026C14.4247 38.0722 14.8272 38.1554 15.1796 38.0197L18.3848 36.7846C19.0172 36.541 19.5759 36.1596 20.0036 35.7319L23.5523 32.1831H27.137C27.4605 32.1831 27.7229 31.9208 27.7229 31.5972C27.7229 31.2736 27.4605 31.0112 27.137 31.0112H24.7242L26.0679 29.6676H27.137C27.4605 29.6676 27.7229 29.4052 27.7229 29.0816C27.7229 28.7903 27.51 28.5493 27.2315 28.504L35.0866 20.6489C36.1281 19.6075 36.1281 17.9127 35.0865 16.8711ZM17.9634 35.6912L15.2026 36.7551L16.2664 33.9941C16.308 33.886 16.3553 33.7799 16.4078 33.6763L18.2813 35.5498C18.1777 35.6023 18.0716 35.6495 17.9634 35.6912ZM19.2335 34.8447L17.1128 32.724L28.6466 21.1902L30.7673 23.3109L19.2335 34.8447ZM31.596 22.4823L29.4753 20.3616L30.4416 19.3953L32.5623 21.516L31.596 22.4823ZM34.2579 19.8204L33.391 20.6873L31.2702 18.5665L32.1371 17.6997C32.7218 17.1151 33.6731 17.1151 34.2579 17.6997C34.8426 18.2844 34.8426 19.2358 34.2579 19.8204Z" fill="#6EC857"/>
</svg>
