<svg width="40" height="38" viewBox="0 0 40 38" fill="none" xmlns="http://www.w3.org/2000/svg">
<path d="M4.55633 9.61266C4.87976 9.61266 5.14195 9.35046 5.14195 9.02703C5.14195 8.7036 4.87976 8.44141 4.55633 8.44141C4.2329 8.44141 3.9707 8.7036 3.9707 9.02703C3.9707 9.35046 4.2329 9.61266 4.55633 9.61266Z" fill="#FFB876"/>
<path d="M7.1618 9.61266C7.48523 9.61266 7.74742 9.35046 7.74742 9.02703C7.74742 8.7036 7.48523 8.44141 7.1618 8.44141C6.83837 8.44141 6.57617 8.7036 6.57617 9.02703C6.57617 9.35046 6.83837 9.61266 7.1618 9.61266Z" fill="#FFB876"/>
<path d="M9.76922 9.61266C10.0927 9.61266 10.3548 9.35046 10.3548 9.02703C10.3548 8.7036 10.0927 8.44141 9.76922 8.44141C9.44579 8.44141 9.18359 8.7036 9.18359 9.02703C9.18359 9.35046 9.44579 9.61266 9.76922 9.61266Z" fill="#FFB876"/>
<path d="M9.56023 24.0396L11.623 18.8534C11.7426 18.5527 11.5957 18.212 11.2951 18.0924C10.9942 17.9729 10.6537 18.1196 10.5341 18.4202L8.47133 23.6065C8.35172 23.9072 8.49859 24.2479 8.79922 24.3675C9.09992 24.487 9.44055 24.3404 9.56023 24.0396Z" fill="#FFB876"/>
<path d="M13.7767 24.0787C14.0588 24.2422 14.4164 24.1433 14.5774 23.8655L15.9625 21.4741C16.0696 21.2893 16.0676 21.0608 15.9573 20.8779L14.5721 18.5804C14.405 18.3033 14.045 18.214 13.7678 18.3812C13.4907 18.5483 13.4015 18.9083 13.5686 19.1855L14.775 21.1864L13.5634 23.2781C13.4012 23.558 13.4967 23.9165 13.7767 24.0787Z" fill="#FFB876"/>
<path d="M6.32636 18.3811C6.0491 18.214 5.68909 18.3033 5.52206 18.5804L4.13691 20.8779C4.0266 21.0608 4.02456 21.2893 4.13167 21.4741L5.51683 23.8654C5.67878 24.1451 6.03714 24.2412 6.31753 24.0787C6.59753 23.9165 6.69308 23.558 6.53081 23.278L5.31925 21.1865L6.52566 19.1855C6.69269 18.9083 6.60355 18.5482 6.32636 18.3811Z" fill="#FFB876"/>
<path d="M32.6706 18.7656H19.6582C19.3346 18.7656 19.0723 19.028 19.0723 19.3516C19.0723 19.6752 19.3346 19.9375 19.6582 19.9375H32.6706C32.9943 19.9375 33.2566 19.6752 33.2566 19.3516C33.2566 19.028 32.9942 18.7656 32.6706 18.7656Z" fill="#FFB876"/>
<path d="M32.6706 23.0234H19.6582C19.3346 23.0234 19.0723 23.2858 19.0723 23.6094C19.0723 23.933 19.3346 24.1953 19.6582 24.1953H32.6706C32.9943 24.1953 33.2566 23.933 33.2566 23.6094C33.2566 23.2858 32.9942 23.0234 32.6706 23.0234Z" fill="#FFB876"/>
<path d="M32.6704 27.2852H5.40234C5.07875 27.2852 4.81641 27.5475 4.81641 27.8711C4.81641 28.1947 5.07875 28.457 5.40234 28.457H32.6703C32.994 28.457 33.2562 28.1947 33.2562 27.8711C33.2562 27.5475 32.994 27.2852 32.6704 27.2852Z" fill="#FFB876"/>
<path d="M32.6704 31.543H5.40234C5.07875 31.543 4.81641 31.8053 4.81641 32.1289C4.81641 32.4525 5.07875 32.7148 5.40234 32.7148H32.6703C32.994 32.7148 33.2562 32.4525 33.2562 32.1289C33.2562 31.8053 32.994 31.543 32.6704 31.543Z" fill="#FFB876"/>
<path d="M40 8.81344C40 4.14109 36.1987 0.339844 31.5263 0.339844C26.854 0.339844 23.0527 4.14109 23.0527 8.81344C23.0527 9.70859 23.1927 10.5716 23.4512 11.3823H1.17188V7.79969C1.17188 7.17805 1.67758 6.67234 2.29922 6.67234H21.333C21.6567 6.67234 21.919 6.41 21.919 6.08641C21.919 5.76281 21.6567 5.50047 21.333 5.50047H2.29922C1.03141 5.50047 0 6.53195 0 7.79969V35.3634C0 36.6312 1.03141 37.6627 2.29922 37.6627H34.8527C36.1205 37.6627 37.1519 36.6312 37.1519 35.3634V17.7642C37.1519 17.4406 36.8896 17.1783 36.5659 17.1783C36.2423 17.1783 35.98 17.4406 35.98 17.7642V35.3634C35.98 35.9851 35.4743 36.4908 34.8527 36.4908H2.29922C1.67758 36.4908 1.17188 35.9851 1.17188 35.3634V12.5541H23.9246C25.3087 15.3555 28.196 17.2871 31.5263 17.2871C36.1987 17.2871 40 13.4858 40 8.81344ZM31.5263 16.1152C27.5002 16.1152 24.2246 12.8397 24.2246 8.81352C24.2246 4.78734 27.5002 1.5118 31.5263 1.5118C35.5525 1.5118 38.8281 4.78727 38.8281 8.81344C38.8281 12.8396 35.5525 16.1152 31.5263 16.1152Z" fill="#FFB876"/>
<path d="M37.4819 7.72643C37.4819 7.44924 37.3057 7.20268 37.0436 7.11291L32.2376 5.46572C31.7784 5.3083 31.2724 5.3083 30.8134 5.46572L26.0072 7.11291C25.4252 7.31252 25.4241 8.13994 26.0074 8.33994L27.3187 8.78939V10.8994C27.3187 11.7139 27.9813 12.3766 28.7958 12.3766H34.2551C35.0696 12.3766 35.7323 11.7139 35.7323 10.8994V8.78932L36.31 8.59135V9.34486C36.31 9.66846 36.5723 9.9308 36.8959 9.9308C37.2196 9.9308 37.4819 9.66846 37.4819 9.34486C37.4819 8.99783 37.4819 8.35518 37.4819 7.72643ZM34.5605 10.8994C34.5605 11.0678 34.4235 11.2047 34.2552 11.2047H28.7959C28.6276 11.2047 28.4906 11.0678 28.4906 10.8994V9.19096L30.8134 9.98705C31.2724 10.1445 31.7783 10.1445 32.2376 9.98705L34.5604 9.19096V10.8994H34.5605ZM31.8577 8.87854C31.6434 8.95189 31.4075 8.95189 31.1933 8.87854L27.8317 7.72643L31.1933 6.57424C31.4075 6.50088 31.6434 6.50088 31.8577 6.57424L35.2192 7.72643L31.8577 8.87854Z" fill="#FFB876"/>
</svg>
