<svg width="65" height="65" viewBox="0 0 65 65" fill="none" xmlns="http://www.w3.org/2000/svg">
<g clip-path="url(#clip0_4342_3765)">
<path d="M62.8225 43.2579H61.5806V42.99C61.5806 41.1451 60.0797 39.6442 58.2347 39.6442H58.0413L61.6508 29.48C61.7053 29.4828 61.76 29.4842 61.8151 29.4842C63.5652 29.4842 64.9889 28.0604 64.9889 26.3105C64.9889 24.5605 63.5652 23.1367 61.8151 23.1367C61.2186 23.1367 60.6602 23.3024 60.183 23.5898L55.0042 18.8939C56.6152 17.9135 57.1825 15.8206 56.2614 14.155L55.768 13.2629C54.8228 11.5535 52.6631 10.9318 50.9538 11.877L48.5937 13.1821C46.573 11.9721 44.0327 11.7383 41.7188 12.7396C40.8866 13.0997 40.5395 14.1009 40.9808 14.8985L46.783 25.3913C47.223 26.1867 48.2542 26.4285 49.0036 25.9139C50.9156 24.6007 52.0456 22.5697 52.2529 20.4196L53.2463 19.8703L58.9193 25.0143C58.7413 25.4104 58.6414 25.8489 58.6414 26.3105C58.6414 27.3265 59.1219 28.2318 59.8669 28.8132L56.0206 39.6442H52.481C50.636 39.6442 49.135 41.1451 49.135 42.99V43.2579H34.5997C34.6315 43.1026 34.6483 42.942 34.6483 42.7775C34.6483 40.4296 32.7382 38.5195 30.3902 38.5195H29.4492L29.114 35.9464H45.4718C47.7096 35.9464 49.5304 34.1258 49.5304 31.8878V29.4402C49.5304 28.9142 49.1041 28.488 48.5782 28.488H1.93856V4.05856C1.93856 2.87066 2.90493 1.9043 4.0927 1.9043H45.4719C46.6597 1.9043 47.6262 2.87066 47.6262 4.05856V9.72651C47.6262 10.2525 48.0525 10.6787 48.5783 10.6787C49.1042 10.6787 49.5305 10.2525 49.5305 9.72651V4.05856C49.5305 1.82063 47.7097 0 45.4719 0H4.0927C1.8549 0 0.0342676 1.82063 0.0342676 4.05856V31.888C0.0342676 34.1259 1.8549 35.9465 4.0927 35.9465H19.5603L19.2251 38.5196H18.2842C15.9362 38.5196 14.026 40.4297 14.026 42.7776C14.026 42.9421 14.0428 43.1029 14.0746 43.258H2.16378C0.976006 43.258 0.00976562 44.2242 0.00976562 45.412V48.1274C0.00976562 49.3151 0.976006 50.2814 2.16378 50.2814H4.37124V63.0824C4.37124 64.1399 5.2316 65.0001 6.28912 65.0001H8.47411C9.53163 65.0001 10.3919 64.1399 10.3919 63.0824V50.2813H54.6187V63.0822C54.6187 64.1398 55.479 65 56.5364 65H58.7214C59.7789 65 60.6393 64.1398 60.6393 63.0822V50.2813H62.8222C64.01 50.2813 64.9762 49.3151 64.9762 48.1273V45.4119C64.9765 44.2242 64.0101 43.2579 62.8225 43.2579ZM61.815 25.0409C62.515 25.0409 63.0845 25.6104 63.0845 26.3104C63.0845 27.0104 62.515 27.5798 61.815 27.5798C61.1316 27.5798 60.5455 27.0236 60.5455 26.3104C60.5455 25.61 61.1194 25.0409 61.815 25.0409ZM48.248 24.1056L42.8484 14.3408C45.4669 13.4169 48.3314 14.5307 49.6668 16.9457C51.0118 19.3779 50.4069 22.3914 48.248 24.1056ZM53.954 17.3027L52.1547 18.2976C52.0076 17.5208 51.7367 16.7537 51.3334 16.0243C51.0143 15.4474 50.6305 14.9291 50.1978 14.471L51.8752 13.5434C52.6659 13.1063 53.6643 13.3938 54.1014 14.1843L54.5949 15.0764C55.0319 15.8669 54.7445 16.8657 53.954 17.3027ZM51.0392 42.99C51.0392 42.195 51.6859 41.5485 52.4809 41.5485H58.2347C59.0296 41.5485 59.6763 42.1952 59.6763 42.99V43.2579H51.0392V42.99ZM4.0927 34.042C2.90493 34.042 1.93856 33.0757 1.93856 31.8878V30.3923H47.6262V31.8878C47.6262 33.0756 46.6598 34.042 45.4719 34.042H4.0927ZM27.5289 38.5195H21.1456L21.4807 35.9464H27.1939L27.5289 38.5195ZM18.2843 40.4238H20.0606C20.0613 40.4238 20.0619 40.4239 20.0625 40.4239C20.0634 40.4239 20.0643 40.4238 20.0652 40.4238H30.3902C31.688 40.4238 32.744 41.4796 32.744 42.7775C32.744 43.0424 32.5286 43.2579 32.2636 43.2579H16.4108C16.146 43.2579 15.9304 43.0424 15.9304 42.7775C15.9304 41.4796 16.9863 40.4238 18.2843 40.4238ZM8.48769 63.0822C8.48769 63.0897 8.4816 63.0957 8.47424 63.0957H6.28912C6.28163 63.0957 6.27554 63.0896 6.27554 63.0822V50.2813H8.48769V63.0822ZM58.7352 63.0822C58.7352 63.0897 58.7291 63.0957 58.7216 63.0957H56.5365C56.529 63.0957 56.5231 63.0896 56.5231 63.0822V50.2813H58.7352V63.0822ZM63.0722 48.1273C63.0722 48.265 62.9602 48.377 62.8225 48.377H2.16378C2.02604 48.377 1.91406 48.265 1.91406 48.1273V45.4119C1.91406 45.2742 2.02604 45.1622 2.16378 45.1622H62.8225C62.9602 45.1622 63.0722 45.2742 63.0722 45.4119V48.1273Z" fill="url(#paint0_linear_4342_3765)"/>
</g>
<defs>
<linearGradient id="paint0_linear_4342_3765" x1="64.9889" y1="32.5001" x2="0.00976562" y2="32.5001" gradientUnits="userSpaceOnUse">
<stop stop-color="#31B978"/>
<stop offset="1" stop-color="#1AB69D"/>
</linearGradient>
<clipPath id="clip0_4342_3765">
<rect width="65" height="65" fill="white"/>
</clipPath>
</defs>
</svg>
