<svg width="65" height="61" viewBox="0 0 65 61" fill="none" xmlns="http://www.w3.org/2000/svg">
<path d="M7.40281 15.2431C7.92839 15.2431 8.35445 14.8171 8.35445 14.2915C8.35445 13.7659 7.92839 13.3398 7.40281 13.3398C6.87724 13.3398 6.45117 13.7659 6.45117 14.2915C6.45117 14.8171 6.87724 15.2431 7.40281 15.2431Z" fill="#E95D66"/>
<path d="M11.6372 15.2431C12.1628 15.2431 12.5888 14.8171 12.5888 14.2915C12.5888 13.7659 12.1628 13.3398 11.6372 13.3398C11.1116 13.3398 10.6855 13.7659 10.6855 14.2915C10.6855 14.8171 11.1116 15.2431 11.6372 15.2431Z" fill="#E95D66"/>
<path d="M15.8735 15.2431C16.3991 15.2431 16.8252 14.8171 16.8252 14.2915C16.8252 13.7659 16.3991 13.3398 15.8735 13.3398C15.3479 13.3398 14.9219 13.7659 14.9219 14.2915C14.9219 14.8171 15.3479 15.2431 15.8735 15.2431Z" fill="#E95D66"/>
<path d="M65 13.9454C65 6.35281 58.823 0.175781 51.2304 0.175781C43.6379 0.175781 37.4607 6.35281 37.4607 13.9454C37.4607 15.4001 37.6882 16.8025 38.1082 18.1198H1.9043V12.298C1.9043 11.2879 2.72606 10.4661 3.73623 10.4661H35.3109C35.8367 10.4661 36.263 10.0399 36.263 9.51395C36.263 8.98798 35.8367 8.5618 35.3109 8.5618H3.73623C1.67604 8.5618 0 10.238 0 12.298V57.0891C0 59.1493 1.67604 60.8254 3.73623 60.8254H56.6356C58.6958 60.8254 60.3718 59.1493 60.3718 57.0891V28.2685C60.3718 27.7425 59.9455 27.3163 59.4197 27.3163C58.8938 27.3163 58.4675 27.7425 58.4675 28.2685V57.0892C58.4675 58.0994 57.6457 58.9212 56.6356 58.9212H3.73623C2.72606 58.9212 1.9043 58.0994 1.9043 57.0892V20.0241H38.8775C41.1267 24.5763 45.8185 27.7151 51.2303 27.7151C58.823 27.7151 65 21.5379 65 13.9454ZM39.365 13.9454C39.365 7.40284 44.6878 2.08008 51.2303 2.08008C57.7728 2.08008 63.0957 7.40284 63.0957 13.9454C63.0957 20.4879 57.7729 25.8108 51.2304 25.8108C44.6879 25.8108 39.365 20.4879 39.365 13.9454Z" fill="#E95D66"/>
<path d="M58.0656 17.3341V13.9052L59.0044 13.5835V14.808C59.0044 15.334 59.4307 15.7601 59.9566 15.7601C60.4824 15.7601 60.9087 15.334 60.9087 14.808C60.9043 12.0465 60.9185 12.1867 60.8982 12.0435C60.8475 11.6499 60.5797 11.3125 60.1966 11.1809L52.3869 8.50426C51.6406 8.24858 50.8187 8.24858 50.0726 8.50426L42.2624 11.1812C41.8366 11.3273 41.5505 11.7284 41.5508 12.1785C41.551 12.6288 41.8374 13.0293 42.263 13.1749L44.3938 13.9052V17.3341C44.3938 18.6577 45.4706 19.7344 46.7942 19.7344H55.6656C56.9888 19.7345 58.0656 18.6577 58.0656 17.3341ZM50.6896 10.3057C51.0377 10.1865 51.4213 10.1865 51.7692 10.3057L57.2318 12.178L51.7692 14.0502C51.4211 14.1694 51.0377 14.1694 50.6896 14.0502L45.2271 12.1779L50.6896 10.3057ZM46.2977 17.3341V14.5579L50.0721 15.8515C50.8173 16.1071 51.6401 16.1075 52.3866 15.8515L56.1612 14.5579V17.3341C56.1612 17.6076 55.9386 17.8301 55.665 17.8301H46.7937C46.5202 17.8302 46.2977 17.6077 46.2977 17.3341Z" fill="#E95D66"/>
<path d="M43.2838 33.9968C45.0524 33.9968 46.4912 32.5581 46.4912 30.7895C46.4912 29.0209 45.0524 27.582 43.2838 27.582C41.8467 27.582 40.6273 28.5321 40.2208 29.8374C39.3982 29.8374 21.0133 29.8374 20.1512 29.8374C19.7447 28.5323 18.5253 27.582 17.0882 27.582C15.3196 27.582 13.8809 29.0209 13.8809 30.7895C13.8809 32.5581 15.3196 33.9968 17.0882 33.9968C18.5253 33.9968 19.7447 33.0467 20.1512 31.7416H27.5475L21.0057 39.3737C20.1847 40.3317 20.3448 41.7857 21.3533 42.5468C22.3594 43.3058 24.1656 45.1866 25.2983 49.3803C25.0193 49.6842 24.8476 50.0878 24.8476 50.5319V53.6743C24.8476 54.6156 25.6132 55.3812 26.5543 55.3812H33.8177C34.7588 55.3812 35.5245 54.6156 35.5245 53.6743V50.5319C35.5245 50.0878 35.3526 49.6842 35.0738 49.3803C36.2065 45.1865 38.0126 43.3057 39.0186 42.5466C40.0261 41.7864 40.1882 40.3328 39.3662 39.3734L32.8245 31.7415H40.2208C40.6273 33.0467 41.8467 33.9968 43.2838 33.9968ZM43.2838 29.4863C44.0023 29.4863 44.5869 30.0708 44.5869 30.7895C44.5869 31.5079 44.0024 32.0925 43.2838 32.0925C42.5653 32.0925 41.9808 31.5081 41.9808 30.7895C41.9809 30.0709 42.5654 29.4863 43.2838 29.4863ZM17.0882 32.0925C16.3696 32.0925 15.7852 31.5081 15.7852 30.7895C15.7852 30.0709 16.3696 29.4863 17.0882 29.4863C17.8066 29.4863 18.3913 30.0708 18.3913 30.7895C18.3911 31.5079 17.8066 32.0925 17.0882 32.0925ZM30.186 41.3031C30.8112 41.3031 31.3199 41.8118 31.3199 42.4371C31.3199 43.0623 30.8112 43.571 30.186 43.571C29.5607 43.571 29.052 43.0623 29.052 42.4371C29.052 41.8118 29.5608 41.3031 30.186 41.3031ZM33.6202 53.477H26.7517V50.7294H33.6202V53.477ZM37.9203 40.6128C38.0308 40.7417 38.0009 40.9291 37.8717 41.0266C36.4129 42.1274 34.4641 44.3665 33.251 48.8252H27.1211C25.9078 44.3666 23.9592 42.1274 22.5003 41.0266C22.37 40.9284 22.342 40.7409 22.4516 40.6129L29.2338 32.7003V39.5524C28.0237 39.953 27.1477 41.0943 27.1477 42.4369C27.1477 44.1122 28.5107 45.4752 30.186 45.4752C31.8612 45.4752 33.2242 44.1123 33.2242 42.4369C33.2242 41.0942 32.3483 39.9529 31.1381 39.5524V32.7003L37.9203 40.6128Z" fill="#E95D66"/>
</svg>
