<svg width="65" height="65" viewBox="0 0 65 65" fill="none" xmlns="http://www.w3.org/2000/svg">
<g clip-path="url(#clip0_4344_3799)">
<path d="M47.3493 22.6133H23.085C22.5591 22.6133 22.1328 23.0396 22.1328 23.5654C22.1328 24.0913 22.5591 24.5176 23.085 24.5176H47.3493C47.8751 24.5176 48.3014 24.0913 48.3014 23.5654C48.3014 23.0396 47.8751 22.6133 47.3493 22.6133Z" fill="#543EE8"/>
<path d="M47.3493 26.6992H23.085C22.5591 26.6992 22.1328 27.1255 22.1328 27.6514C22.1328 28.1772 22.5591 28.6035 23.085 28.6035H47.3493C47.8751 28.6035 48.3014 28.1772 48.3014 27.6514C48.3014 27.1255 47.8751 26.6992 47.3493 26.6992Z" fill="#543EE8"/>
<path d="M18.7094 14.3167C18.7094 14.8425 19.1358 15.2688 19.6616 15.2688H34.2684C35.3172 15.2688 36.1705 14.4156 36.1705 13.3667V9.96842C36.1705 8.91966 35.3172 8.06641 34.2684 8.06641H12.1032C11.0544 8.06641 10.2012 8.91966 10.2012 9.96842V13.3668C10.2012 14.4157 11.0544 15.269 12.1032 15.269H15.2073C15.7332 15.269 16.1595 14.8427 16.1595 14.3168C16.1595 13.791 15.7332 13.3647 15.2073 13.3647L12.1055 13.3668L12.1032 9.97058L34.2662 9.96829L34.2684 13.3644H19.6616C19.1358 13.3645 18.7094 13.7908 18.7094 14.3167Z" fill="#543EE8"/>
<path d="M54.0877 42.2826C53.5619 42.2826 53.1356 42.7089 53.1356 43.2348V58.2726C53.1356 60.9322 50.9719 63.0958 48.3124 63.0958H10.1904C7.53085 63.0958 5.36719 60.9322 5.36719 58.2726V6.7275C5.36719 4.06796 7.53085 1.9043 10.1904 1.9043C40.8729 1.93032 39.1747 1.84171 39.7714 1.97349V11.2225C39.7714 13.4535 41.5864 15.2685 43.8174 15.2685H53.0664C53.1107 15.469 53.1356 15.675 53.1356 15.8853V24.0282C53.1356 24.554 53.5619 24.9803 54.0877 24.9803C54.6136 24.9803 55.0399 24.554 55.0399 24.0282V15.8853C55.0399 14.6192 54.5469 13.4288 53.6516 12.5337L42.5062 1.38823C41.611 0.492959 40.4207 0 39.1546 0H10.1904C6.48082 0 3.46289 3.01793 3.46289 6.7275V58.2726C3.46289 61.9822 6.48082 65.0001 10.1904 65.0001H48.3125C52.0221 65.0001 55.04 61.9822 55.04 58.2726V43.2348C55.0399 42.7089 54.6136 42.2826 54.0877 42.2826ZM51.7891 13.3642H43.8174C42.6364 13.3642 41.6757 12.4034 41.6757 11.2225V3.25076L51.7891 13.3642Z" fill="#543EE8"/>
<path d="M18.3866 23.2854C18.3866 22.3095 17.5928 21.5156 16.6169 21.5156H11.9709C10.995 21.5156 10.2012 22.3095 10.2012 23.2854V27.9313C10.2012 28.9072 10.995 29.7011 11.9709 29.7011H16.6169C17.5928 29.7011 18.3866 28.9072 18.3866 27.9313V23.2854ZM16.4823 27.7968H12.1055V23.4199H16.4823V27.7968Z" fill="#543EE8"/>
<path d="M18.3866 35.133C18.3866 34.1571 17.5928 33.3633 16.6169 33.3633H11.9709C10.995 33.3633 10.2012 34.1571 10.2012 35.133V39.779C10.2012 40.7549 10.995 41.5487 11.9709 41.5487H16.6169C17.5928 41.5487 18.3866 40.7549 18.3866 39.779V35.133ZM16.4823 39.6444H12.1055V35.2676H16.4823V39.6444Z" fill="#543EE8"/>
<path d="M16.6169 45.2109H11.9709C10.995 45.2109 10.2012 46.0048 10.2012 46.9807V51.6266C10.2012 52.6025 10.995 53.3964 11.9709 53.3964H16.6169C17.5928 53.3964 18.3866 52.6025 18.3866 51.6266V46.9807C18.3866 46.0048 17.5928 45.2109 16.6169 45.2109ZM16.4823 51.4919H12.1055V47.1151H16.4823V51.4919Z" fill="#543EE8"/>
<path d="M60.2673 27.4179C58.5747 25.7253 55.8206 25.7253 54.128 27.4179L47.086 34.46H23.085C22.5591 34.46 22.1328 34.8863 22.1328 35.4122C22.1328 35.938 22.5591 36.3643 23.085 36.3643H45.1817L42.9982 38.5478H23.085C22.5591 38.5478 22.1328 38.9741 22.1328 39.4999C22.1328 40.0258 22.5591 40.4521 23.085 40.4521H41.0939L35.2379 46.3081H23.085C22.5591 46.3081 22.1328 46.7344 22.1328 47.2602C22.1328 47.786 22.5591 48.2124 23.085 48.2124H33.3336L31.1502 50.3958H23.0851C22.5592 50.3958 22.1329 50.8221 22.1329 51.348C22.1329 51.8738 22.5592 52.3001 23.0851 52.3001H29.2732C28.6863 52.9779 28.2301 53.7214 27.9078 54.558L25.9008 59.7667C25.6791 60.3421 25.8176 60.9956 26.2536 61.4316C26.6918 61.8698 27.3459 62.005 27.9186 61.7844L33.1271 59.7774C34.1546 59.3816 35.0626 58.7618 35.7575 58.0667L41.5243 52.3H47.3493C47.8751 52.3 48.3014 51.8737 48.3014 51.3478C48.3014 50.822 47.8751 50.3957 47.3493 50.3957H43.4286L45.612 48.2122H47.3493C47.8751 48.2122 48.3014 47.7859 48.3014 47.2601C48.3014 46.7867 47.9555 46.395 47.5029 46.3214L60.2674 33.5569C61.9599 31.8646 61.9599 29.1106 60.2673 27.4179ZM32.4423 58.0007L27.9559 59.7294L29.6846 55.2429C29.7523 55.0672 29.8291 54.8948 29.9144 54.7264L32.9589 57.7709C32.7905 57.8562 32.6181 57.9329 32.4423 58.0007ZM34.5062 56.6252L31.06 53.179L49.8025 34.4365L53.2486 37.8827L34.5062 56.6252ZM54.5952 36.5362L51.1491 33.0901L52.7194 31.5198L56.1655 34.9659L54.5952 36.5362ZM58.9208 32.2107L57.5121 33.6193L54.0658 30.1731L55.4745 28.7644C56.4246 27.8144 57.9705 27.8144 58.9208 28.7644C59.8709 29.7145 59.8709 31.2606 58.9208 32.2107Z" fill="#543EE8"/>
</g>
<defs>
<clipPath id="clip0_4344_3799">
<rect width="65" height="65" fill="white"/>
</clipPath>
</defs>
</svg>
