<svg width="49" height="65" viewBox="0 0 49 65" fill="none" xmlns="http://www.w3.org/2000/svg">
<path d="M47.8287 49.2103L23.5452 24.9269V20.2225C23.5452 19.6965 23.119 19.2703 22.593 19.2703C22.0671 19.2703 21.6409 19.6965 21.6409 20.2225V23.0226L18.9166 20.2983V13.8995H21.6409V15.7716C21.6409 16.2976 22.0671 16.7238 22.593 16.7238C23.119 16.7238 23.5452 16.2976 23.5452 15.7716C23.5452 12.5973 23.5452 8.75393 23.5452 5.58073C23.5452 2.50352 21.0417 0 17.9645 0C14.8874 0 12.3838 2.50352 12.3838 5.58061V13.7655L4.3745 5.75618C2.94958 4.33151 0.505859 5.34206 0.505859 7.35858V50.8127C0.505859 52.0623 1.52237 53.079 2.77197 53.079H12.3863C12.3918 53.4429 12.416 53.789 12.4632 54.1521C12.4633 54.1529 12.4632 54.1536 12.4633 54.1544C12.4634 54.1557 12.4637 54.1568 12.4638 54.1581C12.464 54.1587 12.464 54.1593 12.4641 54.16C12.4641 54.1605 12.4643 54.161 12.4643 54.1615C12.7035 56.072 13.0245 56.4807 16.3342 63.9397C16.6243 64.5936 17.2491 65 17.9645 65C18.68 65 19.3047 64.5938 19.5948 63.9398L21.9623 58.6041C22.4186 57.4581 23.2029 56.2523 23.4647 54.1615C23.4648 54.161 23.4649 54.1605 23.4649 54.16C23.4651 54.1593 23.4651 54.1587 23.4652 54.1581C23.4653 54.1568 23.4656 54.1557 23.4657 54.1544C23.4658 54.1536 23.4657 54.1529 23.4658 54.1521C23.5131 53.7889 23.5371 53.4428 23.5428 53.079H46.2263C48.2414 53.079 49.2545 50.6364 47.8287 49.2103ZM14.2881 5.58061C14.2881 3.55342 15.9373 1.9043 17.9645 1.9043C19.9916 1.9043 21.6409 3.55342 21.6409 5.58061V7.76115H14.2881V5.58061ZM14.2881 9.66545H21.6409V11.9952H14.2881V9.66545ZM14.2881 13.8993H17.0123V18.3939L14.2881 15.6697V13.8993ZM14.2881 52.9204V29.3716L17.0123 32.0958V53.0846H14.2906C14.2895 53.0304 14.2881 52.9765 14.2881 52.9204ZM17.9646 62.9186L16.3011 59.1701H19.6278L17.9646 62.9186ZM20.4728 57.2658H15.4561C15.0989 56.422 14.8018 55.9136 14.5588 54.9889H21.37C21.1272 55.9135 20.83 56.422 20.4728 57.2658ZM21.6409 52.9204C21.6409 52.9765 21.6395 53.0304 21.6385 53.0847H18.9166V34.0001L21.6409 36.7244V52.9204ZM46.2263 51.1747H23.5452V45.2947H29.5178C30.7654 45.2947 31.3922 43.7828 30.5096 42.9001L10.6847 23.0751C9.80264 22.1933 8.29024 22.8188 8.29024 24.067V33.5479C8.29024 34.0738 8.71642 34.5 9.24239 34.5C9.76836 34.5 10.1945 34.0738 10.1945 33.5479V25.278L12.3838 27.4673V43.3903H10.1945V37.9987C10.1945 37.4728 9.76836 37.0466 9.24239 37.0466C8.71642 37.0466 8.29024 37.4728 8.29024 37.9987V43.8919C8.29024 44.6654 8.91942 45.2946 9.69295 45.2946H12.3838V51.1745H2.77197C2.57253 51.1745 2.41016 51.0123 2.41016 50.8126V46.2731H4.18966C4.71562 46.2731 5.14181 45.847 5.14181 45.321C5.14181 44.795 4.71562 44.3688 4.18966 44.3688H2.41016V39.8879H4.18966C4.71562 39.8879 5.14181 39.4617 5.14181 38.9358C5.14181 38.4098 4.71562 37.9836 4.18966 37.9836H2.41016V33.5029H4.18966C4.71562 33.5029 5.14181 33.0767 5.14181 32.5508C5.14181 32.0248 4.71562 31.5986 4.18966 31.5986H2.41016V27.1177H4.18966C4.71562 27.1177 5.14181 26.6915 5.14181 26.1655C5.14181 25.6396 4.71562 25.2134 4.18966 25.2134H2.41016V20.7325H4.18966C4.71562 20.7325 5.14181 20.3063 5.14181 19.7803C5.14181 19.2543 4.71562 18.8282 4.18966 18.8282H2.41016V14.3472H4.18966C4.71562 14.3472 5.14181 13.921 5.14181 13.3951C5.14181 12.8691 4.71562 12.4429 4.18966 12.4429H2.41016V7.35846C2.41016 7.03625 2.79749 6.87197 3.02778 7.10265L46.4819 50.5568C46.7096 50.7843 46.553 51.1747 46.2263 51.1747ZM23.5452 43.3903V38.6287L28.3068 43.3903H23.5452Z" fill="#4260FF"/>
</svg>
